<svg width="100" height="24" viewBox="0 0 100 24" fill="none" xmlns="http://www.w3.org/2000/svg">
<path d="M21.322 8C21.322 10.2 20.5224 12.1 18.8167 13.65C17.1642 15.25 15.1386 16 12.7932 16H4.2644V24H0V12H4.2644H12.7932C13.9659 12 14.9254 11.6 15.7783 10.85C16.6312 10.05 17.0576 9.15 17.0576 8.05C17.0576 6.95 16.6312 6 15.7783 5.25C14.9254 4.4 13.9659 4 12.7932 4H4.2644L0 0H12.7932C15.1386 0 17.1642 0.8 18.8167 2.35C20.4691 3.95 21.322 5.8 21.322 8Z" fill="white"/>
<path d="M28.0918 20L25.9063 24H21.1621L33.9553 0L42.4841 16H37.6867L33.9553 8.95L30.1707 16L28.0918 20ZM46.7485 24H42.0044L39.8722 20H44.6163L46.7485 24Z" fill="white"/>
<path d="M67.5908 17.3L71.8552 18.6C71.2688 19.4 70.6292 20.15 69.8296 20.8C69.0833 21.45 68.2304 22.05 67.3242 22.5C66.4181 23 65.4586 23.35 64.3925 23.6C63.3797 23.85 62.3136 24 61.1942 24C57.6227 24 54.691 22.8 52.1856 20.45C49.6803 18.1 48.3477 15.35 48.3477 12C48.3477 8.7 49.5737 5.9 52.1323 3.55C54.5843 1.2 57.6227 0 61.1409 0C62.8999 0 64.5524 0.3 66.1515 0.95C67.6974 1.6 69.0833 2.45 70.256 3.55L67.1643 6.35C65.5119 4.8 63.5396 4 61.1409 4C58.7954 4 56.7698 4.75 55.1174 6.35C53.4649 7.9 52.6654 9.8 52.6654 12C52.6654 14.2 53.4649 16.1 55.1174 17.65C56.7698 19.2 58.8487 19.95 61.1409 19.95C62.4202 19.95 63.5929 19.7 64.7123 19.25C65.7784 18.8 66.7379 18.15 67.5908 17.3ZM61.1409 10H71.8019L67.5375 14H61.0876L61.1409 10Z" fill="white"/>
<path d="M99.9997 0L94.6692 4H78.6777V0H99.9997ZM94.6692 14H78.6777V10H94.6692V14ZM99.9997 23.65V24H78.6777V20H94.6692L99.9997 23.65Z" fill="white"/>
</svg>
