<svg width="35" height="35" viewBox="0 0 35 35" fill="none" xmlns="http://www.w3.org/2000/svg">
<path d="M34.9986 0.0336609V3.75802C33.9894 2.49039 33.0137 1.26763 32.0156 0.0336609H34.9986Z" fill="#009877"/>
<path d="M34.9201 34.9663H33.7763C34.18 34.383 34.5276 33.8558 34.9201 33.2949V34.9663Z" fill="#009877"/>
<path d="M0 13.0128C0.280359 12.2612 0.538289 11.5096 0.829862 10.758C1.98494 7.79648 3.77924 5.22757 5.85389 2.84936C6.69497 1.88462 7.59212 0.95353 8.43319 0.0448761C9.25184 0.0448761 9.98077 0.0448761 10.7097 0.0448761C10.7434 0.067312 10.7658 0.100966 10.7994 0.123402C10.6649 0.213145 10.5303 0.291671 10.4181 0.40385C6.15668 4.29648 3.02788 8.88462 1.62608 14.5497C1.00929 17.0401 0.942006 19.5641 1.18872 22.1106C1.39058 24.1859 1.81673 26.2051 2.62416 28.1234C3.76802 30.8494 5.51746 33.0705 8.00705 34.6971C8.09676 34.7532 8.17526 34.8205 8.33226 34.9327C7.4239 34.9327 6.60525 34.9327 5.73053 34.9327C4.59788 34.0465 3.61102 32.9583 2.75873 31.7468C1.61487 30.1426 0.796219 28.3702 0.246716 26.4744C0.17943 26.25 0.0785005 26.0256 0 25.8013C0 21.5385 0 17.2756 0 13.0128Z" fill="#009877"/>
<path d="M0 6.84293C0.650433 5.91184 1.24479 4.93588 1.96251 4.06088C3.09516 2.66986 4.30631 1.34614 5.42775 0.056076C6.26882 0.056076 6.98654 0.056076 7.78276 0.056076C7.23326 0.639409 6.73983 1.15543 6.2464 1.68268C3.58859 4.61056 1.35694 7.80768 0 11.5545C0 9.98396 0 8.41344 0 6.84293Z" fill="#009877"/>
<path d="M0 27.3718C0.347645 28.1795 0.661647 28.9872 1.04293 29.7724C1.97373 31.6683 3.21852 33.3397 4.78853 34.7644C4.82217 34.7981 4.85582 34.8429 4.9231 34.9327C4.14931 34.9327 3.40916 34.9327 2.52323 34.9327C1.89523 34.0913 1.19994 33.1715 0.504646 32.2516C0.325216 32.016 0.168215 31.7692 0 31.5224C0 30.1426 0 28.7516 0 27.3718Z" fill="#009877"/>
<path d="M0 2.69231C0.728933 1.91827 1.45787 1.14423 2.17558 0.381409C2.27651 0.26923 2.36623 0.15705 2.44473 0.0673065C3.28581 0.0673065 4.08203 0.0673065 4.95674 0.0673065C3.11759 2.00801 1.36815 3.9375 0 6.16987C0 5.01442 0 3.84775 0 2.69231Z" fill="#009877"/>
<path d="M0 32.1955C0.661647 33.1041 1.31208 34.0128 2.0298 35C1.31208 35 0.650433 35 0 35C0 34.0689 0 33.1266 0 32.1955Z" fill="#009877"/>
<path d="M0 0C0.628004 0 1.25601 0 1.88401 0C1.90644 0.0336538 1.92887 0.0785256 1.9513 0.112179C1.30087 0.81891 0.650433 1.53686 0 2.24359C0 1.49199 0 0.751602 0 0Z" fill="#009877"/>
<path d="M31.2205 20.4054C31.1981 23.2099 30.7608 25.9135 29.4823 28.4375C27.6432 32.0497 24.6826 34.1026 20.6678 34.6522C18.1446 35 15.6326 34.9102 13.1766 34.2484C8.82547 33.0705 6.04431 30.2436 4.75466 25.9695C3.55472 21.9872 3.65565 17.9711 4.84437 14C6.12281 9.73718 8.32082 6.0016 11.5169 2.88302C12.044 2.36699 12.6608 1.91827 13.2664 1.49199C15.7111 -0.190701 18.2455 -0.325317 20.8697 1.06571C23.3481 2.38943 25.2881 4.29648 26.903 6.5625C29.3141 9.95032 30.671 13.742 31.0523 17.8926C31.1308 18.734 31.1645 19.5641 31.2205 20.4054ZM5.52845 20.7532C5.52845 22.2452 5.66302 23.7147 6.04431 25.1506C7.07603 29.0993 9.41983 31.8365 13.3673 33.0705C15.655 33.7884 17.9988 33.8782 20.3426 33.4295C24.8171 32.5657 27.7889 29.9856 29.0562 25.5657C29.7851 23.008 29.8412 20.4167 29.415 17.7917C28.6188 12.9679 26.6675 8.66026 23.5051 4.92468C22.5182 3.75801 21.3856 2.77084 20.0286 2.04167C18.3801 1.14423 16.7204 1.14423 15.0382 1.95193C13.6364 2.625 12.4589 3.61218 11.4721 4.80128C7.62553 9.42308 5.76395 14.7853 5.52845 20.7532Z" fill="#009877"/>
<path d="M20.1406 0.0336474C21.1499 0.0336474 22.0919 0.0112115 23.0451 0.0448654C23.2806 0.0560833 23.5386 0.201917 23.7516 0.336532C28.114 3.15224 30.9849 7.0673 32.3867 12.0593C33.3287 15.3798 33.6091 18.7788 33.3736 22.2115C33.1493 25.4423 32.3082 28.5048 30.4354 31.2083C29.4598 32.6218 28.2822 33.8333 26.802 34.742C26.5889 34.8654 26.3197 34.9551 26.073 34.9663C24.8955 34.9888 23.718 34.9775 22.5293 34.9327C22.7311 34.8654 22.933 34.7981 23.1349 34.7308C26.858 33.4968 29.2579 30.9279 30.6485 27.3269C31.826 24.2756 31.983 21.1122 31.6802 17.8926C31.3774 14.5721 30.4578 11.4423 28.843 8.52563C27.1272 5.41826 24.8843 2.78204 21.8116 0.919865C21.2845 0.605763 20.735 0.34775 20.1406 0.0336474Z" fill="#009877"/>
<path d="M13.2217 34.9663C12.1227 34.9663 11.0125 34.9776 9.91351 34.9551C9.63315 34.9439 9.31914 34.8766 9.07243 34.742C6.67256 33.4295 4.88947 31.5 3.64468 29.0881C1.81674 25.5208 1.37938 21.6843 1.65974 17.758C2.00738 13.0465 3.92504 8.94071 6.72863 5.20513C8.00706 3.5 9.39764 1.88462 11.0686 0.549684C11.2817 0.370197 11.5059 0.213145 11.7302 0.0448761C12.661 0.0448761 13.5694 0.0448761 14.5114 0.0448761C13.8946 0.415068 13.2666 0.729171 12.6947 1.13302C10.4182 2.71475 8.74721 4.85738 7.27813 7.17949C5.31562 10.2756 3.98111 13.6298 3.49889 17.2756C3.01668 21 3.30825 24.6683 4.92312 28.1234C6.51556 31.5337 9.18457 33.7324 12.7956 34.7756C12.9414 34.8205 13.076 34.8542 13.2217 34.899C13.2217 34.9215 13.2217 34.9439 13.2217 34.9663Z" fill="#009877"/>
<path d="M24.3242 0.0448761C25.3784 0.0448761 26.3428 0.0448761 27.3521 0.0448761C29.6623 1.75 31.5575 3.85898 32.9032 6.42789C33.8676 8.25641 34.4844 10.2083 34.9106 12.2276C34.9442 12.4071 34.9554 12.5978 34.9554 12.7885C34.9554 17.141 34.9891 21.5048 34.933 25.8574C34.9218 26.6202 34.6414 27.3942 34.3947 28.1234C33.5985 30.5353 32.3874 32.7003 30.5818 34.5176C30.4361 34.6635 30.3239 34.8317 30.2342 34.9439C29.2698 34.9439 28.4175 34.9439 27.5315 34.9439C28.1259 34.4167 28.7315 33.9343 29.281 33.3846C31.5014 31.1747 32.7462 28.4487 33.4191 25.4423C34.0471 22.649 34.1144 19.8221 33.8116 16.9728C33.5761 14.774 33.1836 12.6202 32.4546 10.5224C31.008 6.39423 28.496 3.0625 24.9522 0.493594C24.7728 0.381414 24.5821 0.235581 24.3242 0.0448761Z" fill="#009877"/>
<path d="M34.9551 10.1971C33.7551 6.13621 31.5571 2.77083 28.1367 0.0785217C29.2582 0.0785217 30.2562 0.0785217 31.3104 0.0785217C32.757 1.3125 33.9345 2.83814 34.8653 4.5657C34.9438 4.70032 34.9551 4.89102 34.9551 5.04807C34.9663 6.76442 34.9551 8.48076 34.9551 10.1971Z" fill="#009877"/>
<path d="M33.2948 34.9551C32.4201 34.9551 31.6687 34.9551 30.8164 34.9551C32.7677 32.992 34.0461 30.7035 34.9545 28.1683C34.9545 29.5481 34.9545 30.9391 34.9433 32.3189C34.9433 32.4423 34.876 32.5769 34.8087 32.6779C34.3153 33.4407 33.7994 34.1923 33.2948 34.9551Z" fill="#009877"/>
<path d="M28.2259 20.8317C28.282 22.7163 28.0353 24.5561 27.3063 26.3061C25.8597 29.8173 23.1682 31.7243 19.4563 32.274C17.3704 32.5769 15.307 32.4311 13.3332 31.6795C9.95772 30.3782 8.06249 27.8093 7.31113 24.3541C6.53734 20.8317 6.94106 17.3654 8.02885 13.9775C8.97086 11.0272 10.339 8.31249 12.4585 6.01281C13.3332 5.05928 14.3313 4.25159 15.5425 3.73556C16.9779 3.11858 18.3685 3.17467 19.7479 3.90383C21.1721 4.66665 22.3272 5.75479 23.3028 7.02242C25.9718 10.4551 27.5867 14.3477 28.1362 18.6666C28.1586 18.8686 28.2147 19.0705 28.2147 19.2724C28.2371 19.7772 28.2259 20.3045 28.2259 20.8317ZM7.40085 21.157C7.52421 22.0096 7.61392 23.3894 7.95035 24.7243C8.78021 28.0448 10.7988 30.3445 14.107 31.399C15.7892 31.9263 17.5162 32.0272 19.2544 31.7916C22.9327 31.2868 25.5569 29.4022 26.9138 25.891C27.867 23.4118 27.9568 20.8093 27.5643 18.2179C26.9699 14.2243 25.4335 10.6122 22.9552 7.41505C22.1141 6.32691 21.1496 5.37338 19.9834 4.62178C18.3685 3.57851 16.7312 3.55608 15.0715 4.53204C13.9949 5.16024 13.0753 5.99037 12.3015 6.95511C9.13907 10.9487 7.62513 15.5481 7.40085 21.157Z" fill="#009877"/>
<path d="M26.6018 20.8429C26.6018 22.5481 26.3663 24.1971 25.671 25.7564C24.6393 28.0561 22.9123 29.5705 20.4788 30.2548C18.6284 30.7708 16.7444 30.8045 14.894 30.3109C11.5633 29.4247 9.64569 27.1586 8.90554 23.8718C8.1654 20.6186 8.64761 17.4551 9.75783 14.359C10.5316 12.1939 11.6082 10.1971 13.167 8.48076C13.8511 7.72916 14.6249 7.08974 15.5332 6.61858C16.9014 5.92307 18.2471 5.92307 19.5928 6.68589C20.9834 7.48237 22.06 8.61538 22.9683 9.90544C25.2449 13.1923 26.5345 16.8157 26.6018 20.8429ZM26.1644 20.8654C26.1644 17.0513 24.572 12.5865 22.1273 9.56891C21.4096 8.68269 20.6133 7.86378 19.6489 7.24679C18.3368 6.40544 16.9911 6.33814 15.6229 7.10096C15.1183 7.3814 14.6473 7.71794 14.2099 8.09935C12.4717 9.64743 11.3278 11.6218 10.4643 13.7532C9.19712 16.9054 8.61397 20.1699 9.29805 23.5577C9.89241 26.508 11.4961 28.6731 14.4118 29.7051C15.9706 30.2548 17.5967 30.3558 19.2228 30.0865C22.0376 29.6154 24.1234 28.1683 25.2897 25.5096C25.9289 24.0288 26.1532 22.4583 26.1644 20.8654Z" fill="#009877"/>
<path d="M17.6837 28.9199C14.9249 28.8525 12.7381 27.9551 11.3251 25.6106C10.6747 24.5336 10.3383 23.3445 10.2598 22.1106C9.97941 17.9824 11.1345 14.2804 13.7811 11.0833C14.3194 10.4327 15.0259 9.89422 15.7436 9.4455C16.9996 8.66025 18.2892 8.76121 19.534 9.5689C20.734 10.3542 21.6311 11.4199 22.3937 12.609C23.9525 15.0545 24.8721 17.7131 24.9394 20.6186C24.9842 22.75 24.6029 24.7917 23.1787 26.4968C22.0461 27.8542 20.5658 28.5721 18.8387 28.8189C18.4014 28.8638 17.9752 28.8862 17.6837 28.9199ZM10.5513 20.7981C10.6186 21.4599 10.6298 22.1554 10.7532 22.8397C11.2578 25.5881 12.7381 27.5176 15.5193 28.258C16.6295 28.5609 17.7734 28.5945 18.906 28.3926C21.2723 27.9776 22.9768 26.7211 23.9076 24.4663C24.3674 23.3445 24.5693 22.1667 24.5581 20.9663C24.5244 17.6122 23.4254 14.6058 21.4293 11.9135C20.8013 11.0721 20.0723 10.3317 19.1527 9.78204C18.1435 9.17627 17.0893 9.09775 16.0688 9.6923C15.452 10.0513 14.8352 10.4888 14.353 11.016C11.841 13.7756 10.7308 17.0961 10.5513 20.7981Z" fill="#009877"/>
<path d="M18.2465 27.125C14.3664 27.125 12.2468 25.2516 11.9104 22.0545C11.5516 18.7227 12.5721 15.7836 14.7252 13.2596C15.1289 12.7885 15.6672 12.407 16.2055 12.0929C17.1139 11.5545 18.0559 11.5994 18.9642 12.1378C19.8165 12.6426 20.4782 13.3494 21.0389 14.157C22.4631 16.1987 23.2481 18.4647 23.2706 20.9663C23.2818 21.9984 23.1023 23.008 22.665 23.9615C21.6669 26.1715 19.8614 27.0913 18.2465 27.125ZM12.1347 20.8205C12.1571 21.2131 12.1796 21.5609 12.202 21.9199C12.3814 24.1859 13.7159 25.9583 15.7457 26.5641C16.7774 26.8782 17.8428 26.9118 18.897 26.6651C21.2632 26.1042 22.7659 24.2083 22.9117 21.6282C23.0575 19.0256 22.3173 16.6923 20.9043 14.5385C20.3773 13.742 19.7493 13.024 18.9306 12.4968C18.0447 11.9247 17.1251 11.891 16.2392 12.4631C15.7121 12.7997 15.2074 13.2147 14.8037 13.6971C13.0543 15.75 12.2468 18.1731 12.1347 20.8205Z" fill="#009877"/>
<path d="M13.4794 20.899C13.5018 18.9247 14.141 17.1635 15.4531 15.6827C16.81 14.1458 18.2567 14.1122 19.5912 15.6715C21.2397 17.601 21.9911 19.8333 21.4079 22.3798C20.9369 24.4663 19.2435 25.5545 16.9334 25.3525C15.0269 25.1843 13.6252 23.6923 13.4906 21.6955C13.4682 21.4263 13.4794 21.157 13.4794 20.899ZM21.3518 21.1458C21.2846 19.4295 20.9145 18.0833 20.1407 16.883C19.7594 16.2997 19.2884 15.7388 18.7613 15.2788C17.9875 14.6058 17.1913 14.617 16.3502 15.234C16.0026 15.4808 15.6774 15.7836 15.4194 16.1202C14.1074 17.8141 13.513 19.7324 13.7597 21.8862C13.9728 23.6923 15.2624 24.9487 17.1577 25.1058C18.8623 25.2404 20.4098 24.4439 21.0042 22.6715C21.2173 22.0993 21.2846 21.4824 21.3518 21.1458Z" fill="#009877"/>
<path d="M19.9378 20.6635C19.9265 22.5256 18.9172 23.6362 17.4482 23.6474C16.1809 23.6587 15.1941 22.7837 15.0707 21.4487C14.9474 20.0577 15.3959 18.8349 16.4277 17.8702C17.2239 17.1298 18.0313 17.1747 18.7715 17.9711C19.5452 18.7901 19.9041 19.7885 19.9378 20.6635ZM15.2614 20.8878C15.2165 22.3237 16.0127 23.2997 17.2687 23.4343C18.4462 23.5577 19.4668 22.7276 19.6574 21.4151C19.8593 20.1138 19.4331 18.9808 18.5247 18.0385C17.8967 17.3878 17.2239 17.399 16.551 18.0272C15.7212 18.8125 15.3399 19.8333 15.2614 20.8878Z" fill="#009877"/>
</svg>
