<svg width="34" height="34" viewBox="0 0 34 34" fill="none" xmlns="http://www.w3.org/2000/svg">
<path d="M27.625 0C29.3811 0 30.8826 0.623481 32.1296 1.87044C33.3765 3.1174 34 4.61892 34 6.375V27.625C34 29.3811 33.3765 30.8826 32.1296 32.1296C30.8826 33.3765 29.3811 34 27.625 34H23.4635V20.8294H27.8685L28.5326 15.694H23.4635V12.418C23.4635 11.5916 23.6369 10.9718 23.9837 10.5586C24.3305 10.1454 25.0056 9.9388 26.0091 9.9388L28.7096 9.91667V5.33464C27.7799 5.20182 26.4666 5.13542 24.7695 5.13542C22.7626 5.13542 21.1578 5.72569 19.9551 6.90625C18.7524 8.08681 18.151 9.75434 18.151 11.9089V15.694H13.724V20.8294H18.151V34H6.375C4.61892 34 3.1174 33.3765 1.87044 32.1296C0.623481 30.8826 0 29.3811 0 27.625V6.375C0 4.61892 0.623481 3.1174 1.87044 1.87044C3.1174 0.623481 4.61892 0 6.375 0H27.625Z" fill="#009877"/>
</svg>
