<svg width="241" height="506" viewBox="0 0 241 506" fill="none" xmlns="http://www.w3.org/2000/svg">
<path d="M222.296 504.572H240V1H1V504.572H18.7037M222.296 504.572V19.6872H18.7037V504.572M222.296 504.572H18.7037" stroke="#E0E0E0"/>
<path d="M47.2266 218.377L33.1422 217.482C29.6728 217.262 26.7378 220.017 26.7378 223.493C26.7378 226.894 29.5522 229.621 32.9517 229.513L47.2266 229.06M47.2266 218.377L66.8217 219.621C69.1474 219.769 70.9581 221.698 70.9581 224.028C70.9581 226.413 69.0652 228.366 66.682 228.442L47.2266 229.06M47.2266 218.377V58.0453H193.774V298.029H47.2266V229.06" stroke="#E0E0E0"/>
<rect x="47.2261" y="342.288" width="146.547" height="121.959" stroke="#E0E0E0"/>
</svg>
