<svg width="41" height="42" viewBox="0 0 41 42" fill="none" xmlns="http://www.w3.org/2000/svg">
<g opacity="0.75">
<path fill-rule="evenodd" clip-rule="evenodd" d="M17.0203 31.0407C24.7636 31.0407 31.0407 24.7636 31.0407 17.0203C31.0407 9.27712 24.7636 3 17.0203 3C9.27712 3 3 9.27712 3 17.0203C3 24.7636 9.27712 31.0407 17.0203 31.0407ZM17.0203 34.0407C26.4204 34.0407 34.0407 26.4204 34.0407 17.0203C34.0407 7.62027 26.4204 0 17.0203 0C7.62027 0 0 7.62027 0 17.0203C0 26.4204 7.62027 34.0407 17.0203 34.0407Z" fill="#BDBDBD"/>
<path d="M26.3633 29.3474L28.4846 27.2261L40.8793 39.6207L38.7579 41.7421L26.3633 29.3474Z" fill="#BDBDBD"/>
<path d="M15.5996 10.7357H18.5996V23.2657H15.5996V10.7357Z" fill="#BDBDBD"/>
<path d="M10.835 18.5007V15.5007L23.365 15.5007V18.5007H10.835Z" fill="#BDBDBD"/>
</g>
</svg>
