<svg width="136" height="160" viewBox="0 0 136 160" fill="none" xmlns="http://www.w3.org/2000/svg">
<g clip-path="url(#clip0)">
<path d="M60.4851 59.3976C77.2557 59.3976 90.851 46.101 90.851 29.6988C90.851 13.2966 77.2557 0 60.4851 0C43.7144 0 30.1191 13.2966 30.1191 29.6988C30.1191 46.101 43.7144 59.3976 60.4851 59.3976Z" fill="url(#paint0_linear)"/>
<path d="M59.623 27.7107L89.1267 7.46973L110.931 16.9878L110.906 38.1324L78.902 40.8432L61.5325 32.8914L59.623 27.7107Z" fill="#F2F0DF"/>
<path opacity="0.11" d="M59.623 27.7107L89.1267 7.46973L110.931 16.9878L110.906 38.1324L78.902 40.8432L61.5325 32.8914L59.623 27.7107Z" fill="url(#paint1_linear)"/>
<path d="M110.906 103.373V36.9876L92.181 26.1442L76.2897 36.0237L46.3549 21.084L23.0723 37.349L23.1955 103.373C23.1955 103.373 32.9273 133.976 66.9274 133.976C100.927 133.976 110.906 103.373 110.906 103.373Z" fill="url(#paint2_linear)"/>
<path opacity="0.29" d="M110.906 103.373V36.9876L92.181 26.1442L76.2897 36.0237L46.3549 21.084L23.0723 37.349L23.1955 103.373C23.1955 103.373 32.9273 133.976 66.9274 133.976C100.927 133.976 110.906 103.373 110.906 103.373Z" fill="url(#paint3_linear)"/>
<path d="M88.7555 52.2408L91.1577 54.9516L92.1801 54.3251L88.7555 50.4576V49.1685L91.1823 51.9034L92.2048 51.2769L88.0903 46.6143L83.6309 51.6625L84.6533 52.289L87.4004 49.1685V50.4215L83.6309 54.6986L84.6533 55.3131L87.4004 52.2046V53.4697L83.6309 57.7468L84.6533 58.3733L87.4004 55.2528V61.6865H88.7555V55.2649L91.1946 58.0239L92.2294 57.3974L88.7555 53.4817V52.2408Z" fill="url(#paint4_linear)"/>
<path d="M103.293 77.5415L105.695 80.2524L106.717 79.6259L103.293 75.7584V74.4693L105.719 77.2042L106.742 76.5777L102.627 71.915L98.168 76.9632L99.1904 77.5897L101.938 74.4693V75.7223L98.168 79.9994L99.1904 80.6138L101.938 77.5054V78.7705L98.168 83.0476L99.1904 83.6741L101.938 80.5536V86.9873H103.293V80.5656L105.732 83.3247L106.767 82.6982L103.293 78.7825V77.5415Z" fill="url(#paint5_linear)"/>
<path d="M49.5325 62.6264H50.8875V55.5059L53.6346 58.6023L54.6571 57.9758L50.8875 53.7108V52.2047L53.6346 55.3011L54.6571 54.6746L50.8875 50.4216V48.8433L53.6593 51.9758L54.6817 51.3493L50.2223 46.2891L45.418 51.7228L46.4404 52.3493L49.5325 48.8433V50.3854L45.4426 55.012L46.4651 55.6385L49.5325 52.1686V53.6987L45.4426 58.3373L46.4651 58.9638L49.5325 55.4939V62.6264Z" fill="url(#paint6_linear)"/>
<path d="M59.3508 95.3608H60.7059V88.2283L63.453 91.3367L64.4755 90.7102L60.7059 86.4451V84.9271L63.453 88.0355L64.4755 87.409L60.7059 83.1439V81.5777L63.4776 84.6981L64.5001 84.0716L60.0284 79.0234L55.2363 84.4572L56.2588 85.0837L59.3508 81.5777V83.1078L55.261 87.7463L56.2834 88.3728L59.3508 84.8909V86.4331L55.2486 91.0716L56.2834 91.6981L59.3508 88.2162V95.3608Z" fill="url(#paint7_linear)"/>
<path d="M51.5155 124.518H52.8706V117.385L55.6053 120.494L56.6401 119.867L52.8706 115.602V114.084L55.6053 117.193L56.6278 116.566L52.8706 112.301V110.735L55.63 113.855L56.6524 113.229L52.193 108.181L47.3887 113.614L48.4111 114.241L51.5155 110.735V112.265L47.4133 116.904L48.4358 117.53L51.5155 114.048V115.59L47.4133 120.229L48.4358 120.855L51.5155 117.373V124.518Z" fill="url(#paint8_linear)"/>
<path d="M109.452 106.879C88.1286 97.4333 96.7148 91.5176 93.8199 76.5176C89.7177 55.2887 60.4358 56.1562 76.3271 36.0357C76.3395 36.0236 76.3518 36.0116 76.3518 35.9995L76.2902 36.0357L73.0996 34.4453C65.2895 38.2646 44.9634 54.1803 62.2713 70.0116C86.2561 91.9393 49.3858 96.6983 76.1916 133.144C76.1916 133.156 76.2039 133.156 76.2039 133.168C96.5793 129.433 106.114 113.915 109.452 106.879Z" fill="url(#paint9_linear)"/>
<path d="M43.1766 49.036H44.6549V48.4336L23.0723 40.2891L23.1955 103.385C23.1955 103.385 28.086 118.747 43.0288 127.699L40.5897 61.9276H43.1766V49.036Z" fill="#875A48"/>
<path opacity="0.28" d="M43.1766 49.036H44.6549V48.4336L23.0723 40.2891L23.1955 103.385C23.1955 103.385 28.086 118.747 43.0288 127.699L40.5897 61.9276H43.1766V49.036Z" fill="url(#paint10_linear)"/>
<path opacity="0.37" d="M43.1766 49.036H44.6549V48.4336L23.0723 40.2891L23.1955 103.385C23.1955 103.385 28.086 118.747 43.0288 127.699L40.5897 61.9276H43.1766V49.036Z" fill="url(#paint11_linear)"/>
<path d="M23.1217 62.747H40.6268L40.6021 61.9398H43.1891V60.9398H36.9927V55.3374C36.9927 55.3374 37.4116 53.1084 34.2087 53.1084C31.0058 53.1084 31.2891 55.3374 31.2891 55.3374V60.9398H26.226L26.2507 55.3374C26.2507 55.3374 26.2384 52.9639 23.3927 52.9639C23.2942 52.9639 23.2079 52.9759 23.1094 53.0121L23.1217 62.747Z" fill="#59392B"/>
<path d="M123.964 105.638C123.262 105.879 122.596 106.301 122.03 106.771C121.931 106.855 121.833 106.952 121.746 107.036C121.512 106.675 121.254 106.325 120.97 106.012C120.823 105.855 120.49 105.976 120.564 106.205C120.724 106.771 120.896 107.289 121.081 107.807C120.847 108.084 120.613 108.349 120.342 108.566C120.17 108.699 120.354 108.952 120.539 108.867C120.823 108.747 121.081 108.602 121.34 108.434C121.623 109.072 121.981 109.687 122.473 110.289C123.373 111.397 124.481 112.205 125.799 112.807C127.265 113.47 128.854 113.891 130.456 114.06C131.478 114.169 133.425 114.458 134.115 113.53C134.213 113.385 134.078 113.144 133.893 113.193C132.747 113.554 131.158 113.253 130 113.072C128.596 112.855 127.105 112.361 125.849 111.675C124.728 111.048 123.828 110.277 123.102 109.229C122.794 108.783 122.51 108.289 122.215 107.807C122.707 107.434 123.212 107.048 123.791 106.795C124.949 106.277 126.625 106.072 127.881 106.349C129.396 106.675 130.924 107.241 132.304 107.916C133.425 108.47 134.299 109.337 135.383 109.916C135.63 110.048 135.95 109.831 135.815 109.554C135.285 108.446 133.844 107.458 132.76 106.891C131.257 106.108 129.569 105.518 127.894 105.217C126.699 104.988 125.097 105.253 123.964 105.638Z" fill="#1A1A1A"/>
<path d="M127.352 115.843C127.339 115.843 127.339 115.831 127.352 115.843C127.228 115.18 127.007 114.566 126.846 113.927C126.785 113.686 126.44 113.819 126.477 114.084C126.526 114.518 126.575 114.939 126.625 115.361C126.415 115.229 126.206 115.084 125.984 114.964C125.159 114.482 124.272 114.132 123.471 113.614C122.757 113.156 122.03 112.614 121.389 112.06C120.478 111.277 118.642 111.192 117.694 112.662C117.373 113.156 117.139 114.024 117.127 114.65C116.486 115 115.957 115.578 115.661 116.313C115.39 116.976 115.328 117.71 115.747 118.168C116.129 118.578 116.733 118.831 117.299 118.482C117.533 118.337 117.41 117.951 117.164 118.072C116.782 118.265 116.252 117.903 116.104 117.566C115.883 117.036 116.339 116.265 116.745 115.879C116.917 115.723 117.09 115.602 117.275 115.506C117.472 115.988 117.829 116.397 118.125 116.771C118.285 116.976 118.654 116.638 118.531 116.397C118.359 116.072 118.075 115.686 117.915 115.289C118.482 115.18 119.073 115.253 119.628 115.217C119.862 115.204 119.948 114.879 119.837 114.735C119.443 114.18 118.531 114.192 117.792 114.397C117.841 114.012 118.002 113.542 118.149 113.217C118.322 112.819 118.802 112.494 119.16 112.361C119.96 112.048 120.613 112.554 121.143 112.964C121.673 113.385 122.239 113.759 122.769 114.156C123.336 114.578 123.989 114.867 124.604 115.204C125.233 115.542 125.812 115.939 126.403 116.337C125.812 116.674 125.233 117.072 124.617 117.421C124.383 117.554 124.432 117.951 124.691 117.831C125.405 117.494 126.046 117.024 126.773 116.747C126.81 117.084 126.834 117.409 126.846 117.747C126.859 118.144 126.97 118.482 127.093 118.831C127.278 119.385 127.364 120 127.561 120.53C128.214 122.241 130.333 121.674 131.38 120.072C131.786 119.457 132.107 118.409 131.91 117.759C131.786 117.361 131.454 116.988 131.257 116.65C131.035 116.277 130.752 115.964 130.37 115.783C129.643 115.445 128.608 115.47 127.758 115.723C127.61 115.735 127.475 115.783 127.352 115.843ZM130.394 116.578C130.678 116.831 130.825 117.204 131.035 117.53C131.244 117.843 131.404 118.048 131.355 118.506C131.306 119.048 131.084 119.53 130.739 119.976C130.123 120.759 129.15 121.204 128.473 120.674C127.918 120.241 127.894 119.18 127.66 118.482C127.487 117.988 127.475 117.482 127.45 116.951C127.832 117.168 128.238 117.361 128.633 117.554C129.286 117.867 129.975 118.325 130.727 118.421C130.924 118.445 131.096 118.156 130.961 118C130.32 117.277 129.224 116.927 128.386 116.482C128.263 116.421 128.14 116.349 128.017 116.277C128.399 116.18 128.768 116.144 129.199 116.18C129.643 116.204 130.086 116.289 130.394 116.578Z" fill="#1A1A1A"/>
<path d="M76.4384 151.59C75.3174 150.735 73.6174 151.18 72.4595 151.795C72.1515 151.951 71.7696 152.18 71.3877 152.458C71.3631 152.168 71.3385 151.879 71.3138 151.578C72.558 150.277 73.7037 148.903 74.2457 147.205C74.6029 146.096 74.529 145.313 73.6913 144.421C72.8906 143.578 71.6341 143.192 70.6609 144.012C69.7616 144.771 69.7986 146.156 69.774 147.192C69.7493 148.494 69.8356 149.867 69.9464 151.168C69.3428 151.903 68.8008 152.662 68.2587 153.458C67.9385 153.927 68.579 154.409 68.9609 154C69.3305 153.602 69.7124 153.217 70.0943 152.819C70.1189 153.084 70.1435 153.337 70.1682 153.602C69.8848 153.964 69.7 154.349 69.7 154.735C69.7 155.084 70.0203 155.433 70.3653 155.349C70.3776 155.445 70.3899 155.554 70.4022 155.65C70.5254 156.554 70.5993 157.445 70.7595 158.349C70.8334 158.735 70.8334 159.108 71.2029 159.349C71.5232 159.554 71.8805 159.253 71.7573 158.939C71.7573 158.939 71.7573 158.939 71.7696 158.939C71.4863 158.06 71.6834 156.855 71.6341 155.939C71.5971 155.458 71.5725 154.976 71.5479 154.494C72.9892 153.397 75.2558 151.988 76.1058 153.566C77.0667 155.373 76.0442 158.204 76.3769 159.518C76.4015 159.614 76.4754 159.903 76.6232 159.927C76.7957 159.951 76.9805 159.638 77.0421 159.518C77.9413 157.964 77.8797 155.361 77.8797 155.361C78.0029 153.879 77.6703 152.518 76.4384 151.59ZM71.0921 146.964C71.1044 146.482 71.0798 145.867 71.3138 145.421C71.7327 144.59 72.4225 144.819 72.9276 145.47C73.5312 146.241 72.8414 147.458 72.4225 148.217C72.1022 148.807 71.6464 149.325 71.166 149.831C71.1044 148.867 71.0674 147.915 71.0921 146.964Z" fill="#1A1A1A"/>
<path d="M85.5408 144C84.2227 142.169 81.3277 142.867 80.6872 144.711C80.564 144.614 80.4285 144.518 80.2806 144.446C79.6154 144.084 78.4328 143.843 77.6937 144.108C77.435 144.205 77.2625 144.337 77.0531 144.506C77.0285 144.53 76.9792 144.59 76.9422 144.626C76.8806 144.687 76.8067 144.759 76.7944 144.771C76.7451 144.903 76.7082 145 76.6958 145.144C76.6589 145.518 77.0408 145.747 77.3734 145.687C78.3466 145.53 79.4553 145.361 80.1082 146.349C80.7364 147.301 80.5024 148.554 81.2169 149.494C81.3647 149.675 81.648 149.566 81.7219 149.373C82.1901 148.06 82.1408 146.47 81.3277 145.349C81.6973 144.241 82.8183 143.385 84.0625 144C85.2451 144.578 85.4176 146.422 85.7256 147.494C86.3415 149.638 86.7973 151.795 87.1422 154C87.2901 154.988 87.1915 155.903 86.477 156.626C85.627 157.482 84.0625 157.47 83.0277 157C81.8821 156.482 81.2661 155.325 80.9828 154.783C80.564 154.012 80.3176 153.108 80.1205 153.144C80.0343 153.156 80.0096 153.349 79.9973 153.409C79.8248 154.879 81.4386 157.891 83.5082 158.253C84.1857 158.373 84.9988 158.265 85.6763 158.241C86.4401 158.217 86.8712 157.831 87.4009 157.349C88.3248 156.506 88.4727 155.084 88.3002 153.891C88.0415 152.205 87.7335 150.542 87.327 148.879C86.9205 147.241 86.5632 145.409 85.5408 144Z" fill="#1A1A1A"/>
<path d="M95.9134 148.771C95.396 147.711 94.2996 146.639 93.117 146.325C93.154 146.277 93.2156 146.205 93.2895 146.133C93.4866 145.928 93.5728 145.892 93.6467 145.783C93.7453 145.627 93.7945 145.374 93.7206 145.289C93.6098 145.169 93.1663 145.289 91.8482 146.145C91.6387 145.554 91.4047 144.94 91.146 144.313C90.9119 143.747 90.6779 143.193 90.4315 142.675C90.7271 142.542 91.109 142.422 91.5279 142.482C92.4395 142.615 92.9322 143.47 93.0431 143.386C93.154 143.301 92.8829 142.458 92.1808 141.916C91.5648 141.434 90.875 141.374 90.6532 141.362C90.259 141.337 89.9264 141.386 89.717 141.434C89.2858 141.289 89.1257 141.096 89.0641 140.94C88.9902 140.747 89.0271 140.578 88.9163 140.518C88.7931 140.446 88.5837 140.566 88.4851 140.663C88.1895 140.928 88.2634 141.374 88.2757 141.434C88.1525 141.398 87.98 141.362 87.7706 141.362C87.3887 141.374 87.2532 141.542 86.9083 141.651C86.8713 141.663 86.2308 141.855 85.6887 141.59C85.1713 141.337 85.0605 140.855 84.9619 140.892C84.8264 140.952 85.1713 141.928 85.4916 142.313C85.6148 142.47 85.7626 142.578 85.7626 142.578C85.7626 142.578 85.9228 142.699 86.0953 142.771C86.5634 142.952 87.3025 142.446 88.1402 142.434C88.3496 142.434 88.6576 142.458 89.0395 142.615C89.2858 143.121 89.5076 143.639 89.68 144.169C90.025 145.181 90.3699 146.217 90.6655 147.253C90.53 147.446 90.3945 147.651 90.2713 147.843C89.6554 148.783 89.4953 149.904 89.5938 150.988C89.6924 152.06 90.0866 153.398 90.9612 154.133C91.9713 154.976 93.4496 155.096 94.6445 154.627C97.0344 153.687 96.8373 150.675 95.9134 148.771ZM95.2235 150.301C95.3221 150.819 95.4945 151.53 95.396 152.048C95.2112 153.109 94.1764 153.819 93.117 153.807C91.0844 153.795 90.4438 151.422 90.7148 149.819C90.8503 149.06 91.2076 148.41 91.6634 147.819C91.9837 147.446 92.2793 147.349 92.4641 147.313C93.6097 147.157 94.9648 148.916 95.2235 150.301Z" fill="#1A1A1A"/>
<path d="M104.204 143.988C104.105 143.843 103.896 143.795 103.773 143.892C103.489 143.301 103.206 142.723 102.935 142.157C102.467 141.193 101.925 140.313 101.42 139.373C101.013 138.614 100.558 137.699 99.88 137.12C98.5003 135.952 96.2213 135.735 94.9771 137.193C93.6836 138.723 94.3611 140.795 95.6053 142.133C95.8148 142.361 96.2213 142.12 96.0735 141.831C95.322 140.386 94.4597 137.639 96.8742 137.253C98.8329 136.94 99.7321 138.663 100.508 140.06C101.346 141.566 102.257 143.036 102.947 144.614C103.157 145.084 103.379 145.542 103.6 146C103.6 146.06 103.6 146.12 103.6 146.181C103.526 147.241 103.477 148.831 102.467 149.53C101.383 150.277 99.7321 149.88 98.8575 149.012C98.4017 148.566 98.1553 148.012 97.9706 147.422C97.909 147.217 97.5764 146.494 97.601 146.277C97.6133 146.133 97.5024 146.012 97.3546 146C97.3423 146 97.33 146 97.3177 146C97.1821 145.988 97.0343 146.072 96.9974 146.205C96.1474 149 99.5843 151.663 102.208 150.795C103.502 150.373 104.192 149.301 104.524 148.084C104.684 148.386 104.869 148.675 105.128 148.952C105.3 149.133 105.645 149 105.596 148.735C105.411 147.867 105.128 147.012 104.795 146.169C104.795 145.398 104.647 144.639 104.204 143.988Z" fill="#1A1A1A"/>
<path d="M118.863 131.132C118.703 131 118.469 131.144 118.432 131.325C117.94 130.795 117.434 130.277 116.954 129.759C116.24 128.988 115.451 128.313 114.7 127.566C114.121 126.988 113.406 126.289 112.642 125.951C111.078 125.277 108.947 125.614 108.097 127.192C107.099 129.072 108.392 131.024 110.08 131.988C110.351 132.144 110.671 131.795 110.437 131.566C109.871 131 109.329 130.325 108.971 129.602C108.454 128.53 108.873 127.228 110.092 126.843C111.817 126.301 113 127.53 114.121 128.59C115.328 129.735 116.572 130.843 117.693 132.084C118.1 132.542 118.555 132.975 118.974 133.433C118.974 133.445 118.974 133.445 118.974 133.457C119.233 134.506 119.492 135.518 119.073 136.566C118.543 137.879 116.683 138.144 115.463 137.59C114.761 137.277 114.318 136.71 113.899 136.108C113.763 135.915 113.332 135.457 113.295 135.277C113.271 135.132 113.111 135.048 112.975 135.072C112.963 135.072 112.95 135.072 112.938 135.084C112.803 135.108 112.692 135.241 112.692 135.373C112.704 136.722 113.997 138.096 115.205 138.602C116.461 139.12 118.075 139.012 119.171 138.168C120.046 137.494 120.453 136.373 120.477 135.192C120.674 135.385 120.908 135.554 121.192 135.722C121.413 135.843 121.709 135.614 121.574 135.373C121.192 134.686 120.736 134.036 120.243 133.409C120.009 132.494 119.516 131.662 118.863 131.132Z" fill="#1A1A1A"/>
<path d="M106.976 135.349C105.461 136.181 104.734 137.048 104.709 138.759C104.007 137.988 103.354 137.12 102.689 136.349C101.728 135.241 100.792 134.084 99.6463 133.145C99.5108 133.036 99.3013 133.193 99.3383 133.337C99.4738 133.916 99.8187 134.313 100.188 134.783C100.817 135.554 101.432 136.337 102.036 137.12C102.898 138.217 103.798 139.349 104.808 140.325C104.906 140.422 105.017 140.53 105.116 140.626C105.535 141.53 106.2 142.289 106.804 143.157C106.939 143.361 107.272 143.133 107.161 142.928C107.099 142.795 107.038 142.663 106.976 142.53C107.272 142.807 107.592 143.072 107.925 143.301C108.959 144.024 109.883 144.012 111.017 143.542C112.101 143.084 112.988 142.626 113.271 141.361C113.48 140.398 113.049 139.313 112.544 138.506C111.46 136.771 109.292 134.084 106.976 135.349ZM111.633 142.313C111.312 142.566 110.487 142.819 110.068 142.904C109.144 143.084 108.467 142.458 107.826 141.904C107.247 141.41 106.73 140.843 106.212 140.289C106.089 139.711 106.027 139.132 106.052 138.566C106.101 137.542 106.508 137.096 107.37 136.53C107.961 136.145 108.516 136.048 109.193 136.361C110.906 137.157 113.702 140.687 111.633 142.313Z" fill="#1A1A1A"/>
<path d="M119.06 123.747C119.282 122.951 119.343 122.132 119.134 121.277C118.715 119.614 117.175 118.59 115.438 118.819C113.849 119.024 112.469 120.409 112.383 122.024C112.309 123.361 113.184 125.048 114.601 125.301C114.958 125.361 115.032 124.903 114.81 124.723C113.985 124.036 113.295 123.06 113.517 121.915C113.763 120.566 115.081 119.698 116.436 120.048C118.333 120.53 118.173 122.662 117.816 124.53C117.151 125.048 116.609 125.674 116.301 126.337C116.14 126.674 116.609 126.927 116.867 126.723C117.064 126.578 117.261 126.421 117.459 126.253C117.434 126.385 117.409 126.518 117.397 126.626C117.385 126.759 117.594 126.843 117.668 126.723C117.877 126.361 118.075 125.988 118.272 125.614C119.048 125.024 119.885 124.494 120.797 124.313C122.3 124.012 123.766 125.205 124.677 126.253C125.774 127.53 125.343 129.361 123.655 129.927C122.854 130.192 122.214 129.891 121.511 129.506C121.191 129.337 120.625 129.084 120.452 128.735C120.317 128.445 119.799 128.578 119.898 128.903C120.304 130.373 122.226 131.397 123.717 131.012C125.54 130.542 126.981 128.662 126.279 126.795C125.712 125.253 123.63 123.445 121.943 123.192C121.031 123.06 120.009 123.289 119.06 123.747Z" fill="#1A1A1A"/>
<path d="M32.4722 143.168C32.1519 142.048 30.8461 141.397 29.7498 141.301C29.7128 141.301 29.6882 141.301 29.6512 141.289C30.3287 140.192 31.0925 139.156 31.7947 138.06C32.1889 137.445 32.5708 136.855 33.0019 136.277C33.3592 135.795 33.5316 135.265 33.8273 134.759C33.9751 134.506 33.6056 134.289 33.4454 134.518C33.0758 135.036 32.8048 135.59 32.3983 136.096C31.9795 136.614 31.6469 137.192 31.2896 137.759C30.5751 138.867 29.8114 139.915 29.0969 141.024C29.0476 141.108 28.986 141.192 28.9244 141.265C28.0005 141.277 27.015 141.481 26.7563 142.433C26.7193 142.59 26.9041 142.698 27.0273 142.602C27.3845 142.313 27.8403 142.156 28.3208 142.084C28.2099 142.241 28.099 142.385 28.0005 142.542C27.6556 143.084 27.3599 143.638 27.015 144.18C26.5961 144.843 26.1896 145.518 25.7708 146.18C25.4751 146.65 25.1672 147.048 25.0316 147.578C24.9947 147.747 25.2041 147.903 25.3396 147.771C26.2635 146.879 26.9041 145.614 27.594 144.542C27.9389 144 28.2099 143.433 28.5425 142.879C28.7273 142.59 28.9244 142.313 29.1215 142.036C29.4541 142.048 29.7744 142.084 30.07 142.132C30.5751 142.216 31.0432 142.566 31.3882 142.939C31.7577 143.349 31.844 144.036 31.7824 144.578C31.6592 145.831 30.8585 146.638 29.9592 147.457C29.5157 147.855 29.1215 148.289 28.6657 148.686C28.4316 148.891 28.3208 149.024 28.3577 149.337C28.3701 149.409 28.4686 149.469 28.5302 149.445C29.1461 149.289 29.565 148.867 30.0085 148.421C30.5751 147.843 31.1911 147.349 31.7208 146.735C32.5831 145.759 32.8048 144.373 32.4722 143.168Z" fill="#1A1A1A"/>
<path d="M7.3661 123.361C8.97987 124.047 10.8277 123.71 12.2936 123.204C13.0697 122.939 13.7842 122.602 14.4494 122.132C15.1023 121.674 15.4965 121.108 15.8168 120.312C16.0262 119.782 16.0632 119.12 16.0016 118.469C16.5067 118.758 17.1103 118.794 17.6523 118.65C18.9458 118.312 18.4038 116.722 17.9357 115.638C17.5045 114.65 16.5313 113.855 15.8661 114.794C15.8291 114.843 15.8907 114.939 15.9523 114.951C16.0509 114.963 16.1371 114.951 16.2357 114.951C15.7799 114.999 15.4103 115.144 15.2009 115.65C15.1762 115.71 15.1639 115.758 15.1393 115.818C15.0654 115.722 14.9791 115.65 14.8929 115.565C14.7328 115.433 14.4741 115.553 14.4987 115.77C14.548 116.144 14.6835 116.505 14.819 116.879L14.8067 116.891C14.7944 116.891 14.7944 116.891 14.782 116.891C14.548 116.843 14.3139 116.794 14.0922 116.698C13.9444 116.638 13.7226 116.614 13.5871 116.541C13.3777 116.409 13.1683 116.662 13.3531 116.867C13.6118 117.156 14.0183 117.312 14.3509 117.409C14.24 117.553 14.1291 117.71 14.0306 117.879C13.8458 118.204 13.3161 118.83 13.5625 119.288C13.6364 119.433 13.8088 119.433 13.8704 119.324C13.969 119.18 14.1415 119.083 14.2523 118.939C14.4494 118.674 14.5603 118.361 14.7204 118.059C14.8067 117.891 14.8929 117.734 14.9791 117.565C15.0038 117.565 15.0284 117.577 15.0407 117.577C15.0531 117.614 15.0654 117.65 15.0654 117.686C15.2994 118.541 15.2748 119.457 14.9299 120.18C14.277 121.541 12.7002 122.192 11.3328 122.541C10.6429 122.71 9.95306 122.818 9.22625 122.867C8.4748 122.915 7.84654 122.686 7.10741 122.433C6.7132 122.3 6.33132 122.144 5.96175 121.963C5.91248 121.493 5.97407 121.083 6.08494 120.614C6.39291 119.349 6.89799 118.336 7.74799 117.457C8.4748 116.71 9.37407 116.204 10.1994 115.589C11.0248 114.963 12.1335 114.421 13.1683 114.216C13.4762 114.156 13.3284 113.674 13.0204 113.674C11.8132 113.698 10.569 114.18 9.59581 114.806C8.56103 115.469 7.52624 116.108 6.7132 117.071C5.8632 118.071 5.48132 119.12 5.22262 120.481C5.16103 120.83 5.13639 121.18 5.16103 121.529C4.31103 121.047 3.49798 120.493 2.64798 119.951C2.43856 119.818 2.20451 120.083 2.41393 120.276C3.17769 121.011 3.86755 121.626 4.75451 122.156C4.93929 122.264 5.12407 122.361 5.30885 122.457C5.469 123.168 5.74001 123.867 6.02334 124.541C6.17117 124.891 6.60233 124.698 6.52842 124.373C6.41755 123.855 6.28204 123.349 6.14653 122.83C6.56537 123.023 6.95958 123.18 7.3661 123.361ZM17.3444 115.782C17.6277 116.409 18.182 117.698 17.3444 117.915C16.8639 118.047 16.2233 117.915 15.9154 117.385C15.7183 117.035 15.706 116.65 15.7552 116.3C15.8291 115.698 16.2603 115.505 16.7777 115.397C16.9132 115.373 16.9502 115.252 16.9132 115.144C17.098 115.3 17.2335 115.541 17.3444 115.782Z" fill="#1A1A1A"/>
<path d="M58.2313 147.446C58.0712 145.59 56.4574 143.639 54.3755 143.819C53.5871 143.892 52.9096 144.072 52.3429 144.494C52.2813 144.458 52.2197 144.41 52.1581 144.373C51.6407 144.072 51.0125 144.096 50.4335 144.072C48.8074 144.012 47.7357 144.94 46.861 146.181C45.9001 147.554 45.5675 149.325 45.4567 150.976C45.432 151.398 45.4197 151.819 45.432 152.229C45.3088 152.193 45.1733 152.157 45.0501 152.12C44.3972 151.904 43.7813 151.614 43.1284 151.41C42.9683 151.361 42.8574 151.602 43.0175 151.687C43.2762 151.819 43.461 152.036 43.7074 152.169C43.9907 152.325 44.311 152.422 44.5943 152.602C44.8777 152.783 45.1733 152.928 45.469 153.084C45.4813 153.217 45.4936 153.349 45.4936 153.47C45.5675 154.241 45.469 154.94 45.9371 155.627C46.0849 155.843 46.4668 155.711 46.3929 155.434C46.2081 154.831 46.1835 154.145 46.2081 153.458H46.2204C47.1567 153.964 47.9943 154.542 48.869 155.133C49.8791 155.819 50.6922 156.759 51.4929 157.675C52.0719 158.337 52.7864 159.217 53.1929 160C53.3161 160.253 53.6857 160.217 53.8212 160C54.0429 159.651 53.8704 159.289 53.7103 158.952C53.4762 158.47 53.3161 157.976 53.0943 157.482C52.5277 156.241 51.4929 155.277 50.4212 154.47C49.4357 153.735 48.3393 153.108 47.1567 152.711C46.8733 152.614 46.5777 152.53 46.282 152.458C46.2943 152.265 46.319 152.084 46.3436 151.904C46.4915 150.554 46.6023 149.193 47.0581 147.904C47.2922 147.241 47.7849 146.566 48.2654 146.06C48.7458 145.554 49.0661 145.337 49.7683 145.205C50.4458 145.084 51.0125 145.133 51.5299 145.337C51.0248 145.964 50.6922 146.494 50.5443 147.325C50.4581 147.217 50.3719 147.108 50.2733 147C50.1625 146.867 49.9407 147.012 49.99 147.169C50.2857 148.169 50.9016 149.12 51.7516 149.759C52.1212 150.036 52.6878 150.289 53.1067 150.47C53.661 150.711 53.9936 150.59 54.5849 150.518C55.4842 150.41 56.3465 150.458 57.061 149.819C57.8125 149.169 58.3175 148.446 58.2313 147.446ZM55.632 149.59C55.2871 149.663 54.9299 149.651 54.5849 149.699C54.3016 149.735 53.9567 149.88 53.6733 149.843C52.9342 149.747 52.0719 149.024 51.5668 148.566C51.3204 148.337 51.111 148.084 50.9262 147.831C50.9632 147.807 51.0001 147.759 51.0248 147.711C51.3328 146.867 51.5668 146.386 52.2197 145.759C52.232 145.747 52.232 145.747 52.2443 145.735C52.4784 145.892 52.7125 146.084 52.9465 146.301C53.2422 146.578 53.661 146.229 53.4886 145.892C53.3284 145.578 53.1559 145.277 52.9342 145.024C52.9465 145.024 52.9588 145.012 52.9588 145C53.1559 144.892 53.9567 144.759 54.2277 144.711C55.9277 144.41 57.7139 146.434 57.3197 148.06C57.1719 148.759 56.2849 149.446 55.632 149.59Z" fill="#1A1A1A"/>
<path d="M43.1514 145.048C42.9297 144.603 42.6833 144.181 42.4616 143.735C42.1536 143.109 41.6732 142.338 41.6116 141.651C41.5007 140.591 41.5993 139.398 42.1659 138.47C42.2522 138.338 42.0674 138.217 41.9565 138.301C40.7616 139.229 40.5029 141.362 41.0203 142.687C41.3775 143.591 41.7101 144.494 42.1536 145.362C42.6833 146.41 42.8927 147.458 42.5478 148.591C41.9565 150.518 39.8007 152.277 37.6572 152.157C37.0413 152.121 36.45 151.856 35.9695 151.494C35.5384 151.169 35.3906 150.675 35.0949 150.265C34.4667 149.41 34.2572 148.482 34.0848 147.458C33.9985 147 33.321 147.121 33.284 147.542C33.1978 148.627 33.3087 149.579 33.8507 150.554C34.1094 151.036 34.3927 151.615 34.75 152.036C35.1072 152.446 35.6739 152.747 36.1666 152.976C38.4333 154.012 40.6384 152.675 42.2768 151.217C44.0138 149.675 44.1493 147.012 43.1514 145.048Z" fill="#1A1A1A"/>
<path d="M23.9585 125.94C24.8332 123.916 22.739 121.916 20.8419 122.35C20.8542 122.193 20.8665 122.036 20.8665 121.88C20.8296 121.145 20.423 120.061 19.8194 119.603C19.61 119.446 19.4006 119.362 19.1542 119.277C19.1295 119.265 19.0433 119.253 18.994 119.253C18.9201 119.229 18.8093 119.205 18.7969 119.205C18.6614 119.229 18.5506 119.253 18.4274 119.314C18.0948 119.47 18.0948 119.904 18.3165 120.145C18.9571 120.868 19.6716 121.675 19.1665 122.723C18.6737 123.735 17.4911 124.193 17.06 125.265C16.9738 125.482 17.2201 125.651 17.4172 125.615C18.7846 125.326 20.1151 124.446 20.6571 123.205C21.7904 122.928 23.0962 123.41 23.2317 124.735C23.3549 126 21.8643 127.097 21.1006 127.904C19.5977 129.518 17.9839 131.012 16.2839 132.434C15.5201 133.073 14.6948 133.458 13.6969 133.253C12.5267 133 11.7259 131.723 11.5904 130.627C11.4426 129.422 12.1078 128.326 12.4158 127.82C12.8593 127.085 13.4998 126.41 13.3643 126.265C13.3027 126.205 13.1426 126.277 13.081 126.301C11.7382 126.916 10.0013 129.795 10.7651 131.675C11.0114 132.289 11.5165 132.892 11.8861 133.434C12.3049 134.048 12.8469 134.205 13.5368 134.374C14.744 134.687 16.0375 134.073 16.9614 133.314C18.2672 132.229 19.5237 131.109 20.731 129.928C21.9013 128.735 23.2933 127.494 23.9585 125.94Z" fill="#1A1A1A"/>
<path d="M24.9079 140.445C24.4521 140.397 23.984 140.337 23.5159 140.277C23.713 140.06 23.9101 139.843 24.0826 139.59C24.4029 139.12 24.7355 138.686 25.1174 138.265C25.2405 138.132 25.3514 138 25.4746 137.867C25.5855 137.843 25.6717 137.747 25.684 137.638C26.3739 136.867 27.0637 136.096 27.7289 135.325C28.3942 134.554 29.4166 133.771 29.4413 132.686C29.4905 131.108 28.8253 128.349 26.9282 128.084C26.1521 127.976 25.142 128.024 24.4521 128.397C23.8855 128.71 23.0478 129.361 23.1833 130.084C23.2818 130.578 24.0702 130.53 23.984 130.024C23.9347 129.71 24.563 129.265 24.8217 129.132C25.1789 128.939 25.5978 128.939 25.992 128.915C26.3739 128.891 26.8173 128.867 27.1746 129.036C27.6181 129.253 27.8028 129.771 27.9753 130.192C28.271 130.915 28.6159 131.951 28.4804 132.747C28.3942 133.229 27.9876 133.554 27.655 133.891C27.3101 134.253 26.9775 134.638 26.6449 135.012C26.1152 135.602 25.5855 136.192 25.0681 136.795C24.4891 136.108 23.9347 135.409 23.2202 134.831C22.4688 134.241 21.3847 133.903 20.4485 133.686C19.5369 133.482 18.5021 133.506 17.7876 134.132C17.4674 134.421 17.0608 134.71 16.7898 135.06C16.5065 135.421 16.371 135.963 16.2355 136.385C16.1 136.807 16.1492 137.084 16.1739 137.518C16.1985 137.939 16.1123 138.337 16.1985 138.771C16.4079 139.747 17.0239 140.409 17.9724 140.783C18.9456 141.156 20.0174 141.241 21.0521 141.241C21.2492 141.241 21.4463 141.241 21.6558 141.241C21.471 141.53 21.2862 141.819 21.1014 142.108C20.8797 142.457 20.7811 142.855 20.584 143.216C20.5101 143.361 20.6949 143.494 20.8181 143.409C21.2739 143.12 21.5203 142.65 21.8898 142.265C22.1978 141.939 22.4442 141.578 22.7152 141.229C23.4789 141.204 24.2427 141.132 24.9695 140.951C25.2036 140.867 25.1666 140.469 24.9079 140.445ZM19.3891 140.108C18.5391 139.976 17.5782 139.735 17.2579 138.855C17.1101 138.445 17.1594 138.132 17.1594 137.71C17.1594 137.301 17.0732 136.988 17.1963 136.59C17.4427 135.843 17.8616 135.433 18.4529 134.951C19.192 134.349 20.2637 134.771 21.0645 135.048C21.434 135.168 21.8405 135.229 22.1978 135.397C22.6659 135.626 23.0231 136.024 23.4297 136.337C23.7253 136.566 24.0456 136.759 24.3536 136.976C24.4768 137.06 24.5876 137.156 24.6862 137.265C24.1934 137.855 23.713 138.457 23.2818 139.096C23.0108 139.494 22.7029 139.843 22.3949 140.204C22.3087 140.204 22.2101 140.192 22.1239 140.192C21.2 140.168 20.3007 140.253 19.3891 140.108Z" fill="#1A1A1A"/>
<path d="M6.9839 115.555C7.0455 115.459 7.26723 115.085 7.14405 114.941C7.04549 114.82 6.71288 114.868 6.331 115.061C5.85056 115.398 4.69259 116.133 3.18969 116.025C2.64766 115.989 1.74839 115.916 1.231 115.242C0.750561 114.615 0.923024 113.844 0.910705 113.663C0.886067 112.76 1.6252 112.218 2.2781 111.712C2.8694 111.254 3.50999 110.856 4.15057 110.459L5.9368 109.302C6.82376 108.772 7.78463 108.302 8.67159 107.796C9.94043 107.085 11.2462 106.386 12.3672 105.459C12.5027 105.35 12.3796 105.121 12.2194 105.133C11.6281 105.169 11.1723 105.422 10.6426 105.7C9.76796 106.157 8.89332 106.603 8.01868 107.049C6.7868 107.675 5.50564 108.338 4.3723 109.121C4.26143 109.206 4.13825 109.278 4.01506 109.362C3.27593 109.844 2.54911 110.326 1.80998 110.796C1.48969 111.037 1.1694 111.29 0.88607 111.567C-0.000887692 112.422 -0.148715 113.302 0.122299 114.447C0.393314 115.555 0.688966 116.471 1.89621 116.953C2.83245 117.326 3.68245 117.085 4.85274 116.748C6.45419 116.302 6.83608 115.796 6.9839 115.555Z" fill="#1A1A1A"/>
</g>
<defs>
<linearGradient id="paint0_linear" x1="46.745" y1="3.92892" x2="62.7008" y2="35.2065" gradientUnits="userSpaceOnUse">
<stop stop-color="#FF8B61"/>
<stop offset="0.158" stop-color="#F8785C"/>
<stop offset="0.7301" stop-color="#E2374A"/>
<stop offset="1" stop-color="#D91E43"/>
</linearGradient>
<linearGradient id="paint1_linear" x1="59.4601" y1="52.9266" x2="100.946" y2="19.3043" gradientUnits="userSpaceOnUse">
<stop stop-color="#00FFFF"/>
<stop offset="1" stop-color="#00FFFF" stop-opacity="0"/>
</linearGradient>
<linearGradient id="paint2_linear" x1="66.9885" y1="125.55" x2="66.9885" y2="37.506" gradientUnits="userSpaceOnUse">
<stop stop-color="#A1D676"/>
<stop offset="1" stop-color="#B3E08E"/>
</linearGradient>
<linearGradient id="paint3_linear" x1="66.9885" y1="18.1249" x2="66.9885" y2="57.5706" gradientUnits="userSpaceOnUse">
<stop stop-color="#FF2411"/>
<stop offset="0.6358" stop-color="#FF5906" stop-opacity="0.3642"/>
<stop offset="1" stop-color="#FF7200" stop-opacity="0"/>
</linearGradient>
<linearGradient id="paint4_linear" x1="87.9267" y1="46.6911" x2="87.9267" y2="61.7662" gradientUnits="userSpaceOnUse">
<stop stop-color="#456E4E"/>
<stop offset="0.00682053" stop-color="#456D4E"/>
<stop offset="0.368" stop-color="#3A5649"/>
<stop offset="0.7058" stop-color="#344846"/>
<stop offset="0.9944" stop-color="#324345"/>
</linearGradient>
<linearGradient id="paint5_linear" x1="102.464" y1="71.9918" x2="102.464" y2="87.067" gradientUnits="userSpaceOnUse">
<stop stop-color="#456E4E"/>
<stop offset="0.00682053" stop-color="#456D4E"/>
<stop offset="0.368" stop-color="#3A5649"/>
<stop offset="0.7058" stop-color="#344846"/>
<stop offset="0.9944" stop-color="#324345"/>
</linearGradient>
<linearGradient id="paint6_linear" x1="50.051" y1="46.5707" x2="50.051" y2="62.8371" gradientUnits="userSpaceOnUse">
<stop stop-color="#456E4E"/>
<stop offset="0.00682053" stop-color="#456D4E"/>
<stop offset="0.368" stop-color="#3A5649"/>
<stop offset="0.7058" stop-color="#344846"/>
<stop offset="0.9944" stop-color="#324345"/>
</linearGradient>
<linearGradient id="paint7_linear" x1="59.8664" y1="79.2994" x2="59.8664" y2="95.5658" gradientUnits="userSpaceOnUse">
<stop stop-color="#456E4E"/>
<stop offset="0.00682053" stop-color="#456D4E"/>
<stop offset="0.368" stop-color="#3A5649"/>
<stop offset="0.7058" stop-color="#344846"/>
<stop offset="0.9944" stop-color="#324345"/>
</linearGradient>
<linearGradient id="paint8_linear" x1="52.0229" y1="108.457" x2="52.0229" y2="124.723" gradientUnits="userSpaceOnUse">
<stop stop-color="#456E4E"/>
<stop offset="0.00682053" stop-color="#456D4E"/>
<stop offset="0.368" stop-color="#3A5649"/>
<stop offset="0.7058" stop-color="#344846"/>
<stop offset="0.9944" stop-color="#324345"/>
</linearGradient>
<linearGradient id="paint9_linear" x1="55.7055" y1="83.798" x2="90.0485" y2="83.798" gradientUnits="userSpaceOnUse">
<stop stop-color="#69ACE8"/>
<stop offset="0.3245" stop-color="#72B0E6"/>
<stop offset="0.8624" stop-color="#8CBAE1"/>
<stop offset="0.9944" stop-color="#93BDE0"/>
</linearGradient>
<linearGradient id="paint10_linear" x1="25.6687" y1="85.806" x2="54.9554" y2="78.275" gradientUnits="userSpaceOnUse">
<stop stop-color="#120F0C"/>
<stop offset="0.2158" stop-color="#2D2A28" stop-opacity="0.7842"/>
<stop offset="0.7485" stop-color="#6A6969" stop-opacity="0.2515"/>
<stop offset="1" stop-color="#828282" stop-opacity="0"/>
</linearGradient>
<linearGradient id="paint11_linear" x1="27.3311" y1="84.9982" x2="45.1104" y2="81.7227" gradientUnits="userSpaceOnUse">
<stop stop-color="#301A00" stop-opacity="0"/>
<stop offset="0.1163" stop-color="#361E03" stop-opacity="0.1163"/>
<stop offset="0.2666" stop-color="#46280A" stop-opacity="0.2666"/>
<stop offset="0.4355" stop-color="#603A16" stop-opacity="0.4355"/>
<stop offset="0.6181" stop-color="#865327" stop-opacity="0.6181"/>
<stop offset="0.8094" stop-color="#B5723C" stop-opacity="0.8094"/>
<stop offset="1" stop-color="#EB9655"/>
</linearGradient>
<clipPath id="clip0">
<path d="M0 0H136V160H0V0Z" fill="white"/>
</clipPath>
</defs>
</svg>
