<svg width="824" height="167" viewBox="0 0 824 167" fill="none" xmlns="http://www.w3.org/2000/svg">
<path d="M3 164L8.5 156.542L14.4812 150.5L25.125 134L30.025 126L35.8188 119.5L44.6111 106.222L49.8313 100.5L57.8375 91L62 84L55 75.7627L46.6111 61.5L39 53.7966L32.5 43.5L27.4938 38L15.0185 19.5L10.284 12L3.00001 3" stroke="#F2F2F2" stroke-width="6" stroke-linecap="round" stroke-linejoin="round"/>
<path d="M63 164L69.7437 153.5L76.275 146L86.8625 133L93.2375 123L99.6125 113L104.669 107.5L118.206 91.5L122 84L113.716 74L102.698 57.5L97.6914 50L88.5 38.0085L82.5 31.1441L72.8333 16.5L67.0988 10L63 3" stroke="#F2F2F2" stroke-width="6" stroke-linecap="round" stroke-linejoin="round"/>
<path d="M122 164L131.562 149.679L136.75 144L146.673 131.901L151.869 123.5L158 112.475L163.3 108L175.363 93L181 84L173.75 74.0466L167.5 64.0932L161.333 57L144.673 35.5L140.574 28.5L131.562 17.5L128.191 11.5L122 3" stroke="#F2F2F2" stroke-width="6" stroke-linecap="round" stroke-linejoin="round"/>
<path d="M354 164L348.363 155L337.144 142.5L326.713 127L321.444 118.5L309.5 103.661L305.062 99L299.794 90.5L295 84L302.284 74L305.654 68L318.309 52L324.407 45L335.519 27L341.5 20.161L347.5 10.5508L354 3" stroke="#F2F2F2" stroke-width="6" stroke-linecap="round" stroke-linejoin="round"/>
<path d="M414 164L402.831 147.5L392.719 136.5L384.5 124L381.075 118L367.537 101L361.006 93.5L355 84L360.37 78L372.117 60.5L378.216 53.5L386.5 40.7542L391 33.2034L403.802 17L409.901 10L414 3" stroke="#F2F2F2" stroke-width="6" stroke-linecap="round" stroke-linejoin="round"/>
<path d="M476 164L469.1 156L461 142.305L449 128.746L444.5 119.288L429.906 101.5L423.5 94.1695L417 84L421.006 76.5L432.296 63L440.401 50.5L446.5 43.5L456.154 27.5L461 20.8474L472 9.86439L476 3" stroke="#F2F2F2" stroke-width="6" stroke-linecap="round" stroke-linejoin="round"/>
<path d="M294 6L287.036 15L279.422 28L276.114 34.5L265.506 49L259.205 57L247.62 77.5L239 89M239 89L234.38 82.5L222.5 67.1949L212.343 51.5L204.235 41.5L195.5 26.3983L191.373 22L183.265 12L180 6M239 89L249.52 104.5L257.209 113.5L267 129.364L273.932 136L287.196 152.5L294 163M239 89L231.824 98L216.074 116.5L211.095 124L198.939 140.5L192.47 147.36L186 154.22L180 163" stroke="#F2F2F2" stroke-width="6" stroke-linecap="round" stroke-linejoin="round"/>
<path d="M536 3L527.968 12.5L524.416 20L511 36.7719L505.76 42.5L496.766 56L485.403 70L479 80" stroke="#F2F2F2" stroke-width="6" stroke-linecap="round" stroke-linejoin="round"/>
<path d="M580 3L571.291 13.5L556 37.0517L544.759 51L539.354 57L530.81 70L527.5 75.8707L522 82" stroke="#F2F2F2" stroke-width="6" stroke-linecap="round" stroke-linejoin="round"/>
<path d="M656 3L645.5 17.6087L621.578 49.5L605.766 70.5L586.719 98L577.938 113L564.797 128.5L551.344 150L541 163" stroke="#F2F2F2" stroke-width="6" stroke-linecap="round" stroke-linejoin="round"/>
<path d="M622 3L610.214 19.5L599 38L591 46.4L572.5 69.5L567 80L551.5 103.1L540.893 116.55L530.286 130L526 137.4L507 164" stroke="#F2F2F2" stroke-width="6" stroke-linecap="round" stroke-linejoin="round"/>
<path d="M598.5 127.5L600.957 132L608.101 140L611 145.075L619.5 153.538L625 162" stroke="#F2F2F2" stroke-width="6" stroke-linecap="round" stroke-linejoin="round"/>
<path d="M614.5 106.5L618.043 112L625 118L633 128.895L637.043 135L650.435 150L654.391 156L662 164" stroke="#F2F2F2" stroke-width="6" stroke-linecap="round" stroke-linejoin="round"/>
<path d="M632 82.5L636.5 88.1602L643 95.0781L650.081 106.5L658.839 115L673.137 135.5L680.304 142L689.037 155.5L696 163" stroke="#F2F2F2" stroke-width="6" stroke-linecap="round" stroke-linejoin="round"/>
<path d="M648.5 58.5L652.363 64.5L659.441 72L672.5 89.348L680.701 97L691.263 112.5L706.661 131.5L721 146.725L734 164" stroke="#F2F2F2" stroke-width="6" stroke-linecap="round" stroke-linejoin="round"/>
<path d="M759 8.58887L744.983 21.5002L732.389 35.0002L727.5 40.8525L714.5 52.755L697 71.1162L689.5 77.5674" stroke="#F2F2F2" stroke-width="6" stroke-linecap="round" stroke-linejoin="round"/>
<path d="M801 8.79395L792 16.6572L777.5 32.8582L771 38.2813L754.5 55.4993L746.887 60.9997L741.273 67.5L719.5 86.9525L707.265 100.927" stroke="#F2F2F2" stroke-width="6" stroke-linecap="round" stroke-linejoin="round"/>
<path d="M820 31.8115L815.5 36.1187L808.265 44.0005L804 47.126L793.5 56.1761L786 64.3548L768 82.5835L763.385 86.0005L750.5 97.3337L736 112.212L731 117.998L724.265 123.445" stroke="#F2F2F2" stroke-width="6" stroke-linecap="round" stroke-linejoin="round"/>
<path d="M800 91.5039L788.5 100.85L782.5 108.248L769 119.394L763.5 123.443L754.988 133L745 140.986L740.537 145.002" stroke="#F2F2F2" stroke-width="6" stroke-linecap="round" stroke-linejoin="round"/>
<path d="M783.5 140L779.341 144.5L771.5 149.258L762 158.936L756.766 162.499" stroke="#F2F2F2" stroke-width="6" stroke-linecap="round" stroke-linejoin="round"/>
<path d="M671.3 56.4994L674.221 52.5002L684 44.4866L689.317 37.0002L694 33.1924" stroke="#F2F2F2" stroke-width="6" stroke-linecap="round" stroke-linejoin="round"/>
</svg>
