<svg width="170" height="618" viewBox="0 0 170 618" fill="none" xmlns="http://www.w3.org/2000/svg">
<path d="M4 62L15.094 52.6811C16.0294 51.8953 17.0348 51.197 18.0976 50.5947L24 47.25L42.5 33.5L51.5 26.5L58 22.5L69 14.5L84 3L92.5 10L107 19L114 23.5L132.393 39.0632C133.13 39.6869 133.911 40.2564 134.731 40.7672L142.5 45.6111L148 50L165 62" stroke="#F2F2F2" stroke-width="6" stroke-linecap="round" stroke-linejoin="round"/>
<path d="M4 125L10.4198 119.265L19 113.938L42.5 96.6063L47.5 93.9188L57.5593 85.5L64.339 79.5L79 68.6875L84 66L91.5 70.7346L102.907 80.5L110.771 85.5L128.5 97.6852L135.5 102.784L150 114.802L158.5 120.265L165 125" stroke="#F2F2F2" stroke-width="6" stroke-linecap="round" stroke-linejoin="round"/>
<path d="M4 493L12.5 487.469L23.5 478.619L33 472.35L47 461.288L52.5 455.494L68.75 444.247L84 434L93.5 441.92L108 450.481L118 459.765L131 466.506L139 474.062L153 483.531L165 493" stroke="#F2F2F2" stroke-width="6" stroke-linecap="round" stroke-linejoin="round"/>
<path d="M4 553L14.5 544.256L24 538.987L37 527.925L53.5 517.231L67 506.537L75 499.162L84 494L102 505.111L111 513.667L128.5 525.685L136 531.877L148.5 542.438L165 553" stroke="#F2F2F2" stroke-width="6" stroke-linecap="round" stroke-linejoin="round"/>
<path d="M4 615L15.5 605.781L26 599.513L39.5 587.819L61.75 572.409L72.875 562.205L84 556L104.5 568.932L114 576.395L126.75 584.682L137.5 594.969L150.344 605.781L165 615" stroke="#F2F2F2" stroke-width="6" stroke-linecap="round" stroke-linejoin="round"/>
<path d="M3 174L19 173L26.5 174H47.5L67 175L87.5 174L114 175L123 174H148L157 173L167 174" stroke="#F2F2F2" stroke-width="6" stroke-linecap="round" stroke-linejoin="round"/>
<path d="M3 220L18.5 219L27.75 220L52.5 221L60 220L81.5 219L92 220L111 219L118.5 220H134.5L143 219L160.5 221L167 220" stroke="#F2F2F2" stroke-width="6" stroke-linecap="round" stroke-linejoin="round"/>
<path d="M3 266H16.75L30.5 267L39 266L62.5 265L70.5 266L93 267L101.5 266L115 267L122.5 266L136.25 265L150 266L160 267L167 266" stroke="#F2F2F2" stroke-width="6" stroke-linecap="round" stroke-linejoin="round"/>
<path d="M6 317L15.5 323.432L23 329.865L40 343.486L47 348.027L54.75 356.784L66.5 363.541L80 373M80 373L94.0203 363.541L104 357.482L117.014 348.027L133.5 337.578L152.466 323.432L163 317M80 373L102 388.795L112.5 394.633L132.5 409.054L143 415.578L155.5 425.536L163 430M80 373L59.494 388.795L48 398.419L35 407.662L27 413.054L15.5 423.453L6 430" stroke="#F2F2F2" stroke-width="6" stroke-linecap="round" stroke-linejoin="round"/>
</svg>
