<svg width="33" height="48" viewBox="0 0 33 48" fill="none" xmlns="http://www.w3.org/2000/svg">
<path d="M31.4863 15.625C31.4863 18.1235 30.8709 20.4761 29.7841 22.5416C28.4835 25.0131 25.0319 31.127 21.8969 36.6374C20.3312 39.3895 18.8472 41.9863 17.7546 43.8952C17.2974 44.694 16.9087 45.3722 16.6113 45.891C16.3139 45.3722 15.9253 44.694 15.4681 43.8952C14.3754 41.9863 12.8914 39.3895 11.3257 36.6374C8.19077 31.127 4.73911 25.0131 3.4386 22.5416C2.35173 20.4761 1.73633 18.1235 1.73633 15.625C1.73633 7.40976 8.39609 0.75 16.6113 0.75C24.8266 0.75 31.4863 7.40976 31.4863 15.625Z" stroke="white" stroke-width="1.5"/>
<circle cx="16.6113" cy="15.3984" r="6.25" stroke="white" stroke-width="1.5"/>
</svg>
