<svg width="24" height="37" viewBox="0 0 24 37" fill="none" xmlns="http://www.w3.org/2000/svg">
<path d="M23 12.1972C23 14.0816 22.5435 15.8541 21.7383 17.4093C20.7434 19.3312 18.0965 24.0968 15.6874 28.401C14.4852 30.5489 13.3456 32.5758 12.5066 34.0657C12.3224 34.3928 12.1527 34.694 12 34.9649C11.8473 34.694 11.6776 34.3928 11.4934 34.0657C10.6544 32.5758 9.51484 30.5489 8.31263 28.401C5.90349 24.0968 3.25662 19.3312 2.26166 17.4093C1.45653 15.8541 1 14.0816 1 12.1972C1 5.99773 5.94017 1 12 1C18.0598 1 23 5.99773 23 12.1972Z" stroke="white" stroke-width="2"/>
<path d="M17 12C17 14.1216 15.0771 16 12.5 16C9.92289 16 8 14.1216 8 12C8 9.87842 9.92289 8 12.5 8C15.0771 8 17 9.87842 17 12Z" stroke="white" stroke-width="2"/>
</svg>
