<svg width="9" height="15" viewBox="0 0 9 15" fill="none" xmlns="http://www.w3.org/2000/svg">
<path d="M8.5 4.94481C8.5 5.6999 8.33073 6.40848 8.03394 7.02826C7.66152 7.80596 6.66967 9.7366 5.76597 11.4821C5.31519 12.3527 4.88789 13.1744 4.57327 13.7784C4.54811 13.8267 4.52367 13.8736 4.5 13.919C4.47633 13.8736 4.45189 13.8267 4.42673 13.7784C4.11211 13.1744 3.68481 12.3527 3.23402 11.4821C2.33033 9.7366 1.33848 7.80596 0.966063 7.02826C0.66927 6.40848 0.5 5.6999 0.5 4.94481C0.5 2.44461 2.33417 0.5 4.5 0.5C6.66583 0.5 8.5 2.44461 8.5 4.94481Z" stroke="#828282"/>
<path d="M5.92843 4.875C5.92843 5.62121 5.30221 6.25 4.49986 6.25C3.69751 6.25 3.07129 5.62121 3.07129 4.875C3.07129 4.12879 3.69751 3.5 4.49986 3.5C5.30221 3.5 5.92843 4.12879 5.92843 4.875Z" stroke="#828282"/>
</svg>
