<svg width="24" height="38" viewBox="0 0 24 38" fill="none" xmlns="http://www.w3.org/2000/svg">
<path d="M21.3137 36.4082L2 36.4082C1.44772 36.4082 1 35.9605 1 35.4082L0.999999 11.4322C0.999999 10.611 1.33662 9.82574 1.93135 9.2595L8.89864 2.62595C10.4434 1.15523 12.8703 1.15523 14.415 2.62595L21.3823 9.2595C21.977 9.82574 22.3137 10.611 22.3137 11.4322L22.3137 35.4082C22.3137 35.9605 21.8659 36.4082 21.3137 36.4082Z" stroke="#FE6A49" stroke-width="2"/>
<circle cx="11.5" cy="8.5" r="2.5" stroke="#FE6A49" stroke-width="2"/>
<path d="M17 26.7143C17 23.94 14.6265 21.5714 11.8571 21.5714C9.08783 21.5714 6.71429 23.94 6.71429 26.7143C6.71429 28.4615 7.43332 30.1001 8.78441 31M8.78441 31H5M8.78441 31H15.2857M10.1429 19V25.8571M13.5714 19V25.8571" stroke="#FE6A49" stroke-width="2"/>
</svg>
