<svg width="131" height="90" viewBox="0 0 131 90" fill="none" xmlns="http://www.w3.org/2000/svg">
<path d="M125.432 8.67273C121.879 2.35636 118.023 1.19455 110.171 0.752727C102.327 0.220909 82.6037 0 65.5164 0C48.3963 0 28.6644 0.22091 20.829 0.744546C12.9936 1.19455 9.12906 2.34818 5.54294 8.67273C1.88312 14.9809 0 25.8464 0 44.9755C0 44.9918 0 45 0 45C0 45.0164 0 45.0245 0 45.0245V45.0409C0 64.0882 1.88312 75.0355 5.54294 81.2782C9.12906 87.5945 12.9854 88.74 20.8208 89.2718C28.6644 89.73 48.3963 90 65.5164 90C82.6037 90 102.327 89.73 110.179 89.28C118.031 88.7482 121.887 87.6027 125.441 81.2864C129.133 75.0436 131 64.0964 131 45.0491C131 45.0491 131 45.0245 131 45.0082C131 45.0082 131 44.9918 131 44.9836C131 25.8464 129.133 14.9809 125.432 8.67273ZM49.125 69.5454V20.4545L90.0625 45L49.125 69.5454Z" fill="#DB2F2F"/>
</svg>
