<svg width="12" height="13" viewBox="0 0 12 13" fill="none" xmlns="http://www.w3.org/2000/svg">
<path d="M3.17212 0.993286C2.89408 0.993286 2.66867 1.22279 2.66867 1.50589V2.01018H1.7941C0.89961 2.01018 0.171875 2.75114 0.171875 3.66189V5.18788V6.21309V10.5049C0.171875 11.4157 0.89961 12.1566 1.7941 12.1566H10.378C11.2724 12.1566 12.0002 11.4157 12.0002 10.5049V6.21306V5.18786V3.66187C12.0002 2.75111 11.2724 2.01015 10.378 2.01015H9.62824V1.50589C9.62824 1.22279 9.40283 0.993286 9.12479 0.993286C8.84675 0.993286 8.62134 1.22279 8.62134 1.50589V2.01018H3.67557V1.50589C3.67557 1.22279 3.45019 0.993286 3.17212 0.993286ZM10.9933 10.5049C10.9933 10.8504 10.7173 11.1314 10.378 11.1314H1.79413C1.45483 11.1314 1.1788 10.8504 1.1788 10.5049V6.21306H10.9933V10.5049ZM8.62137 3.03538V3.53964C8.62137 3.82274 8.84678 4.05224 9.12482 4.05224C9.40286 4.05224 9.62827 3.82274 9.62827 3.53964V3.03538H10.378C10.7173 3.03538 10.9933 3.31643 10.9933 3.66189V5.18788H1.1788V3.66189C1.1788 3.31643 1.45483 3.03538 1.79413 3.03538H2.6687V3.53964C2.6687 3.82274 2.89411 4.05224 3.17215 4.05224C3.45019 4.05224 3.6756 3.82274 3.6756 3.53964V3.03538H8.62137Z" fill="black"/>
</svg>
