<svg width="24" height="24" viewBox="0 0 24 24" fill="none" xmlns="http://www.w3.org/2000/svg">
<path fill-rule="evenodd" clip-rule="evenodd" d="M17.632 11.5484C17.2571 11.5484 16.9503 11.8551 16.9503 12.23V17.8537H6.16312V7.04946H11.7868C12.1617 7.04946 12.4684 6.74271 12.4684 6.3678C12.4684 5.99289 12.1617 5.68614 11.7868 5.68614H5.703C5.2088 5.68614 4.7998 6.09514 4.7998 6.58934V18.2968C4.7998 18.791 5.2088 19.2 5.703 19.2H17.4105C17.9047 19.2 18.3136 18.791 18.3136 18.2968V12.213C18.3136 11.8381 18.0069 11.5484 17.632 11.5484ZM19.0464 6.87904L17.1208 4.95336C17.0185 4.85111 16.8822 4.79999 16.7458 4.79999C16.6095 4.79999 16.4732 4.85111 16.3709 4.95336L8.8727 12.4516V15.1441H11.5652L19.0635 7.64591C19.1657 7.54366 19.2168 7.40733 19.2168 7.27099C19.1998 7.13466 19.1487 6.99833 19.0464 6.87904ZM11.1051 13.7979H10.2019V12.8947L16.7288 6.3678L17.632 7.27099L11.1051 13.7979Z" fill="#39A5D1"/>
</svg>
