<svg width="24" height="24" viewBox="0 0 24 24" fill="none" xmlns="http://www.w3.org/2000/svg">
<path fill-rule="evenodd" clip-rule="evenodd" d="M17.6322 11.5484C17.2573 11.5484 16.9506 11.8551 16.9506 12.23V17.8537H6.16336V7.04946H11.787C12.1619 7.04946 12.4687 6.74271 12.4687 6.3678C12.4687 5.99289 12.1619 5.68614 11.787 5.68614H5.70324C5.20904 5.68614 4.80005 6.09514 4.80005 6.58934V18.2968C4.80005 18.791 5.20904 19.2 5.70324 19.2H17.4107C17.9049 19.2 18.3139 18.791 18.3139 18.2968V12.213C18.3139 11.8381 18.0071 11.5484 17.6322 11.5484ZM19.0467 6.87904L17.121 4.95336C17.0187 4.85111 16.8824 4.79999 16.7461 4.79999C16.6098 4.79999 16.4734 4.85111 16.3712 4.95336L8.87295 12.4516V15.1441H11.5655L19.0637 7.64591C19.166 7.54366 19.2171 7.40733 19.2171 7.27099C19.2 7.13466 19.1489 6.99833 19.0467 6.87904ZM11.1054 13.7979H10.2022V12.8947L16.729 6.3678L17.6322 7.27099L11.1054 13.7979Z" fill="#39A5D1"/>
</svg>
