<svg width="24" height="24" viewBox="0 0 24 24" fill="none" xmlns="http://www.w3.org/2000/svg">
<path fill-rule="evenodd" clip-rule="evenodd" d="M17.6322 11.5485C17.2573 11.5485 16.9506 11.8552 16.9506 12.2301V17.8538H6.16336V7.04952H11.787C12.1619 7.04952 12.4687 6.74277 12.4687 6.36786C12.4687 5.99295 12.1619 5.6862 11.787 5.6862H5.70324C5.20904 5.6862 4.80005 6.0952 4.80005 6.5894V18.2969C4.80005 18.7911 5.20904 19.2 5.70324 19.2H17.4107C17.9049 19.2 18.3139 18.7911 18.3139 18.2969V12.2131C18.3139 11.8382 18.0071 11.5485 17.6322 11.5485ZM19.0467 6.8791L17.121 4.95342C17.0187 4.85117 16.8824 4.80005 16.7461 4.80005C16.6098 4.80005 16.4734 4.85117 16.3712 4.95342L8.87295 12.4516V15.1442H11.5655L19.0637 7.64597C19.166 7.54372 19.2171 7.40739 19.2171 7.27105C19.2 7.13472 19.1489 6.99839 19.0467 6.8791ZM11.1054 13.7979H10.2022V12.8947L16.729 6.36786L17.6322 7.27105L11.1054 13.7979Z" fill="#333333"/>
</svg>
