<svg width="28" height="28" viewBox="0 0 28 28" fill="none" xmlns="http://www.w3.org/2000/svg">
<path fill-rule="evenodd" clip-rule="evenodd" d="M20.571 13.4731C20.1336 13.4731 19.7757 13.831 19.7757 14.2684V20.8293H7.19063V8.22435H13.7516C14.189 8.22435 14.5468 7.86648 14.5468 7.42909C14.5468 6.99169 14.189 6.63382 13.7516 6.63382H6.65383C6.07726 6.63382 5.6001 7.11098 5.6001 7.68755V21.3462C5.6001 21.9228 6.07726 22.4 6.65383 22.4H20.3125C20.8891 22.4 21.3663 21.9228 21.3663 21.3462V14.2485C21.3663 13.8111 21.0084 13.4731 20.571 13.4731ZM22.2212 8.02554L19.9745 5.77891C19.8552 5.65962 19.6962 5.59998 19.5371 5.59998C19.3781 5.59998 19.219 5.65962 19.0997 5.77891L10.3518 14.5268V17.6681H13.4931L22.241 8.92021C22.3603 8.80092 22.42 8.64187 22.42 8.48282C22.4001 8.32376 22.3405 8.16471 22.2212 8.02554ZM12.9563 16.0975H11.9026V15.0438L19.5173 7.42909L20.571 8.48282L12.9563 16.0975Z" fill="white"/>
</svg>
