<svg width="20" height="20" viewBox="0 0 20 20" fill="none" xmlns="http://www.w3.org/2000/svg">
<path d="M10.0307 11.0914C7.79981 11.0914 5.98486 9.27649 5.98486 7.04556C5.98486 4.81495 7.79981 3 10.0307 3C12.2617 3 14.0766 4.81495 14.0766 7.04556C14.0766 9.27649 12.2617 11.0914 10.0307 11.0914ZM10.0307 4.09944C8.40617 4.09944 7.0843 5.42131 7.0843 7.04556C7.0843 8.67013 8.40617 9.992 10.0307 9.992C11.6553 9.992 12.9772 8.67013 12.9772 7.04556C12.9772 5.42099 11.6553 4.09944 10.0307 4.09944Z" fill="black"/>
<path d="M3.54979 17.1878C3.48792 17.1878 3.42509 17.1773 3.36386 17.1548C3.07829 17.0523 2.92979 16.7375 3.0326 16.4517C4.09079 13.509 6.90333 11.5316 10.0313 11.5316C13.1589 11.5316 15.9711 13.5087 17.0296 16.4517C17.1321 16.7372 16.9836 17.0523 16.6983 17.1548C16.4128 17.2576 16.0974 17.1091 15.9946 16.8235C15.0928 14.3162 12.6966 12.6311 10.0313 12.6311C7.36595 12.6311 4.96907 14.3162 4.06731 16.8235C3.9864 17.0479 3.77507 17.1878 3.54979 17.1878Z" fill="black"/>
</svg>
