<svg width="14" height="14" viewBox="0 0 14 14" fill="none" xmlns="http://www.w3.org/2000/svg">
<path d="M5.86157 5.44434C5.64036 5.44434 5.47119 5.6135 5.47119 5.83472V9.36117C5.47119 9.58239 5.64036 9.75156 5.86157 9.75156C6.06978 9.73854 6.23894 9.56938 6.25196 9.36117V5.83472C6.23894 5.62651 6.06978 5.45735 5.86157 5.44434Z" fill="#39A5D1"/>
<path d="M7.99585 5.44434C7.78765 5.45735 7.61848 5.62651 7.60547 5.83472V9.36117C7.61848 9.56938 7.78765 9.73854 7.99585 9.75156C8.21707 9.75156 8.38623 9.58239 8.38623 9.36117V5.83472C8.38623 5.6135 8.21707 5.44434 7.99585 5.44434Z" fill="#39A5D1"/>
<path d="M11.3659 3.51837H9.11467V3.141C9.11467 2.56843 8.64621 2.09998 8.07365 2.09998H5.78341C5.21085 2.09998 4.74239 2.56843 4.74239 3.141V3.51837H2.49118C2.26997 3.51837 2.1008 3.68753 2.1008 3.90875C2.08779 4.11695 2.25695 4.28612 2.46516 4.29913C2.47817 4.29913 2.47817 4.29913 2.49118 4.29913H3.18086L3.59727 10.7014C3.62329 11.2479 4.07874 11.6904 4.63829 11.6774H9.21877C9.77832 11.6904 10.2338 11.2479 10.2598 10.7014L10.6762 4.29913H11.3659C11.5741 4.31214 11.7432 4.14298 11.7563 3.93477C11.7563 3.92176 11.7563 3.92176 11.7563 3.90875C11.7563 3.68753 11.5871 3.51837 11.3659 3.51837ZM5.52315 3.141C5.52315 2.99786 5.64027 2.88074 5.78341 2.88074H8.07365C8.21679 2.88074 8.33391 2.99786 8.33391 3.141V3.51837H5.52315V3.141ZM9.47903 10.6494C9.47903 10.7795 9.37493 10.8966 9.23179 10.8966H9.21877H4.63829C4.50816 10.9096 4.39104 10.8055 4.37803 10.6624V10.6494L3.97464 4.29913H9.88242L9.47903 10.6494Z" fill="#39A5D1"/>
</svg>
