<svg width="20" height="20" viewBox="0 0 20 20" fill="none" xmlns="http://www.w3.org/2000/svg">
<path fill-rule="evenodd" clip-rule="evenodd" d="M8.5 3.5C5.73858 3.5 3.5 5.73858 3.5 8.5C3.5 11.2614 5.73858 13.5 8.5 13.5C11.2614 13.5 13.5 11.2614 13.5 8.5C13.5 5.73858 11.2614 3.5 8.5 3.5ZM2.5 8.5C2.5 5.18629 5.18629 2.5 8.5 2.5C11.8137 2.5 14.5 5.18629 14.5 8.5C14.5 10.2438 13.7561 11.8138 12.5684 12.9101L16.3904 17.6877C16.5629 17.9033 16.528 18.2179 16.3123 18.3904C16.0967 18.5629 15.7821 18.528 15.6096 18.3123L11.7798 13.5251C10.8371 14.1416 9.71041 14.5 8.5 14.5C5.18629 14.5 2.5 11.8137 2.5 8.5Z" fill="#828282"/>
</svg>
