<svg width="24" height="396" viewBox="0 0 24 396" fill="none" xmlns="http://www.w3.org/2000/svg">
<rect width="1" height="395" transform="matrix(-1 0 0 1 14 1)" fill="#C4C4C4"/>
<rect width="1" height="395" transform="matrix(-1 0 0 1 11 1)" fill="#C4C4C4"/>
<path d="M23 5L23.3402 4.6336L23.7348 5L23.3402 5.3664L23 5ZM22.6598 5.3664L18.3521 1.3664L19.0325 0.633603L23.3402 4.6336L22.6598 5.3664ZM18.3521 8.6336L22.6598 4.6336L23.3402 5.3664L19.0325 9.3664L18.3521 8.6336Z" fill="#BDBDBD"/>
<path d="M1 5L0.659774 4.6336L0.265193 5L0.659774 5.3664L1 5ZM1.34023 5.3664L5.64792 1.3664L4.96747 0.633603L0.659774 4.6336L1.34023 5.3664ZM5.64792 8.6336L1.34023 4.6336L0.659774 5.3664L4.96747 9.3664L5.64792 8.6336Z" fill="#BDBDBD"/>
<path d="M23 391L23.3402 390.634L23.7348 391L23.3402 391.366L23 391ZM22.6598 391.366L18.3521 387.366L19.0325 386.634L23.3402 390.634L22.6598 391.366ZM18.3521 394.634L22.6598 390.634L23.3402 391.366L19.0325 395.366L18.3521 394.634Z" fill="#BDBDBD"/>
<path d="M1 391L0.659774 390.634L0.265193 391L0.659774 391.366L1 391ZM1.34023 391.366L5.64792 387.366L4.96747 386.634L0.659774 390.634L1.34023 391.366ZM5.64792 394.634L1.34023 390.634L0.659774 391.366L4.96747 395.366L5.64792 394.634Z" fill="#BDBDBD"/>
</svg>
