<svg width="32" height="32" viewBox="0 0 32 32" fill="none" xmlns="http://www.w3.org/2000/svg">
<path fill-rule="evenodd" clip-rule="evenodd" d="M16.0004 8.90425C12.0816 8.90425 8.90474 12.0811 8.90474 15.9999C8.90474 19.9187 12.0816 23.0956 16.0004 23.0956C19.9192 23.0956 23.096 19.9187 23.096 15.9999C23.096 12.0811 19.9192 8.90425 16.0004 8.90425ZM6.40039 15.9999C6.40039 10.698 10.6985 6.3999 16.0004 6.3999C21.3023 6.3999 25.6004 10.698 25.6004 15.9999C25.6004 21.3018 21.3023 25.5999 16.0004 25.5999C10.6985 25.5999 6.40039 21.3018 6.40039 15.9999Z" fill="#F8CF66"/>
<path fill-rule="evenodd" clip-rule="evenodd" d="M17.6004 1.6001V4.8001H14.4004V1.6001H17.6004Z" fill="#F8CF66"/>
<path fill-rule="evenodd" clip-rule="evenodd" d="M17.6004 27.2002V30.4002H14.4004V27.2002H17.6004Z" fill="#F8CF66"/>
<path fill-rule="evenodd" clip-rule="evenodd" d="M30.4004 17.5999L27.2004 17.5999L27.2004 14.3999L30.4004 14.3999L30.4004 17.5999Z" fill="#F8CF66"/>
<path fill-rule="evenodd" clip-rule="evenodd" d="M4.7998 17.5999L1.5998 17.5999L1.5998 14.3999L4.7998 14.3999L4.7998 17.5999Z" fill="#F8CF66"/>
<path fill-rule="evenodd" clip-rule="evenodd" d="M24.7685 27.5967L22.5058 25.334L24.7685 23.0712L27.0312 25.334L24.7685 27.5967Z" fill="#F8CF66"/>
<path fill-rule="evenodd" clip-rule="evenodd" d="M6.66597 9.49468L4.40323 7.23193L6.66597 4.96919L8.92871 7.23193L6.66597 9.49468Z" fill="#F8CF66"/>
<path fill-rule="evenodd" clip-rule="evenodd" d="M4.40425 24.768L6.66699 22.5053L8.92973 24.768L6.66699 27.0308L4.40425 24.768Z" fill="#F8CF66"/>
<path fill-rule="evenodd" clip-rule="evenodd" d="M22.5058 6.66646L24.7686 4.40372L27.0313 6.66646L24.7686 8.9292L22.5058 6.66646Z" fill="#F8CF66"/>
</svg>
