<svg width="26" height="37" viewBox="0 0 26 37" fill="none" xmlns="http://www.w3.org/2000/svg">
<rect x="0.5" y="1.52783" width="24.6944" height="34.9722" stroke="#BDBDBD"/>
<rect x="1.5" y="2.5" width="23" height="33" stroke="#BDBDBD"/>
<rect x="8.2085" y="1.52783" width="9.27778" height="3.625" fill="white" stroke="#BDBDBD"/>
<rect x="10.2637" y="0.5" width="5.16667" height="1.56944" fill="white" stroke="#BDBDBD"/>
<rect x="3.0835" y="9.76367" width="15.9306" height="0.513889" rx="0.256944" fill="#C4C4C4"/>
<rect x="3.0835" y="11.8193" width="19.5278" height="0.513889" rx="0.256944" fill="#C4C4C4"/>
<rect x="3.0835" y="13.875" width="13.875" height="0.513889" rx="0.256944" fill="#C4C4C4"/>
<rect x="3.0835" y="15.9307" width="15.9306" height="0.513889" rx="0.256944" fill="#C4C4C4"/>
<rect x="3.0835" y="17.9863" width="17.4722" height="0.513889" rx="0.256944" fill="#C4C4C4"/>
<rect x="17.9863" y="13.875" width="4.625" height="0.513889" rx="0.256944" fill="#C4C4C4"/>
<rect x="3.0835" y="20.0415" width="15.9306" height="0.513889" rx="0.256944" fill="#C4C4C4"/>
<rect x="3.0835" y="22.0972" width="19.5278" height="0.513889" rx="0.256944" fill="#C4C4C4"/>
<rect x="3.0835" y="24.1528" width="13.875" height="0.513889" rx="0.256944" fill="#C4C4C4"/>
<rect x="3.0835" y="26.2085" width="15.9306" height="0.513889" rx="0.256944" fill="#C4C4C4"/>
<rect x="3.0835" y="28.2637" width="17.4722" height="0.513889" rx="0.256944" fill="#C4C4C4"/>
<rect x="17.9863" y="24.1528" width="4.625" height="0.513889" rx="0.256944" fill="#C4C4C4"/>
</svg>
