<svg width="20" height="20" viewBox="0 0 20 20" fill="none" xmlns="http://www.w3.org/2000/svg">
<path d="M11.7386 13.1562V2.82252C11.7386 1.82013 10.9184 1 9.91604 1C8.91365 1 8.09351 1.82013 8.09351 2.82252V13.1562C7.41918 13.703 7 14.5413 7 15.4161C7 17.02 8.31222 18.3322 9.91604 18.3322C11.5199 18.3322 12.8138 17.02 12.8138 15.4161C12.8138 14.5413 12.4129 13.703 11.7386 13.1562ZM9.91604 17.7125C8.65849 17.7125 7.63788 16.6919 7.63788 15.4344C7.63788 14.6325 8.05706 13.9035 8.7314 13.4843V2.84074C8.7314 2.18463 9.25993 1.63788 9.93427 1.63788C10.5904 1.63788 11.1371 2.16641 11.1371 2.84074V13.4843C11.7932 13.9035 12.2306 14.6325 12.2306 15.4344C12.1942 16.6919 11.1736 17.7125 9.91604 17.7125Z" fill="#828282"/>
<path d="M10.4813 13.867V9.6934C10.4813 9.38357 10.2261 9.12842 9.9163 9.12842C9.60647 9.12842 9.35133 9.38357 9.35133 9.6934V13.867C8.71344 14.1039 8.25781 14.7053 8.25781 15.4161C8.25781 16.3274 9.00504 17.0746 9.9163 17.0746C10.8276 17.0746 11.5748 16.3274 11.5748 15.4161C11.5748 14.7053 11.1192 14.1039 10.4813 13.867Z" fill="#828282"/>
<path d="M15.3477 2.85889H12.377V3.47855H15.3477V2.85889Z" fill="#828282"/>
<path d="M13.7803 4.91846H12.377V5.53811H13.7803V4.91846Z" fill="#828282"/>
<path d="M15.3477 6.99609H12.377V7.61576H15.3477V6.99609Z" fill="#828282"/>
<path d="M13.7803 9.05566H12.377V9.67533H13.7803V9.05566Z" fill="#828282"/>
<path d="M15.3477 11.1147H12.377V11.7344H15.3477V11.1147Z" fill="#828282"/>
</svg>
