<svg width="38" height="8" viewBox="0 0 38 8" fill="none" xmlns="http://www.w3.org/2000/svg">
<path opacity="0.3" d="M4 4L4.70711 4.70711L5.41421 4L4.70711 3.29289L4 4ZM0.292893 1.70711L3.29289 4.70711L4.70711 3.29289L1.70711 0.292893L0.292893 1.70711ZM3.29289 3.29289L0.292893 6.29289L1.70711 7.70711L4.70711 4.70711L3.29289 3.29289Z" fill="#8FCDE6"/>
<path opacity="0.7" d="M20 4L20.7071 4.70711L21.4142 4L20.7071 3.29289L20 4ZM16.2929 1.70711L19.2929 4.70711L20.7071 3.29289L17.7071 0.292893L16.2929 1.70711ZM19.2929 3.29289L16.2929 6.29289L17.7071 7.70711L20.7071 4.70711L19.2929 3.29289Z" fill="#8FCDE6"/>
<path d="M36 4L36.7071 4.70711L37.4142 4L36.7071 3.29289L36 4ZM32.2929 1.70711L35.2929 4.70711L36.7071 3.29289L33.7071 0.292893L32.2929 1.70711ZM35.2929 3.29289L32.2929 6.29289L33.7071 7.70711L36.7071 4.70711L35.2929 3.29289Z" fill="#8FCDE6"/>
</svg>
