<svg width="50" height="50" viewBox="0 0 50 50" fill="none" xmlns="http://www.w3.org/2000/svg">
<path d="M20.9333 19.4438C20.1432 19.4438 19.5391 20.048 19.5391 20.8381V33.4326C19.5391 34.2226 20.1432 34.8268 20.9333 34.8268C21.6769 34.7803 22.281 34.1761 22.3275 33.4326V20.8381C22.281 20.0945 21.6769 19.4903 20.9333 19.4438Z" fill="#EB5757"/>
<path d="M28.5556 19.4438C27.812 19.4903 27.2079 20.0945 27.1614 20.8381V33.4326C27.2079 34.1761 27.812 34.7803 28.5556 34.8268C29.3457 34.8268 29.9498 34.2226 29.9498 33.4326V20.8381C29.9498 20.048 29.3457 19.4438 28.5556 19.4438Z" fill="#EB5757"/>
<path d="M40.5921 12.5657H32.5521V11.2179C32.5521 9.17307 30.879 7.5 28.8341 7.5H20.6547C18.6098 7.5 16.9368 9.17307 16.9368 11.2179V12.5657H8.89674C8.10668 12.5657 7.50251 13.1698 7.50251 13.9599C7.45604 14.7035 8.0602 15.3076 8.80379 15.3541C8.85026 15.3541 8.85026 15.3541 8.89674 15.3541H11.3599L12.847 38.2194C12.94 40.1713 14.5666 41.7514 16.565 41.7049H32.9238C34.9222 41.7514 36.5488 40.1713 36.6418 38.2194L38.1289 15.3541H40.5921C41.3357 15.4006 41.9398 14.7964 41.9863 14.0528C41.9863 14.0064 41.9863 14.0064 41.9863 13.9599C41.9863 13.1698 41.3821 12.5657 40.5921 12.5657ZM19.7252 11.2179C19.7252 10.7067 20.1435 10.2884 20.6547 10.2884H28.8341C29.3453 10.2884 29.7636 10.7067 29.7636 11.2179V12.5657H19.7252V11.2179ZM33.8533 38.0335C33.8533 38.4982 33.4815 38.9165 32.9703 38.9165H32.9238H16.565C16.1002 38.963 15.682 38.5912 15.6355 38.08V38.0335L14.1948 15.3541H35.294L33.8533 38.0335Z" fill="#EB5757"/>
</svg>
