<svg width="24" height="24" viewBox="0 0 24 24" fill="none" xmlns="http://www.w3.org/2000/svg">
<path d="M10.0481 9.33307C9.6689 9.33307 9.37891 9.62307 9.37891 10.0023V16.0476C9.37891 16.4269 9.6689 16.7169 10.0481 16.7169C10.4051 16.6946 10.6951 16.4046 10.7174 16.0476V10.0023C10.6951 9.64537 10.4051 9.35538 10.0481 9.33307Z" fill="#39A5D1"/>
<path d="M13.7068 9.33307C13.3499 9.35538 13.0599 9.64537 13.0376 10.0023V16.0476C13.0599 16.4046 13.3499 16.6946 13.7068 16.7169C14.0861 16.7169 14.3761 16.4269 14.3761 16.0476V10.0023C14.3761 9.62307 14.0861 9.33307 13.7068 9.33307Z" fill="#39A5D1"/>
<path d="M19.4843 6.0315H15.6251V5.38458C15.6251 4.40305 14.822 3.59998 13.8405 3.59998H9.91435C8.93281 3.59998 8.12974 4.40305 8.12974 5.38458V6.0315H4.27053C3.8913 6.0315 3.6013 6.3215 3.6013 6.70073C3.579 7.05765 3.86899 7.34765 4.22592 7.36995C4.24822 7.36995 4.24822 7.36995 4.27053 7.36995H5.45283L6.16667 18.3453C6.21129 19.2822 6.99205 20.0407 7.95128 20.0183H15.8035C16.7628 20.0407 17.5435 19.2822 17.5881 18.3453L18.302 7.36995H19.4843C19.8412 7.39226 20.1312 7.10226 20.1535 6.74534C20.1535 6.72303 20.1535 6.72303 20.1535 6.70073C20.1535 6.3215 19.8635 6.0315 19.4843 6.0315ZM9.46819 5.38458C9.46819 5.1392 9.66896 4.93843 9.91435 4.93843H13.8405C14.0859 4.93843 14.2866 5.1392 14.2866 5.38458V6.0315H9.46819V5.38458ZM16.2497 18.256C16.2497 18.4791 16.0712 18.6799 15.8258 18.6799H15.8035H7.95128C7.7282 18.7022 7.52744 18.5237 7.50513 18.2784V18.256L6.81359 7.36995H16.9412L16.2497 18.256Z" fill="#39A5D1"/>
</svg>
