<svg width="32" height="32" viewBox="0 0 32 32" fill="none" xmlns="http://www.w3.org/2000/svg">
<circle cx="16" cy="16" r="16" fill="#C3DAE4"/>
<path d="M16.041 16.1218C13.0664 16.1218 10.6465 13.7019 10.6465 10.7273C10.6465 7.75319 13.0664 5.33325 16.041 5.33325C19.0156 5.33325 21.4355 7.75319 21.4355 10.7273C21.4355 13.7019 19.0156 16.1218 16.041 16.1218ZM16.041 6.79917C13.8749 6.79917 12.1124 8.56166 12.1124 10.7273C12.1124 12.8934 13.8749 14.6559 16.041 14.6559C18.2071 14.6559 19.9696 12.8934 19.9696 10.7273C19.9696 8.56124 18.2071 6.79917 16.041 6.79917Z" fill="white"/>
<path d="M7.39956 24.2503C7.31706 24.2503 7.2333 24.2363 7.15164 24.2063C6.77089 24.0697 6.57289 23.65 6.70996 23.2688C8.12089 19.3453 11.8709 16.7087 16.0415 16.7087C20.2117 16.7087 23.9613 19.3449 25.3726 23.2688C25.5093 23.6496 25.3113 24.0697 24.931 24.2063C24.5502 24.3434 24.1297 24.1454 23.9926 23.7646C22.7903 20.4216 19.5953 18.1747 16.0415 18.1747C12.4878 18.1747 9.29193 20.4216 8.08958 23.7646C7.9817 24.0637 7.69994 24.2503 7.39956 24.2503Z" fill="white"/>
</svg>
