<svg width="20" height="20" viewBox="0 0 20 20" fill="none" xmlns="http://www.w3.org/2000/svg">
<path d="M15.7239 8.43121L13.6464 4.15353C13.6002 4.05949 13.5079 4 13.4045 4C13.3029 4 13.2087 4.05949 13.1626 4.15353L11.5337 7.50812L10.2078 4.77724C10.1616 4.6832 10.0693 4.62371 9.96588 4.62371C9.86247 4.62371 9.77013 4.6832 9.72396 4.77724L8.43126 7.44095L6.8357 4.15545C6.78953 4.06141 6.69719 4.00192 6.59378 4.00192C6.49221 4.00192 6.39803 4.06141 6.35186 4.15545L4.27615 8.43121C3.77569 9.46176 3.96775 10.7015 4.7526 11.519L4.7803 11.5478C5.17735 11.9604 5.68335 12.2176 6.23182 12.2982C5.99544 13.5533 6.36109 14.8717 7.26229 15.8102L7.30476 15.8543C8.01575 16.5931 8.96127 17 9.96588 17C10.9705 17 11.916 16.5931 12.627 15.8543L12.6695 15.8102C13.5688 14.8756 13.9345 13.559 13.7018 12.3078C14.2743 12.2387 14.8061 11.9758 15.2179 11.5459L15.2456 11.5171C16.0323 10.7034 16.2244 9.46176 15.7239 8.43121ZM6.56608 11.2849C6.49221 11.4384 6.42942 11.5958 6.37587 11.7551C5.91603 11.7033 5.49129 11.4941 5.16257 11.1506L5.13487 11.1218C4.51437 10.477 4.36294 9.49823 4.75814 8.68453L6.59562 4.9039L8.13025 8.06274L6.56608 11.2849ZM11.3546 14.4457L11.3121 14.4898C10.952 14.864 10.4737 15.0694 9.96588 15.0694C9.81815 15.0694 9.69626 14.9427 9.69626 14.7892C9.69626 14.6357 9.8163 14.509 9.96588 14.509C10.3297 14.509 10.6732 14.3612 10.9299 14.0945L10.9723 14.0503C11.3897 13.6166 11.4913 12.9565 11.2253 12.4095C11.1589 12.2694 11.2124 12.1005 11.3454 12.0314C11.4783 11.9604 11.6409 12.0161 11.7073 12.1562C12.0804 12.92 11.9382 13.8392 11.3546 14.4457ZM14.8652 11.1218L14.8375 11.1506C14.4922 11.5094 14.0434 11.7205 13.5596 11.757C13.506 11.5958 13.4433 11.4384 13.3675 11.283L11.8366 8.12991L13.4045 4.90198L15.242 8.68261C15.6372 9.49823 15.4857 10.477 14.8652 11.1218Z" fill="#828282"/>
</svg>
