<svg width="32" height="32" viewBox="0 0 32 32" fill="none" xmlns="http://www.w3.org/2000/svg">
<path d="M28.1189 18.3226L24.3694 19.3313L18.6376 15.9999L24.3694 12.6685L28.1189 13.6772L28.8002 11.1156L25.798 10.306L26.6024 7.28422L24.0573 6.59847L23.0507 10.3679L17.3189 13.6993V7.03647L20.0617 4.27576L18.198 2.3999L16.0002 4.612L13.8024 2.3999L11.9387 4.27576L14.6815 7.03647V13.6993L8.94965 10.3679L7.94305 6.59847L5.398 7.28422L6.20239 10.306L3.2002 11.1156L3.88151 13.6772L7.63096 12.6685L13.3628 15.9999L7.63096 19.3313L3.88151 18.3226L3.2002 20.8842L6.20239 21.6939L5.398 24.7156L7.94305 25.4013L8.94965 21.6319L14.6815 18.3005V24.9633L11.9387 27.724L13.8024 29.5999L16.0002 27.3878L18.198 29.5999L20.0617 27.724L17.3189 24.9633V18.3005L23.0507 21.6319L24.0573 25.4013L26.6024 24.7156L25.798 21.6939L28.8002 20.8842L28.1189 18.3226Z" fill="#8FCDE6"/>
</svg>
