<svg width="22" height="22" viewBox="0 0 22 22" fill="none" xmlns="http://www.w3.org/2000/svg">
<path fill-rule="evenodd" clip-rule="evenodd" d="M15.7367 10.8736C15.4087 10.8736 15.1403 11.142 15.1403 11.4701V16.3908H5.70144V6.93704H10.6222C10.9502 6.93704 11.2186 6.66864 11.2186 6.34059C11.2186 6.01254 10.9502 5.74414 10.6222 5.74414H5.29884C4.86641 5.74414 4.50854 6.10201 4.50854 6.53444V16.7785C4.50854 17.2109 4.86641 17.5688 5.29884 17.5688H15.5429C15.9753 17.5688 16.3332 17.2109 16.3332 16.7785V11.4551C16.3332 11.1271 16.0648 10.8736 15.7367 10.8736Z" fill="black"/>
<path fill-rule="evenodd" clip-rule="evenodd" d="M14.6145 4.26882C14.6146 3.95477 14.8692 3.7002 15.1833 3.7002C15.4973 3.7002 15.7519 3.95477 15.752 4.26882H15.8336V6.24382H17.8086V6.3252C18.1226 6.32539 18.377 6.57995 18.377 6.89395C18.377 7.20794 18.1226 7.4625 17.8086 7.4627V7.54382H15.8336V9.51882H15.752C15.752 9.51886 15.752 9.5189 15.752 9.51895C15.752 9.83306 15.4974 10.0877 15.1833 10.0877C14.8691 10.0877 14.6145 9.83306 14.6145 9.51895C14.6145 9.5189 14.6145 9.51886 14.6145 9.51882H14.5336V7.54382H12.5586V7.4627H12.5583C12.2441 7.4627 11.9895 7.20806 11.9895 6.89395C11.9895 6.57983 12.2441 6.3252 12.5583 6.3252H12.5586V6.24382H14.5336V4.26882H14.6145Z" fill="black"/>
</svg>
