<svg width="40" height="40" viewBox="0 0 40 40" fill="none" xmlns="http://www.w3.org/2000/svg">
<path fill-rule="evenodd" clip-rule="evenodd" d="M29.6644 20.3962C28.9146 20.3962 28.3011 21.0097 28.3011 21.7595V33.0068H6.72663V11.3983H17.974C18.7238 11.3983 19.3373 10.7848 19.3373 10.035C19.3373 9.28517 18.7238 8.67168 17.974 8.67168H5.80639C4.81799 8.67168 4 9.48967 4 10.4781V33.893C4 34.8814 4.81799 35.6994 5.80639 35.6994H29.2213C30.2097 35.6994 31.0277 34.8814 31.0277 33.893V21.7254C31.0277 20.9756 30.4142 20.3962 29.6644 20.3962Z" fill="#39A5D1"/>
<path d="M28.3984 3.9998C28.3979 3.9847 28.3977 3.96953 28.3977 3.9543C28.3977 3.23633 28.9797 2.6543 29.6977 2.6543C30.4156 2.6543 30.9976 3.23622 30.9977 3.9541L30.9984 8.6541H35.6984C36.416 8.65452 36.9977 9.23659 36.9977 9.9543C36.9977 10.6723 36.4156 11.2543 35.6977 11.2543L35.6749 11.2541H30.9984V15.9541C30.9984 16.6721 30.4156 17.2543 29.6977 17.2543C28.9797 17.2543 28.3977 16.6723 28.3977 15.9543C28.3977 15.9391 28.3979 15.9239 28.3984 15.9088V11.2541H23.7204L23.6977 11.2543C22.9797 11.2543 22.3977 10.6723 22.3977 9.9543C22.3977 9.23633 22.9797 8.6543 23.6977 8.6543L28.3984 8.6541V3.9998Z" fill="#39A5D1"/>
</svg>
