<svg width="40" height="40" viewBox="0 0 40 40" fill="none" xmlns="http://www.w3.org/2000/svg">
<path fill-rule="evenodd" clip-rule="evenodd" d="M31.2659 19.4968C30.5161 19.4968 29.9026 20.1103 29.9026 20.8601V32.1075H8.32819V10.4989H19.5755C20.3253 10.4989 20.9388 9.88544 20.9388 9.13562C20.9388 8.3858 20.3253 7.77231 19.5755 7.77231H7.40795C6.41955 7.77231 5.60156 8.5903 5.60156 9.5787V32.9936C5.60156 33.982 6.41955 34.8 7.40795 34.8H30.8229C31.8113 34.8 32.6293 33.982 32.6293 32.9936V20.826C32.6293 20.0762 32.0158 19.4968 31.2659 19.4968ZM34.0948 10.1581L30.2435 6.30675C30.039 6.10225 29.7663 6 29.4936 6C29.221 6 28.9483 6.10225 28.7438 6.30675L13.7474 21.3032V26.6883H19.1324L34.1289 11.6918C34.3334 11.4873 34.4356 11.2147 34.4356 10.942C34.4016 10.6693 34.2993 10.3967 34.0948 10.1581ZM18.2122 23.9957H16.4058V22.1893L29.4595 9.13562L31.2659 10.942L18.2122 23.9957Z" fill="#39A5D1"/>
</svg>
