<svg width="19" height="18" viewBox="0 0 19 18" fill="none" xmlns="http://www.w3.org/2000/svg">
<g clip-path="url(#clip0)">
<path d="M10.1206 0.691178C9.99234 0.585428 9.82247 0.541553 9.65822 0.571928L0.658219 2.25943C0.391594 2.30893 0.199219 2.54068 0.199219 2.8118V15.1868C0.199219 15.4568 0.391594 15.6897 0.658219 15.7392L9.65822 17.4267C9.69197 17.4334 9.72797 17.4368 9.76172 17.4368C9.89109 17.4368 10.0193 17.3918 10.1206 17.3074C10.25 17.2006 10.3242 17.0408 10.3242 16.8743V1.1243C10.3242 0.956678 10.25 0.798053 10.1206 0.691178ZM9.19922 16.1959L1.32422 14.7199V3.27868L9.19922 1.80268V16.1959Z" fill="#39A5D1"/>
<path d="M17.6367 2.81152H9.76172C9.45122 2.81152 9.19922 3.06352 9.19922 3.37402C9.19922 3.68452 9.45122 3.93652 9.76172 3.93652H17.0742V14.0615H9.76172C9.45122 14.0615 9.19922 14.3135 9.19922 14.624C9.19922 14.9345 9.45122 15.1865 9.76172 15.1865H17.6367C17.9472 15.1865 18.1992 14.9345 18.1992 14.624V3.37402C18.1992 3.06352 17.9472 2.81152 17.6367 2.81152Z" fill="#39A5D1"/>
<path d="M12.0117 5.06152H9.76172C9.45122 5.06152 9.19922 5.31352 9.19922 5.62402C9.19922 5.93452 9.45122 6.18652 9.76172 6.18652H12.0117C12.3222 6.18652 12.5742 5.93452 12.5742 5.62402C12.5742 5.31352 12.3222 5.06152 12.0117 5.06152Z" fill="#39A5D1"/>
<path d="M12.0117 7.31152H9.76172C9.45122 7.31152 9.19922 7.56352 9.19922 7.87402C9.19922 8.18452 9.45122 8.43652 9.76172 8.43652H12.0117C12.3222 8.43652 12.5742 8.18452 12.5742 7.87402C12.5742 7.56352 12.3222 7.31152 12.0117 7.31152Z" fill="#39A5D1"/>
<path d="M12.0117 9.56152H9.76172C9.45122 9.56152 9.19922 9.81352 9.19922 10.124C9.19922 10.4345 9.45122 10.6865 9.76172 10.6865H12.0117C12.3222 10.6865 12.5742 10.4345 12.5742 10.124C12.5742 9.81352 12.3222 9.56152 12.0117 9.56152Z" fill="#39A5D1"/>
<path d="M12.0117 11.8115H9.76172C9.45122 11.8115 9.19922 12.0635 9.19922 12.374C9.19922 12.6845 9.45122 12.9365 9.76172 12.9365H12.0117C12.3222 12.9365 12.5742 12.6845 12.5742 12.374C12.5742 12.0635 12.3222 11.8115 12.0117 11.8115Z" fill="#39A5D1"/>
<path d="M15.3867 5.06152H14.2617C13.9512 5.06152 13.6992 5.31352 13.6992 5.62402C13.6992 5.93452 13.9512 6.18652 14.2617 6.18652H15.3867C15.6972 6.18652 15.9492 5.93452 15.9492 5.62402C15.9492 5.31352 15.6972 5.06152 15.3867 5.06152Z" fill="#39A5D1"/>
<path d="M15.3867 7.31152H14.2617C13.9512 7.31152 13.6992 7.56352 13.6992 7.87402C13.6992 8.18452 13.9512 8.43652 14.2617 8.43652H15.3867C15.6972 8.43652 15.9492 8.18452 15.9492 7.87402C15.9492 7.56352 15.6972 7.31152 15.3867 7.31152Z" fill="#39A5D1"/>
<path d="M15.3867 9.56152H14.2617C13.9512 9.56152 13.6992 9.81352 13.6992 10.124C13.6992 10.4345 13.9512 10.6865 14.2617 10.6865H15.3867C15.6972 10.6865 15.9492 10.4345 15.9492 10.124C15.9492 9.81352 15.6972 9.56152 15.3867 9.56152Z" fill="#39A5D1"/>
<path d="M15.3867 11.8115H14.2617C13.9512 11.8115 13.6992 12.0635 13.6992 12.374C13.6992 12.6845 13.9512 12.9365 14.2617 12.9365H15.3867C15.6972 12.9365 15.9492 12.6845 15.9492 12.374C15.9492 12.0635 15.6972 11.8115 15.3867 11.8115Z" fill="#39A5D1"/>
<path d="M7.93617 10.8801L3.99867 6.3801C3.79167 6.14498 3.4373 6.12248 3.20442 6.32723C2.97042 6.53198 2.9468 6.88748 3.15155 7.12035L7.08905 11.6203C7.20042 11.7475 7.35567 11.8127 7.51205 11.8127C7.64367 11.8127 7.7753 11.7666 7.8833 11.6732C8.1173 11.4685 8.14092 11.1141 7.93617 10.8801Z" fill="#39A5D1"/>
<path d="M7.85662 5.7432C7.61137 5.55083 7.25812 5.59695 7.06687 5.84108L3.12937 10.9036C2.93925 11.1488 2.98312 11.5032 3.22837 11.6933C3.33187 11.7732 3.45337 11.8114 3.57375 11.8114C3.74025 11.8114 3.90675 11.7372 4.017 11.5954L7.9545 6.53295C8.14575 6.28658 8.10187 5.93333 7.85662 5.7432Z" fill="#39A5D1"/>
</g>
<defs>
<clipPath id="clip0">
<rect width="18" height="18" fill="white" transform="translate(0.199219)"/>
</clipPath>
</defs>
</svg>
