<svg width="40" height="40" viewBox="0 0 40 40" fill="none" xmlns="http://www.w3.org/2000/svg">
<path d="M21.8428 4.25736C21.5863 4.04586 21.2465 3.95811 20.918 4.01886L2.918 7.39386C2.38475 7.49286 2 7.95636 2 8.49861V33.2486C2 33.7886 2.38475 34.2544 2.918 34.3534L20.918 37.7284C20.9855 37.7419 21.0575 37.7486 21.125 37.7486C21.3837 37.7486 21.6403 37.6586 21.8428 37.4899C22.1015 37.2761 22.25 36.9566 22.25 36.6236V5.12361C22.25 4.78836 22.1015 4.47111 21.8428 4.25736ZM20 35.2669L4.25 32.3149V9.43236L20 6.48036V35.2669Z" fill="#39A5D1"/>
<path d="M36.875 8.49805H21.125C20.504 8.49805 20 9.00205 20 9.62305C20 10.244 20.504 10.748 21.125 10.748H35.75V30.998H21.125C20.504 30.998 20 31.502 20 32.123C20 32.744 20.504 33.248 21.125 33.248H36.875C37.496 33.248 38 32.744 38 32.123V9.62305C38 9.00205 37.496 8.49805 36.875 8.49805Z" fill="#39A5D1"/>
<path d="M25.625 12.998H21.125C20.504 12.998 20 13.502 20 14.123C20 14.744 20.504 15.248 21.125 15.248H25.625C26.246 15.248 26.75 14.744 26.75 14.123C26.75 13.502 26.246 12.998 25.625 12.998Z" fill="#39A5D1"/>
<path d="M25.625 17.498H21.125C20.504 17.498 20 18.002 20 18.623C20 19.244 20.504 19.748 21.125 19.748H25.625C26.246 19.748 26.75 19.244 26.75 18.623C26.75 18.002 26.246 17.498 25.625 17.498Z" fill="#39A5D1"/>
<path d="M25.625 21.998H21.125C20.504 21.998 20 22.502 20 23.123C20 23.744 20.504 24.248 21.125 24.248H25.625C26.246 24.248 26.75 23.744 26.75 23.123C26.75 22.502 26.246 21.998 25.625 21.998Z" fill="#39A5D1"/>
<path d="M25.625 26.498H21.125C20.504 26.498 20 27.002 20 27.623C20 28.244 20.504 28.748 21.125 28.748H25.625C26.246 28.748 26.75 28.244 26.75 27.623C26.75 27.002 26.246 26.498 25.625 26.498Z" fill="#39A5D1"/>
<path d="M32.375 12.998H30.125C29.504 12.998 29 13.502 29 14.123C29 14.744 29.504 15.248 30.125 15.248H32.375C32.996 15.248 33.5 14.744 33.5 14.123C33.5 13.502 32.996 12.998 32.375 12.998Z" fill="#39A5D1"/>
<path d="M32.375 17.498H30.125C29.504 17.498 29 18.002 29 18.623C29 19.244 29.504 19.748 30.125 19.748H32.375C32.996 19.748 33.5 19.244 33.5 18.623C33.5 18.002 32.996 17.498 32.375 17.498Z" fill="#39A5D1"/>
<path d="M32.375 21.998H30.125C29.504 21.998 29 22.502 29 23.123C29 23.744 29.504 24.248 30.125 24.248H32.375C32.996 24.248 33.5 23.744 33.5 23.123C33.5 22.502 32.996 21.998 32.375 21.998Z" fill="#39A5D1"/>
<path d="M32.375 26.498H30.125C29.504 26.498 29 27.002 29 27.623C29 28.244 29.504 28.748 30.125 28.748H32.375C32.996 28.748 33.5 28.244 33.5 27.623C33.5 27.002 32.996 26.498 32.375 26.498Z" fill="#39A5D1"/>
<path d="M17.4744 24.6336L9.5994 15.6336C9.1854 15.1633 8.47665 15.1183 8.0109 15.5278C7.5429 15.9373 7.49565 16.6483 7.90515 17.1141L15.7801 26.1141C16.0029 26.3683 16.3134 26.4988 16.6261 26.4988C16.8894 26.4988 17.1526 26.4066 17.3686 26.2198C17.8366 25.8103 17.8839 25.1016 17.4744 24.6336Z" fill="#39A5D1"/>
<path d="M17.3148 14.3616C16.8243 13.9768 16.1178 14.0691 15.7353 14.5573L7.86031 24.6823C7.48006 25.1728 7.56781 25.8815 8.05831 26.2618C8.26531 26.4215 8.50831 26.498 8.74906 26.498C9.08206 26.498 9.41506 26.3495 9.63556 26.066L17.5106 15.9411C17.8931 15.4483 17.8053 14.7418 17.3148 14.3616Z" fill="#39A5D1"/>
</svg>
