<svg width="40" height="40" viewBox="0 0 40 40" fill="none" xmlns="http://www.w3.org/2000/svg">
<path d="M30.897 9.37907H29.9718V7.31979C29.9718 4.38756 27.5842 2 24.652 2H13.4827C10.5505 2 8.1629 4.38756 8.1629 7.31979V9.37907H7.31979C4.38756 9.37907 2 11.7666 2 14.6989V23.2792C2 26.2114 4.38756 28.599 7.31979 28.599H8.15544V35.3438C8.15544 36.8062 9.34922 38 10.8116 38H27.3082C28.7706 38 29.9643 36.8062 29.9643 35.3438V28.599H30.897C33.8292 28.599 36.2168 26.2114 36.2168 23.2792V14.6989C36.2168 11.7666 33.8292 9.37907 30.897 9.37907ZM10.1699 7.31979C10.1699 5.49927 11.6547 4.01451 13.4752 4.01451H24.6371C26.4576 4.01451 27.9424 5.49927 27.9424 7.31979V9.37907H10.1699V7.31979V7.31979ZM27.9498 35.3588C27.9498 35.7094 27.6589 36.0004 27.3082 36.0004H10.8116C10.4609 36.0004 10.1699 35.7094 10.1699 35.3588V24.2342H27.9498V35.3588ZM34.2023 23.2866C34.2023 25.1071 32.7175 26.5919 30.897 26.5919H29.9718V24.2342H31.2999C31.8595 24.2342 32.3071 23.7865 32.3071 23.2269C32.3071 22.6674 31.8595 22.2197 31.2999 22.2197H6.67813C6.11855 22.2197 5.67088 22.6674 5.67088 23.2269C5.67088 23.7865 6.11855 24.2342 6.67813 24.2342H8.1629V26.5919H7.31979C5.49927 26.5919 4.01451 25.1071 4.01451 23.2866V14.7063C4.01451 12.8858 5.49927 11.401 7.31979 11.401H30.897C32.7175 11.401 34.2023 12.8858 34.2023 14.7063V23.2866V23.2866Z" fill="#39A5D1"/>
<path d="M12.6108 29.1883H25.4365C25.9961 29.1883 26.4437 28.7407 26.4437 28.1811C26.4437 27.6215 25.9961 27.1738 25.4365 27.1738H12.6108C12.0512 27.1738 11.6035 27.6215 11.6035 28.1811C11.6035 28.7407 12.0586 29.1883 12.6108 29.1883Z" fill="#39A5D1"/>
<path d="M25.5191 31.293H12.686C12.1264 31.293 11.6787 31.7406 11.6787 32.3002C11.6787 32.8598 12.1264 33.3075 12.686 33.3075H25.5117C26.0713 33.3075 26.5189 32.8598 26.5189 32.3002C26.5189 31.7406 26.0713 31.293 25.5191 31.293Z" fill="#39A5D1"/>
<path d="M30.8758 13.334H28.8315C28.2719 13.334 27.8242 13.7817 27.8242 14.3412C27.8242 14.9008 28.2719 15.3485 28.8315 15.3485H30.8758C31.4354 15.3485 31.8831 14.9008 31.8831 14.3412C31.8831 13.7817 31.4354 13.334 30.8758 13.334Z" fill="#39A5D1"/>
</svg>
