<svg width="40" height="40" viewBox="0 0 40 40" fill="none" xmlns="http://www.w3.org/2000/svg">
<path d="M16.7467 15.5547C16.1147 15.5547 15.6313 16.038 15.6313 16.6701V26.7456C15.6313 27.3777 16.1147 27.861 16.7467 27.861C17.3416 27.8238 17.8249 27.3405 17.8621 26.7456V16.6701C17.8249 16.0752 17.3416 15.5919 16.7467 15.5547Z" fill="#39A5D1"/>
<path d="M22.8444 15.5547C22.2495 15.5919 21.7662 16.0752 21.729 16.6701V26.7456C21.7662 27.3405 22.2495 27.8238 22.8444 27.861C23.4764 27.861 23.9598 27.3777 23.9598 26.7456V16.6701C23.9598 16.038 23.4764 15.5547 22.8444 15.5547Z" fill="#39A5D1"/>
<path d="M32.4737 10.0525H26.0416V8.97434C26.0416 7.33845 24.7032 6 23.0673 6H16.5237C14.8879 6 13.5494 7.33845 13.5494 8.97434V10.0525H7.11739C6.48534 10.0525 6.00201 10.5359 6.00201 11.1679C5.96483 11.7628 6.44816 12.2461 7.04303 12.2833C7.08021 12.2833 7.08021 12.2833 7.11739 12.2833H9.08789L10.2776 30.5755C10.352 32.137 11.6533 33.4011 13.252 33.3639H26.3391C27.9378 33.4011 29.2391 32.137 29.3134 30.5755L30.5032 12.2833H32.4737C33.0685 12.3205 33.5519 11.8371 33.589 11.2423C33.589 11.2051 33.589 11.2051 33.589 11.1679C33.589 10.5359 33.1057 10.0525 32.4737 10.0525ZM15.7802 8.97434C15.7802 8.56537 16.1148 8.23076 16.5237 8.23076H23.0673C23.4763 8.23076 23.8109 8.56537 23.8109 8.97434V10.0525H15.7802V8.97434ZM27.0827 30.4268C27.0827 30.7986 26.7852 31.1332 26.3763 31.1332H26.3391H13.252C12.8802 31.1704 12.5456 30.8729 12.5084 30.464V30.4268L11.3558 12.2833H28.2352L27.0827 30.4268Z" fill="#39A5D1"/>
</svg>
