<svg width="15" height="16" viewBox="0 0 15 16" fill="none" xmlns="http://www.w3.org/2000/svg">
<path d="M3.71731 3.89427C5.87211 1.94511 9.09687 1.9153 11.2815 3.69458L9.54988 3.76015C9.32636 3.76909 9.1535 3.95388 9.16244 4.1774C9.17138 4.39497 9.3502 4.56485 9.56479 4.56485C9.57075 4.56485 9.57373 4.56485 9.57969 4.56485L12.2382 4.4665C12.4557 4.45756 12.6256 4.28172 12.6256 4.06415V4.03435C12.6256 4.02838 12.6256 4.0254 12.6256 4.01944V4.01646L12.5273 1.38778C12.5183 1.16425 12.3306 0.991391 12.11 1.00033C11.8865 1.00927 11.7136 1.19406 11.7226 1.41758L11.7852 3.06573C10.7033 2.18056 9.37106 1.66793 7.94645 1.59641C6.18207 1.50699 4.48624 2.11201 3.17786 3.29819C1.37772 4.92846 0.614744 7.40812 1.18697 9.76857C1.23168 9.95335 1.3956 10.0755 1.5774 10.0755C1.61019 10.0755 1.63999 10.0726 1.67277 10.0636C1.88736 10.01 2.02148 9.79241 1.96783 9.57783C1.46713 7.50349 2.13473 5.32484 3.71731 3.89427Z" fill="#39A5D1" stroke="#39A5D1" stroke-width="0.5"/>
<path d="M14.1574 6.82739C14.1038 6.61281 13.8862 6.47869 13.6716 6.53234C13.457 6.58598 13.3229 6.80355 13.3766 7.01814C13.8802 9.09247 13.2097 11.2711 11.6271 12.7017C10.5154 13.7061 9.12059 14.2008 7.73174 14.2008C6.40547 14.2008 5.08219 13.7508 4.01522 12.8626L5.76767 12.7047C5.98822 12.6838 6.15214 12.4901 6.13128 12.2666C6.11042 12.043 5.91669 11.8821 5.69316 11.903L3.04362 12.1414C2.82307 12.1623 2.65915 12.356 2.68001 12.5795L2.91844 15.229C2.93632 15.4377 3.11217 15.5956 3.31781 15.5956C3.32973 15.5956 3.34165 15.5956 3.35358 15.5927C3.57412 15.5718 3.73804 15.3781 3.71718 15.1545L3.57412 13.5422C4.656 14.4184 5.98226 14.928 7.39793 14.9996C7.51119 15.0055 7.62444 15.0085 7.73472 15.0085C9.3769 15.0085 10.9386 14.4065 12.1665 13.2978C13.9667 11.6675 14.7296 9.19082 14.1574 6.82739Z" fill="#39A5D1" stroke="#39A5D1" stroke-width="0.5"/>
</svg>
