<svg width="40" height="40" viewBox="0 0 40 40" fill="none" xmlns="http://www.w3.org/2000/svg">
<path fill-rule="evenodd" clip-rule="evenodd" d="M17 7C11.4772 7 7 11.4772 7 17C7 22.5228 11.4772 27 17 27C22.5228 27 27 22.5228 27 17C27 11.4772 22.5228 7 17 7ZM5 17C5 10.3726 10.3726 5 17 5C23.6274 5 29 10.3726 29 17C29 20.4876 27.5122 23.6276 25.1367 25.8201L32.7809 35.3753C33.1259 35.8066 33.056 36.4359 32.6247 36.7809C32.1934 37.1259 31.5641 37.056 31.2191 36.6247L23.5595 27.0502C21.6742 28.2832 19.4208 29 17 29C10.3726 29 5 23.6274 5 17Z" fill="#39A5D1"/>
</svg>
