<svg width="28" height="28" viewBox="0 0 28 28" fill="none" xmlns="http://www.w3.org/2000/svg">
<path d="M25.2 13.22C25.1968 12.877 25.0881 12.5433 24.8888 12.2642C24.6894 11.9851 24.409 11.7741 24.0856 11.6598L22.2747 11.019C22.2036 10.9916 22.139 10.95 22.0846 10.8968C22.0303 10.8435 21.9874 10.7796 21.9587 10.7091C21.93 10.6386 21.916 10.563 21.9177 10.4869C21.9193 10.4109 21.9365 10.3359 21.9682 10.2667L22.7762 8.53935C22.9224 8.22758 22.9687 7.87827 22.9089 7.53917C22.849 7.20007 22.6859 6.88773 22.4418 6.64483L21.3553 5.55826C21.1124 5.31419 20.8 5.15109 20.4609 5.09125C20.1218 5.03141 19.7725 5.07774 19.4607 5.22393L17.7334 6.03189C17.6642 6.0636 17.5892 6.08081 17.5132 6.08244C17.4371 6.08407 17.3615 6.0701 17.291 6.04138C17.2205 6.01267 17.1566 5.96982 17.1033 5.91548C17.0501 5.86114 17.0085 5.79645 16.9811 5.72542L16.3403 3.91448C16.226 3.59109 16.015 3.3107 15.7359 3.11134C15.4568 2.91198 15.1231 2.8033 14.7801 2.80005H13.22C12.877 2.8033 12.5433 2.91198 12.2642 3.11134C11.9851 3.3107 11.7741 3.59109 11.6598 3.91448L11.019 5.72542C10.9916 5.79645 10.95 5.86114 10.8968 5.91548C10.8435 5.96982 10.7796 6.01267 10.7091 6.04138C10.6386 6.0701 10.563 6.08407 10.4869 6.08244C10.4109 6.08081 10.3359 6.0636 10.2667 6.03189L8.53935 5.22393C8.22758 5.07774 7.87827 5.03141 7.53917 5.09125C7.20007 5.15109 6.88773 5.31419 6.64483 5.55826L5.55826 6.64483C5.31419 6.88773 5.15109 7.20007 5.09125 7.53917C5.03141 7.87827 5.07774 8.22758 5.22393 8.53935L6.03189 10.2667C6.0636 10.3359 6.08081 10.4109 6.08244 10.4869C6.08407 10.563 6.0701 10.6386 6.04138 10.7091C6.01267 10.7796 5.96982 10.8435 5.91548 10.8968C5.86114 10.95 5.79645 10.9916 5.72542 11.019L3.91448 11.6598C3.59109 11.7741 3.3107 11.9851 3.11134 12.2642C2.91198 12.5433 2.8033 12.877 2.80005 13.22V14.7801C2.8033 15.1231 2.91198 15.4568 3.11134 15.7359C3.3107 16.015 3.59109 16.226 3.91448 16.3403L5.72542 16.9811C5.79645 17.0085 5.86114 17.0501 5.91548 17.1033C5.96982 17.1566 6.01267 17.2205 6.04138 17.291C6.0701 17.3615 6.08407 17.4371 6.08244 17.5132C6.08081 17.5892 6.0636 17.6642 6.03189 17.7334L5.22393 19.4607C5.07774 19.7725 5.03141 20.1218 5.09125 20.4609C5.15109 20.8 5.31419 21.1124 5.55826 21.3553L6.64483 22.4418C6.88773 22.6859 7.20007 22.849 7.53917 22.9089C7.87827 22.9687 8.22758 22.9224 8.53935 22.7762L10.2667 21.9682C10.3359 21.9365 10.4109 21.9193 10.4869 21.9177C10.563 21.916 10.6386 21.93 10.7091 21.9587C10.7796 21.9874 10.8435 22.0303 10.8968 22.0846C10.95 22.139 10.9916 22.2036 11.019 22.2747L11.6598 24.0856C11.7741 24.409 11.9851 24.6894 12.2642 24.8888C12.5433 25.0881 12.877 25.1968 13.22 25.2H14.7801C15.1231 25.1968 15.4568 25.0881 15.7359 24.8888C16.015 24.6894 16.226 24.409 16.3403 24.0856L16.9811 22.2747C17.0085 22.2036 17.0501 22.139 17.1033 22.0846C17.1566 22.0303 17.2205 21.9874 17.291 21.9587C17.3615 21.93 17.4371 21.916 17.5132 21.9177C17.5892 21.9193 17.6642 21.9365 17.7334 21.9682L19.4607 22.7762C19.7725 22.9224 20.1218 22.9687 20.4609 22.9089C20.8 22.849 21.1124 22.6859 21.3553 22.4418L22.4418 21.3553C22.6859 21.1124 22.849 20.8 22.9089 20.4609C22.9687 20.1218 22.9224 19.7725 22.7762 19.4607L21.9682 17.7334C21.9365 17.6642 21.9193 17.5892 21.9177 17.5132C21.916 17.4371 21.93 17.3615 21.9587 17.291C21.9874 17.2205 22.0303 17.1566 22.0846 17.1033C22.139 17.0501 22.2036 17.0085 22.2747 16.9811L24.0856 16.3403C24.409 16.226 24.6894 16.015 24.8888 15.7359C25.0881 15.4568 25.1968 15.1231 25.2 14.7801V13.22ZM24.0856 14.7801C24.0871 14.8949 24.0532 15.0074 23.9883 15.1022C23.9235 15.1969 23.831 15.2693 23.7234 15.3095L21.9403 15.9503C21.7212 16.0291 21.521 16.1527 21.3524 16.3134C21.1839 16.474 21.0508 16.6681 20.9616 16.8831C20.8724 17.0982 20.8292 17.3296 20.8346 17.5623C20.84 17.7951 20.894 18.0242 20.9931 18.2349L21.801 19.9622C21.8519 20.0673 21.8685 20.1856 21.8485 20.3006C21.8285 20.4156 21.7729 20.5213 21.6896 20.603L20.603 21.6896C20.5213 21.7729 20.4156 21.8285 20.3006 21.8485C20.1856 21.8685 20.0673 21.8519 19.9622 21.801L18.2349 20.9931C18.0242 20.894 17.7951 20.84 17.5623 20.8346C17.3296 20.8292 17.0982 20.8724 16.8831 20.9616C16.6681 21.0508 16.474 21.1839 16.3134 21.3524C16.1527 21.521 16.0291 21.7212 15.9503 21.9403L15.3095 23.7513C15.2693 23.8588 15.1969 23.9514 15.1022 24.0162C15.0074 24.081 14.8949 24.115 14.7801 24.1135H13.22C13.1052 24.115 12.9927 24.081 12.8979 24.0162C12.8032 23.9514 12.7308 23.8588 12.6906 23.7513L12.0498 21.9403C11.971 21.7212 11.8474 21.521 11.6867 21.3524C11.5261 21.1839 11.332 21.0508 11.117 20.9616C10.9019 20.8724 10.6705 20.8292 10.4378 20.8346C10.205 20.84 9.97592 20.894 9.76522 20.9931L8.03786 21.801C7.93283 21.8519 7.81449 21.8685 7.69951 21.8485C7.58454 21.8285 7.47875 21.7729 7.39706 21.6896L6.3105 20.603C6.22716 20.5213 6.17157 20.4156 6.15158 20.3006C6.13158 20.1856 6.14819 20.0673 6.19905 19.9622L7.00701 18.2349C7.10611 18.0242 7.1601 17.7951 7.16552 17.5623C7.17094 17.3296 7.12768 17.0982 7.0385 16.8831C6.94932 16.6681 6.81619 16.474 6.64765 16.3134C6.4791 16.1527 6.27886 16.0291 6.05975 15.9503L4.24881 15.3095C4.14125 15.2693 4.04874 15.1969 3.98391 15.1022C3.91908 15.0074 3.8851 14.8949 3.88662 14.7801V13.22C3.8851 13.1052 3.91908 12.9927 3.98391 12.8979C4.04874 12.8032 4.14125 12.7308 4.24881 12.6906L6.05975 12.0498C6.27886 11.971 6.4791 11.8474 6.64765 11.6867C6.81619 11.5261 6.94932 11.332 7.0385 11.117C7.12768 10.9019 7.17094 10.6705 7.16552 10.4378C7.1601 10.205 7.10611 9.97592 7.00701 9.76522L6.19905 8.03786C6.14819 7.93283 6.13158 7.81449 6.15158 7.69951C6.17157 7.58454 6.22716 7.47875 6.3105 7.39706L7.39706 6.3105C7.47875 6.22716 7.58454 6.17157 7.69951 6.15158C7.81449 6.13158 7.93283 6.14819 8.03786 6.19905L9.76522 7.00701C9.97592 7.10611 10.205 7.1601 10.4378 7.16552C10.6705 7.17094 10.9019 7.12768 11.117 7.0385C11.332 6.94932 11.5261 6.81619 11.6867 6.64765C11.8474 6.4791 11.971 6.27886 12.0498 6.05975L12.6906 4.24881C12.7308 4.14125 12.8032 4.04874 12.8979 3.98391C12.9927 3.91908 13.1052 3.8851 13.22 3.88662H14.7801C14.8949 3.8851 15.0074 3.91908 15.1022 3.98391C15.1969 4.04874 15.2693 4.14125 15.3095 4.24881L15.9503 6.05975C16.0291 6.27886 16.1527 6.4791 16.3134 6.64765C16.474 6.81619 16.6681 6.94932 16.8831 7.0385C17.0982 7.12768 17.3296 7.17094 17.5623 7.16552C17.7951 7.1601 18.0242 7.10611 18.2349 7.00701L19.9622 6.19905C20.0673 6.14819 20.1856 6.13158 20.3006 6.15158C20.4156 6.17157 20.5213 6.22716 20.603 6.3105L21.6896 7.39706C21.7729 7.47875 21.8285 7.58454 21.8485 7.69951C21.8685 7.81449 21.8519 7.93283 21.801 8.03786L20.9931 9.76522C20.894 9.97592 20.84 10.205 20.8346 10.4378C20.8292 10.6705 20.8724 10.9019 20.9616 11.117C21.0508 11.332 21.1839 11.5261 21.3524 11.6867C21.521 11.8474 21.7212 11.971 21.9403 12.0498L23.7513 12.6906C23.8588 12.7308 23.9514 12.8032 24.0162 12.8979C24.081 12.9927 24.115 13.1052 24.1135 13.22L24.0856 14.7801Z" fill="#BDBDBD"/>
<path d="M14.0001 10.1553C13.2396 10.1553 12.4963 10.3808 11.864 10.8032C11.2317 11.2257 10.7389 11.8262 10.4479 12.5287C10.1569 13.2313 10.0808 14.0043 10.2292 14.7501C10.3775 15.4959 10.7437 16.181 11.2814 16.7187C11.8191 17.2564 12.5042 17.6226 13.25 17.7709C13.9958 17.9193 14.7688 17.8432 15.4714 17.5522C16.1739 17.2612 16.7744 16.7684 17.1969 16.1361C17.6193 15.5038 17.8448 14.7605 17.8448 14C17.8375 12.9826 17.4301 12.0089 16.7107 11.2894C15.9912 10.57 15.0175 10.1626 14.0001 10.1553ZM14.0001 16.7583C13.4612 16.7582 12.9345 16.5988 12.4861 16.3C12.0377 16.0012 11.6878 15.5764 11.4803 15.0791C11.2729 14.5818 11.2172 14.0343 11.3203 13.5054C11.4234 12.9765 11.6807 12.49 12.0598 12.1071C12.4388 11.7242 12.9227 11.4619 13.4505 11.3535C13.9783 11.245 14.5264 11.2951 15.0257 11.4975C15.5251 11.6999 15.9534 12.0455 16.2568 12.4908C16.5601 12.9361 16.7249 13.4613 16.7304 14C16.7231 14.7219 16.4332 15.4122 15.9227 15.9227C15.4122 16.4332 14.7219 16.7231 14.0001 16.7304V16.7583Z" fill="#BDBDBD"/>
</svg>
