<svg width="73" height="71" viewBox="0 0 73 71" fill="none" xmlns="http://www.w3.org/2000/svg">
<path fill-rule="evenodd" clip-rule="evenodd" d="M43.6628 64.3955C26.7926 64.3955 13.1166 50.7195 13.1166 33.8493C13.1166 32.2076 13.2461 30.5962 13.4955 29.0247C11.153 33.1241 9.81432 37.871 9.81432 42.9306C9.81432 58.433 22.3815 71.0001 37.8838 71.0001C47.3504 71.0001 55.7224 66.3138 60.8066 59.1346C55.9187 62.4552 50.0174 64.3955 43.6628 64.3955Z" fill="#8FCDE6"/>
<path fill-rule="evenodd" clip-rule="evenodd" d="M65.9539 28.7027C65.9539 45.5729 52.2779 59.2489 35.4077 59.2489C33.766 59.2489 32.1545 59.1194 30.583 58.87C34.6824 61.2125 39.4294 62.5512 44.489 62.5512C59.9913 62.5512 72.5585 49.984 72.5585 34.4817C72.5585 25.0151 67.8722 16.643 60.6929 11.5588C64.0135 16.4468 65.9539 22.3481 65.9539 28.7027Z" fill="#82D0AE"/>
<path fill-rule="evenodd" clip-rule="evenodd" d="M30.4544 6.60496C47.3246 6.60495 61.0006 20.281 61.0006 37.1512C61.0006 38.7929 60.8711 40.4043 60.6217 41.9758C62.9642 37.8764 64.3029 33.1295 64.3029 28.0699C64.3029 12.5675 51.7357 0.000370481 36.2334 0.000371836C26.7668 0.000372664 18.3947 4.68666 13.3105 11.8659C18.1985 8.54533 24.0998 6.60496 30.4544 6.60496Z" fill="#8FCDE6"/>
<path fill-rule="evenodd" clip-rule="evenodd" d="M7.46702 42.105C7.46702 25.2348 21.143 11.5587 38.0132 11.5587C39.6549 11.5588 41.2664 11.6883 42.8379 11.9376C38.7385 9.59513 33.9915 8.25646 28.9319 8.25646C13.4296 8.25646 0.86244 20.8236 0.862439 36.3259C0.862439 45.7925 5.54872 54.1646 12.728 59.2488C9.40739 54.3608 7.46702 48.4595 7.46702 42.105Z" fill="#82D0AE"/>
</svg>
