<svg width="40" height="40" viewBox="0 0 40 40" fill="none" xmlns="http://www.w3.org/2000/svg">
<circle cx="20" cy="20" r="20" fill="#DFE4C3"/>
<path d="M20.051 20.1525C16.3328 20.1525 13.3079 17.1276 13.3079 13.4094C13.3079 9.69167 16.3328 6.66675 20.051 6.66675C23.7692 6.66675 26.7941 9.69167 26.7941 13.4094C26.7941 17.1276 23.7692 20.1525 20.051 20.1525ZM20.051 8.49915C17.3434 8.49915 15.1403 10.7023 15.1403 13.4094C15.1403 16.117 17.3434 18.3201 20.051 18.3201C22.7586 18.3201 24.9617 16.117 24.9617 13.4094C24.9617 10.7017 22.7586 8.49915 20.051 8.49915Z" fill="white"/>
<path d="M9.24933 30.3129C9.14621 30.3129 9.0415 30.2955 8.93943 30.2579C8.46349 30.0871 8.21599 29.5625 8.38733 29.0861C10.151 24.1817 14.8386 20.886 20.0518 20.886C25.2645 20.886 29.9515 24.1811 31.7157 29.0861C31.8865 29.562 31.639 30.0871 31.1636 30.2579C30.6876 30.4293 30.162 30.1818 29.9906 29.7058C28.4877 25.527 24.494 22.7184 20.0518 22.7184C15.6096 22.7184 11.6148 25.527 10.1119 29.7058C9.977 30.0797 9.6248 30.3129 9.24933 30.3129Z" fill="white"/>
</svg>
