<svg width="20" height="20" viewBox="0 0 20 20" fill="none" xmlns="http://www.w3.org/2000/svg">
<path d="M6.16883 7.37216C6.16883 6.48573 6.16829 5.59931 6.16883 4.71235C6.171 3.90612 6.44603 3.10839 6.94032 2.46999C7.41837 1.8523 8.09674 1.38917 8.85091 1.16292C9.20715 1.05617 9.57746 1.00146 9.95265 1.0004C10.3175 0.999867 10.6824 0.999867 11.0474 1.0004C11.8356 1.00199 12.6255 1.25215 13.2682 1.70943C13.9303 2.18159 14.4295 2.86939 14.6671 3.63684C14.7759 3.98685 14.8306 4.35278 14.8312 4.71819V7.37216C15.1934 7.37269 15.5556 7.37322 15.9172 7.37375C16.2475 7.37535 16.5728 7.53203 16.7753 7.79227C16.9172 7.97497 16.9957 8.20282 16.9968 8.43279C17.0011 11.2673 17.0011 14.1024 16.9968 16.937C16.9951 17.262 16.8343 17.5812 16.5701 17.7788C16.3839 17.9179 16.1527 17.995 15.9172 17.996C12.3056 18.0013 8.69444 18.0013 5.08279 17.996C4.7428 17.9944 4.40984 17.8287 4.20898 17.5568C4.07688 17.3783 4.00433 17.1595 4.00325 16.937C3.99892 14.1024 3.99892 11.2673 4.00325 8.43279C4.00487 8.16246 4.11478 7.89371 4.30697 7.69826C4.50729 7.49432 4.79477 7.37535 5.08279 7.37375C5.44444 7.37322 5.80664 7.37269 6.16883 7.37216ZM5.08658 8.43598H5.08604C5.08171 11.2684 5.08604 14.1008 5.08604 16.9333V16.9338C8.69553 16.9391 12.3045 16.9391 15.914 16.9338V16.9333C15.914 14.1008 15.9183 11.2684 15.914 8.43598H15.9134C12.3045 8.43598 8.69553 8.43598 5.08658 8.43598ZM9.9586 12.593C9.83517 12.5505 9.71714 12.4937 9.60778 12.423C9.22285 12.174 8.95377 11.7597 8.89097 11.3088C8.83467 10.9057 8.9424 10.4829 9.18711 10.1536C9.48001 9.76005 9.95536 9.50989 10.4637 9.49874C10.4773 9.49821 10.4913 9.49821 10.5054 9.49821C10.9125 9.50033 11.317 9.65754 11.6137 9.93159C11.8632 10.1626 12.0365 10.4733 12.0977 10.8053C12.1762 11.227 12.0722 11.6779 11.8156 12.0258C11.6239 12.2855 11.3495 12.4852 11.0414 12.5935V15.3405C11.0403 15.358 11.0403 15.375 11.0387 15.3925C11.0197 15.5826 10.8893 15.7574 10.7074 15.8312C10.5114 15.9109 10.2699 15.8663 10.1172 15.7159C10.042 15.6421 9.99 15.5465 9.96889 15.444C9.95969 15.3983 9.96077 15.3867 9.9586 15.3405V12.593ZM10.4984 10.5604C10.3679 10.561 10.2396 10.6093 10.1421 10.6932C9.96997 10.8419 9.90717 11.1032 10.0095 11.3167C10.0961 11.4973 10.2916 11.6221 10.4984 11.6227C10.7231 11.6232 10.9418 11.4755 11.0149 11.2573C11.0603 11.1208 11.0468 10.9673 10.977 10.8403C10.8855 10.6741 10.7003 10.5626 10.5054 10.5604C10.5032 10.5604 10.5005 10.5604 10.4984 10.5604ZM13.7484 7.3711C13.7484 6.48573 13.7489 5.59984 13.7484 4.71394C13.7468 4.14831 13.5562 3.5832 13.2097 3.12857C12.8686 2.68084 12.3797 2.34252 11.8324 2.17841C11.5779 2.10246 11.3126 2.06316 11.0457 2.06262C10.6835 2.06209 10.3213 2.06262 9.9586 2.06262C9.38743 2.06316 8.82005 2.24533 8.36149 2.57409C7.6907 3.05474 7.26353 3.84823 7.25162 4.68101C7.25162 4.69376 7.25162 4.70597 7.25162 4.71819V7.3711C9.41721 7.36951 11.5828 7.36951 13.7484 7.3711Z" fill="#828282"/>
</svg>
