<svg width="352" height="76" viewBox="0 0 352 76" fill="none" xmlns="http://www.w3.org/2000/svg">
<path d="M153.685 71.7095C150.441 71.2072 148.215 70.5375 146.536 69.9421C142.15 68.37 138.038 65.8584 134.567 62.2119C130.256 57.6724 128.427 53.1886 127.427 48.9933C126.625 45.5979 126.87 38.7049 127.71 35.7095C128.03 34.5747 127.748 35.4212 128.587 32.6863C128.625 32.5654 128.644 32.6677 128.644 32.6677C128.644 32.6677 128.644 32.6398 128.634 32.5468C128.493 30.1933 128.578 28.3979 128.993 25.9421C129.238 24.5002 130.228 22.4444 130.228 22.4444C130.087 22.4351 129.455 23.0398 129.021 23.4119C127.719 24.5282 125.059 27.0212 124.211 27.9514C124.211 27.9514 123.418 29.4584 123.173 30.277C121.004 37.3096 121.023 42.1003 123.192 48.7886C124.72 53.5049 127.446 57.9514 131.115 61.7561C134.689 65.4584 139.443 68.5003 144.348 70.1561C147.46 71.2072 149.894 71.7096 151.95 71.97C154.808 72.3421 157.034 72.2026 160.184 71.9514C156.836 72.2212 156.364 72.1282 153.685 71.7095Z" fill="url(#paint0_radial)"/>
<g opacity="0.4">
<g opacity="0.4">
<path opacity="0.4" d="M188.612 26.2677C186.688 21.5142 183.528 17.1794 179.652 13.7654C174.266 9.02122 167.55 6.1561 161.835 5.39331C170.484 7.05843 180.453 13.784 184.792 23.2538C190.187 35.0305 185.773 48.7886 175.888 56.7793C173.662 58.5747 168.89 61.1887 165.937 61.6073C163.4 61.9608 166.211 67.0956 170.295 67.3282C171.955 67.4212 179.387 62.7421 179.746 62.4724C186.556 57.2538 190.479 49.4398 191.092 41.1142C191.441 36.1747 190.583 31.1514 188.612 26.2677Z" fill="url(#paint1_linear)"/>
</g>
</g>
<path d="M166.088 68.7143C152.28 71.3654 138.906 61.5515 135.35 48.184C133.275 40.4073 135.397 27.3003 143.565 21.7282C145.546 20.3794 142.631 18.2677 140.811 19.0677C136.359 21.0398 133.925 24.7887 131.813 27.9608C127.729 34.0817 127.021 41.077 128.851 49.6259C131.049 59.8956 138.557 67.3654 148.017 70.2863C152.516 71.6817 157.647 72.2584 162.599 71.5235C167.418 70.8166 172.153 68.9468 176.152 66.1933C181.708 62.3608 185.895 57.2073 187.829 52.2119C184.415 59.6538 175.813 66.8445 166.088 68.7143Z" fill="url(#paint2_linear)"/>
<path d="M188.527 25.1514C186.603 20.398 183.443 16.0631 179.567 12.6491C174.181 7.90495 167.465 5.03983 161.75 4.27704C170.399 5.94215 180.368 12.6677 184.707 22.1375C190.876 35.598 184.434 51.9049 171.153 58.6026C161.306 63.5701 148.762 61.1328 140.915 54.1468C139.009 52.4538 138.028 55.1701 139.33 56.8352C147.8 67.7468 160.957 70.8166 174.077 64.7235C184.33 59.9701 190.244 50.3794 191.008 39.998C191.357 35.0584 190.498 30.0352 188.527 25.1514Z" fill="url(#paint3_linear)"/>
<path d="M181.387 18.1467C175.634 8.52814 165.4 3.59791 154.846 3.82116C149.818 3.92349 144.753 5.30024 140.009 7.69094C135.397 10.0258 131.313 13.5235 128.219 17.6537C123.928 23.384 121.739 30.184 121.504 35.8677C122.381 27.2165 128.238 16.8072 137.396 11.663C150.413 4.3514 167.465 9.16071 175.473 21.5793C181.406 30.7793 180.482 43.7933 174.162 52.156C172.606 54.2212 176.058 55.6351 177.614 54.2119C187.857 44.8723 188.763 30.4723 181.387 18.1467Z" fill="url(#paint4_linear)"/>
<path d="M167.286 13.0584C155.685 5.43051 141.216 8.18401 130.804 18.1375C127.842 20.9654 125.607 25.077 125.125 25.598L125.144 25.6073C125.097 25.7096 125.041 25.8026 124.993 25.9049C127.408 23.784 128.361 22.9468 129.483 22.091C130.785 21.0956 132.058 20.3142 132.237 20.4445L132.303 20.5468C132.492 20.5933 131.888 21.7933 131.681 22.3607C131.219 23.3282 130.511 25.5886 130.351 26.5189C130.19 27.4584 129.841 30.5282 129.917 31.2538L129.945 31.2631C131.294 28.2584 133.171 25.4491 135.567 23.0026C143.254 15.1608 156.345 12.7607 166.07 16.8538C168.428 17.8491 169.059 14.2212 167.286 13.0584Z" fill="url(#paint5_linear)"/>
<path d="M164.372 35.3933C164.183 33.1886 163.947 31.1793 163.381 27.8026C163.381 27.8026 161.071 29.8119 158.147 30.9188V33.17C160.175 32.3421 161.863 31.1235 161.863 31.1235C162.287 33.6723 162.466 35.1421 162.429 36.8072C162.363 39.8584 161.957 41.9793 160.863 43.5421C159.826 45.0211 157.92 46.2677 155.393 46.1374C153.789 46.0537 151.28 45.0677 151.082 44.9281C150.941 44.8258 150.365 43.0677 150.073 41.4025C149.714 39.4118 149.903 37.3747 151.365 35.8863C151.742 35.5049 152.28 35.1421 152.836 34.9002C153.572 34.5746 154.063 34.3793 154.6 34.2119V31.9049C153.742 32.156 153.044 32.4258 151.922 32.9281C151.186 33.2537 150.469 33.7281 149.979 34.2398C148.054 36.2211 147.8 38.9095 148.281 41.5421C148.677 43.7467 149.554 46.2677 149.743 46.4072C150.007 46.5932 153.204 47.7002 155.326 47.8119C158.665 47.9886 161.193 46.3328 162.561 44.3793C163.994 42.3049 164.702 39.1979 164.372 35.3933Z" fill="url(#paint6_linear)"/>
<path fill-rule="evenodd" clip-rule="evenodd" d="M163.447 27.6218L163.474 27.7874C164.041 31.1664 164.277 33.1782 164.466 35.3854C164.797 39.2038 164.088 42.3342 162.639 44.4317L162.638 44.4321C161.255 46.4087 158.697 48.0834 155.321 47.9047C154.249 47.8483 152.911 47.5413 151.812 47.2268C151.261 47.0693 150.768 46.9094 150.396 46.777C150.21 46.7108 150.054 46.6513 149.935 46.6022C149.82 46.5547 149.731 46.5133 149.688 46.4829L149.687 46.4823L149.686 46.4816C149.659 46.4617 149.637 46.4305 149.62 46.403C149.6 46.3726 149.579 46.3341 149.557 46.2893C149.513 46.1995 149.461 46.0783 149.403 45.932C149.287 45.639 149.146 45.2398 149 44.7768C148.706 43.8509 148.387 42.6656 148.188 41.5584C147.704 38.9121 147.957 36.1877 149.91 34.1757C150.411 33.6536 151.138 33.1728 151.883 32.8434C153.007 32.3401 153.71 32.0685 154.573 31.8157L154.695 31.7803V34.28L154.629 34.3006C154.096 34.4665 153.609 34.6602 152.875 34.9851L152.875 34.9854C152.328 35.2229 151.801 35.5791 151.433 35.9512C150.001 37.4086 149.81 39.4091 150.166 41.3863L150.166 41.3867C150.311 42.215 150.527 43.0673 150.725 43.725C150.823 44.0539 150.917 44.333 150.994 44.5354C151.033 44.6369 151.067 44.7176 151.095 44.7752C151.109 44.8041 151.121 44.8256 151.131 44.8404C151.136 44.8489 151.139 44.8532 151.141 44.855C151.16 44.8674 151.211 44.8935 151.297 44.932C151.386 44.9717 151.505 45.0214 151.649 45.0778C151.935 45.1904 152.315 45.3287 152.74 45.4653C153.59 45.7392 154.609 46.0033 155.397 46.0445C157.888 46.1729 159.764 44.9452 160.785 43.4892C161.863 41.95 162.268 39.8527 162.334 36.8052C162.371 35.1813 162.201 33.7432 161.794 31.2857C161.748 31.3175 161.69 31.3573 161.62 31.4038C161.429 31.5317 161.154 31.7107 160.814 31.9156C160.136 32.3253 159.203 32.8395 158.183 33.2559L158.052 33.3092V30.8549L158.113 30.832C159.565 30.282 160.867 29.5072 161.807 28.869C162.277 28.55 162.655 28.2656 162.916 28.061C163.046 27.9587 163.147 27.8764 163.216 27.8198C163.25 27.7915 163.276 27.7697 163.293 27.7549C163.302 27.7475 163.308 27.742 163.313 27.7382L163.318 27.7341L163.319 27.7328L163.447 27.6218ZM161.807 31.0484L161.931 30.959L161.956 31.1084C162.381 33.6583 162.561 35.1351 162.523 36.8093C162.457 39.8641 162.051 42.0085 160.941 43.5949C159.887 45.097 157.952 46.3625 155.388 46.2303C154.573 46.1878 153.535 45.9171 152.681 45.6421C152.253 45.5043 151.869 45.3647 151.579 45.2506C151.434 45.1935 151.312 45.1427 151.22 45.1015C151.131 45.0618 151.061 45.0275 151.027 45.0038L151.026 45.0031C151.002 44.9856 150.984 44.9597 150.971 44.9395C150.956 44.9165 150.941 44.8881 150.925 44.8559C150.894 44.7913 150.857 44.7049 150.818 44.601C150.738 44.393 150.643 44.1093 150.544 43.7778C150.345 43.1146 150.127 42.2553 149.98 41.4186C149.619 39.4146 149.805 37.3408 151.297 35.8216L151.298 35.8213C151.684 35.4307 152.232 35.0615 152.798 34.8153C153.505 34.5023 153.989 34.3084 154.506 34.1439V32.03C153.707 32.2697 153.027 32.5355 151.961 33.0129L151.96 33.013C151.233 33.3347 150.527 33.8026 150.047 34.3037L150.047 34.3041C148.152 36.2548 147.895 38.9069 148.374 41.5256L148.374 41.5258C148.571 42.6233 148.888 43.8007 149.18 44.7213C149.325 45.1816 149.464 45.5765 149.578 45.8643C149.635 46.0084 149.686 46.1244 149.727 46.2077C149.748 46.2495 149.765 46.2817 149.78 46.3045C149.793 46.325 149.8 46.3323 149.8 46.3333C149.825 46.35 149.893 46.3832 150.008 46.4306C150.123 46.4781 150.276 46.5364 150.46 46.602C150.828 46.7329 151.317 46.8916 151.864 47.0481C152.96 47.3615 154.281 47.6637 155.332 47.719C158.633 47.8937 161.131 46.257 162.483 44.3267C163.901 42.2754 164.607 39.192 164.278 35.4012L164.278 35.4011C164.092 33.2346 163.861 31.2571 163.315 27.9801C163.247 28.0366 163.152 28.1135 163.033 28.2066C162.77 28.4134 162.388 28.7005 161.914 29.0222C160.98 29.6565 159.688 30.4272 158.241 30.9826V33.0301C159.198 32.6287 160.072 32.146 160.716 31.7569C161.052 31.5537 161.325 31.3763 161.514 31.2499C161.609 31.1866 161.682 31.1361 161.732 31.1015C161.757 31.0842 161.776 31.0708 161.788 31.0619C161.795 31.0574 161.799 31.054 161.803 31.0517L161.807 31.0484Z" fill="#8CFFFF"/>
<path d="M157.298 29.2072H155.223V39.8305H157.298V29.2072Z" fill="url(#paint7_linear)"/>
<path fill-rule="evenodd" clip-rule="evenodd" d="M155.128 29.1142H157.392V39.9235H155.128V29.1142ZM155.317 29.3002V39.7375H157.203V29.3002H155.317Z" fill="#8CFFFF"/>
<path d="M1.27161 61.7449V58.7243L18.1124 16.5959H27.8045L44.7484 58.7243V61.7449H34.9876L31.0695 51.1571H14.4349L10.3794 61.7449H1.27161ZM17.3563 43.5581H28.0794L22.7866 28.8688L17.3563 43.5581Z" fill="#00D9FF"/>
<path d="M47.1494 62.1394V16.9904H78.9407V25.0028H57.0477V35.6859H75.7444V43.3167H57.0477V54.1588H79.0782V62.1394H47.1494Z" fill="#00D9FF"/>
<path d="M81.6185 62.1394V16.9904H102.755C107.636 16.9904 111.371 18.2198 113.96 20.6786C116.572 23.1375 117.878 26.6031 117.878 31.0756C117.878 33.1105 117.557 34.9864 116.915 36.7033C116.274 38.3991 115.357 39.8723 114.166 41.1229C112.974 42.3523 111.542 43.3485 109.87 44.1116L118.84 59.1189V62.1394H109.217L99.0436 45.1608H91.5167V62.1394H81.6185ZM91.5167 37.4664H100.968C105.505 37.4664 107.773 35.3786 107.773 31.2028C107.773 27.0694 105.505 25.0028 100.968 25.0028H91.5167V37.4664Z" fill="#00D9FF"/>
<path d="M194.127 47.1191H203.939C203.939 49.7475 204.904 51.6128 206.835 52.7151C208.765 53.7749 211.025 54.3048 213.615 54.3048C216.113 54.3048 218.055 53.8597 219.44 52.9694C220.849 52.0792 221.553 50.9028 221.553 49.4402C221.553 48.0836 220.769 46.9814 219.202 46.1335C218.293 45.6248 217.374 45.2114 216.442 44.8935C215.92 44.6391 215.341 44.4378 214.705 44.2894C212.116 43.3779 210.639 42.8586 210.276 42.7314L208.3 42.0001C206.937 41.5338 205.813 41.1205 204.927 40.7601C204.041 40.3786 203.167 39.9441 202.304 39.4565C201.441 38.969 200.543 38.4073 199.612 37.7714C196.796 35.7577 195.388 32.9173 195.388 29.2503C195.388 25.117 196.989 21.8209 200.191 19.3621C203.394 16.9032 207.743 15.6738 213.24 15.6738C216.056 15.6738 218.577 15.9812 220.803 16.5959C223.029 17.2106 224.937 18.1326 226.527 19.3621C228.139 20.5915 229.366 22.1812 230.206 24.1313C231.069 26.0602 231.501 28.3071 231.501 30.8719H221.689C221.689 28.5402 220.917 26.8233 219.372 25.7211C217.828 24.5976 215.738 24.0359 213.104 24.0359C211.491 24.0359 210.094 24.2267 208.913 24.6082C207.732 24.9898 206.824 25.5303 206.188 26.2298C205.574 26.9293 205.268 27.7559 205.268 28.7098C205.268 30.13 205.881 31.211 207.107 31.9529C208.084 32.4616 208.811 32.8114 209.288 33.0021C209.424 33.0445 209.572 33.1081 209.731 33.1929C209.912 33.2565 210.06 33.3095 210.174 33.3519C210.31 33.3943 210.412 33.4261 210.48 33.4473L213.376 34.4329L215.352 35.037C216.17 35.2914 217.601 35.7895 219.645 36.5314L223.392 38.0893C224.801 38.6617 225.982 39.3082 226.936 40.0288C228.48 41.1311 229.729 42.4347 230.683 43.9396C231.524 45.275 231.944 46.7482 231.944 48.3591C231.944 48.5499 231.933 48.7513 231.91 48.9633C231.91 53.139 230.252 56.4775 226.936 58.9787C223.62 61.4799 218.998 62.7305 213.07 62.7305C207.573 62.7305 203.042 61.3739 199.476 58.6607C195.91 55.9264 194.127 52.0792 194.127 47.1191Z" fill="#02FF90"/>
<path d="M233.668 24.6082V16.5959H270.633V24.6082H257.073V61.7449H247.261V24.6082H233.668Z" fill="#02FF90"/>
<path d="M265.525 61.6896V58.6691L282.219 16.5407H291.826L308.623 58.6691V61.6896H298.947L295.063 51.1019H278.574L274.553 61.6896H265.525ZM281.469 43.5029H292.099L286.852 28.8135L281.469 43.5029Z" fill="#02FF90"/>
<path d="M311.408 61.7827V16.6337H332.361C337.199 16.6337 340.901 17.8631 343.467 20.3219C346.057 22.7807 347.351 26.2464 347.351 30.7189C347.351 32.7538 347.033 34.6297 346.397 36.3466C345.761 38.0424 344.853 39.5155 343.672 40.7661C342.491 41.9955 341.071 42.9918 339.413 43.7549L348.305 58.7621V61.7827H338.766L328.681 44.8041H321.22V61.7827H311.408ZM321.22 37.1097H330.589C335.086 37.1097 337.335 35.0218 337.335 30.8461C337.335 26.7127 335.086 24.646 330.589 24.646H321.22V37.1097Z" fill="#02FF90"/>
<defs>
<radialGradient id="paint0_radial" cx="0" cy="0" r="1" gradientUnits="userSpaceOnUse" gradientTransform="translate(162.32 73.0868) scale(49.2284 48.5519)">
<stop offset="0.0666667" stop-opacity="0"/>
<stop offset="0.1306" stop-color="#000E0B" stop-opacity="0.0967098"/>
<stop offset="0.2511" stop-color="#003228" stop-opacity="0.279"/>
<stop offset="0.4143" stop-color="#006D56" stop-opacity="0.5258"/>
<stop offset="0.4303" stop-color="#00735B" stop-opacity="0.55"/>
<stop offset="0.511" stop-color="#007C5F" stop-opacity="0.6138"/>
<stop offset="0.6447" stop-color="#01966B" stop-opacity="0.7194"/>
<stop offset="0.8148" stop-color="#01BF7E" stop-opacity="0.8537"/>
<stop offset="1" stop-color="#02F396"/>
</radialGradient>
<linearGradient id="paint1_linear" x1="150.644" y1="43.3915" x2="171.675" y2="33.723" gradientUnits="userSpaceOnUse">
<stop stop-color="#BDFFB5" stop-opacity="0"/>
<stop offset="0.1228" stop-color="#B9FEB6" stop-opacity="0.1333"/>
<stop offset="0.2571" stop-color="#ABFABA" stop-opacity="0.2791"/>
<stop offset="0.3969" stop-color="#95F4BF" stop-opacity="0.4309"/>
<stop offset="0.5406" stop-color="#77ECC8" stop-opacity="0.5868"/>
<stop offset="0.6871" stop-color="#4FE1D2" stop-opacity="0.7459"/>
<stop offset="0.834" stop-color="#20D4DF" stop-opacity="0.9054"/>
<stop offset="0.9212" stop-color="#00CBE7"/>
</linearGradient>
<linearGradient id="paint2_linear" x1="157.27" y1="25.952" x2="158.766" y2="80.8828" gradientUnits="userSpaceOnUse">
<stop stop-color="#00D9FF" stop-opacity="0"/>
<stop offset="0.1515" stop-color="#00D9FF" stop-opacity="0.25"/>
<stop offset="0.3636" stop-color="#00D9FF" stop-opacity="0.8639"/>
<stop offset="0.6727" stop-color="#00D9FF" stop-opacity="0.9356"/>
<stop offset="1" stop-color="#00D9FF" stop-opacity="0.48"/>
</linearGradient>
<linearGradient id="paint3_linear" x1="146.404" y1="26.952" x2="186.403" y2="54.0176" gradientUnits="userSpaceOnUse">
<stop stop-color="#02FF9C" stop-opacity="0"/>
<stop offset="0.4121" stop-color="#02FF9C" stop-opacity="0.02"/>
<stop offset="1" stop-color="#02FF9C"/>
</linearGradient>
<linearGradient id="paint4_linear" x1="146.353" y1="49.1071" x2="168.915" y2="6.7571" gradientUnits="userSpaceOnUse">
<stop stop-color="#00D9FF" stop-opacity="0"/>
<stop offset="0.2545" stop-color="#00D9FF" stop-opacity="0.01"/>
<stop offset="0.5636" stop-color="#00D9FF" stop-opacity="0.8871"/>
<stop offset="0.9212" stop-color="#00D9FF"/>
</linearGradient>
<linearGradient id="paint5_linear" x1="117.741" y1="43.8309" x2="164.136" y2="3.77004" gradientUnits="userSpaceOnUse">
<stop offset="0.2" stop-color="#02FF9C"/>
<stop offset="0.2599" stop-color="#0FFFA1" stop-opacity="0.9101"/>
<stop offset="0.3704" stop-color="#31FFAE" stop-opacity="0.7444"/>
<stop offset="0.5193" stop-color="#68FFC4" stop-opacity="0.5211"/>
<stop offset="0.6986" stop-color="#B3FFE1" stop-opacity="0.2522"/>
<stop offset="0.8667" stop-color="white" stop-opacity="0"/>
</linearGradient>
<linearGradient id="paint6_linear" x1="152.075" y1="49.7034" x2="157.749" y2="34.6868" gradientUnits="userSpaceOnUse">
<stop stop-color="#00D9FF"/>
<stop offset="1" stop-color="#02FF9C"/>
</linearGradient>
<linearGradient id="paint7_linear" x1="150.581" y1="49.1393" x2="156.256" y2="34.1225" gradientUnits="userSpaceOnUse">
<stop stop-color="#00D9FF"/>
<stop offset="1" stop-color="#02FF9C"/>
</linearGradient>
</defs>
</svg>
