<svg width="20" height="20" viewBox="0 0 20 20" fill="none" xmlns="http://www.w3.org/2000/svg">
<path d="M10.0308 11.0914C7.7999 11.0914 5.98495 9.27649 5.98495 7.04556C5.98495 4.81495 7.7999 3 10.0308 3C12.2618 3 14.0767 4.81495 14.0767 7.04556C14.0767 9.27649 12.2618 11.0914 10.0308 11.0914ZM10.0308 4.09944C8.40626 4.09944 7.0844 5.42131 7.0844 7.04556C7.0844 8.67013 8.40626 9.992 10.0308 9.992C11.6554 9.992 12.9773 8.67013 12.9773 7.04556C12.9773 5.42099 11.6554 4.09944 10.0308 4.09944Z" fill="#828282"/>
<path d="M3.54979 17.1877C3.48792 17.1877 3.42509 17.1773 3.36386 17.1547C3.07829 17.0522 2.92979 16.7375 3.0326 16.4516C4.09079 13.509 6.90333 11.5316 10.0313 11.5316C13.1589 11.5316 15.9711 13.5086 17.0296 16.4516C17.1321 16.7372 16.9836 17.0522 16.6983 17.1547C16.4128 17.2575 16.0974 17.109 15.9946 16.8235C15.0928 14.3162 12.6966 12.631 10.0313 12.631C7.36595 12.631 4.96907 14.3162 4.06731 16.8235C3.9864 17.0478 3.77507 17.1877 3.54979 17.1877Z" fill="#828282"/>
</svg>
