<svg width="29" height="37" viewBox="0 0 29 37" fill="none" xmlns="http://www.w3.org/2000/svg">
<path d="M24 36H5V1H24V36Z" stroke="#FE6A49" stroke-width="2"/>
<path d="M19 32H10C9.44772 32 9 31.5523 9 31V27C9 26.4477 9.44519 26 9.99748 26H19.0017C19.554 26 20 26.4477 20 27V31C20 31.5523 19.5523 32 19 32Z" stroke="#FE6A49" stroke-width="2"/>
<path d="M19 16H10C9.44772 16 9 15.5523 9 15V6C9 5.44772 9.44519 5 9.99748 5H19.0017C19.554 5 20 5.44771 20 6V15C20 15.5523 19.5523 16 19 16Z" stroke="#FE6A49" stroke-width="2"/>
<circle cx="20" cy="21" r="1" stroke="#FE6A49" stroke-width="2"/>
<path d="M0 36L29 36" stroke="#FE6A49" stroke-width="2"/>
</svg>
