<svg width="108" height="168" viewBox="0 0 108 168" fill="none" xmlns="http://www.w3.org/2000/svg">
<path d="M45.8267 74.247C66.2968 74.247 82.891 57.6262 82.891 37.1235C82.891 16.6208 66.2968 0 45.8267 0C25.3567 0 8.76242 16.6208 8.76242 37.1235C8.76242 57.6262 25.3567 74.247 45.8267 74.247Z" fill="url(#paint0_linear)"/>
<path d="M44.7742 34.6391L80.786 9.33789L107.4 21.2355L107.37 47.6662L68.3059 51.0547L47.1048 41.115L44.7742 34.6391Z" fill="#F2F0DF"/>
<path opacity="0.11" d="M44.7742 34.6391L80.786 9.33789L107.4 21.2355L107.37 47.6662L68.3059 51.0547L47.1048 41.115L44.7742 34.6391Z" fill="url(#paint1_linear)"/>
<path d="M107.37 129.216V46.234L84.5151 32.6798L65.1184 45.0292L28.5803 26.3545L0.161804 46.6858L0.312167 129.216C0.312167 129.216 12.1908 167.469 53.6908 167.469C95.1908 167.469 107.37 129.216 107.37 129.216Z" fill="url(#paint2_linear)"/>
<path opacity="0.29" d="M107.37 129.216V46.234L84.5151 32.6798L65.1184 45.0292L28.5803 26.3545L0.161804 46.6858L0.312167 129.216C0.312167 129.216 12.1908 167.469 53.6908 167.469C95.1908 167.469 107.37 129.216 107.37 129.216Z" fill="url(#paint3_linear)"/>
<path d="M80.3349 65.3007L83.267 68.6893L84.515 67.9061L80.3349 63.0718V61.4604L83.2971 64.879L84.5451 64.0959L79.523 58.2676L74.0799 64.5778L75.3279 65.3609L78.681 61.4604V63.0266L74.0799 68.373L75.3279 69.1411L78.681 65.2555V66.8369L74.0799 72.1832L75.3279 72.9664L78.681 69.0658V77.1079H80.3349V69.0808L83.3121 72.5296L84.5752 71.7465L80.3349 66.8519V65.3007Z" fill="url(#paint4_linear)"/>
<path d="M98.0777 96.9277L101.01 100.316L102.258 99.5331L98.0777 94.6988V93.0873L101.04 96.506L102.288 95.7228L97.2657 89.8945L91.8226 96.2048L93.0706 96.9879L96.4237 93.0873V94.6536L91.8226 99.9999L93.0706 100.768L96.4237 96.8825V98.4638L91.8226 103.81L93.0706 104.593L96.4237 100.693V108.735H98.0777V100.708L101.055 104.157L102.318 103.373L98.0777 98.4789V96.9277Z" fill="url(#paint5_linear)"/>
<path d="M32.4594 78.283H34.1134V69.3824L37.4665 73.2529L38.7145 72.4698L34.1134 67.1384V65.2559L37.4665 69.1264L38.7145 68.3433L34.1134 63.027V61.0541L37.4966 64.9698L38.7446 64.1866L33.3014 57.8613L27.4373 64.6535L28.6853 65.4366L32.4594 61.0541V62.9818L27.4674 68.7649L28.7154 69.5481L32.4594 65.2107V67.1234L27.4674 72.9216L28.7154 73.7047L32.4594 69.3674V78.283Z" fill="url(#paint6_linear)"/>
<path d="M44.4435 119.202H46.0975V110.286L49.4505 114.172L50.6986 113.389L46.0975 108.057V106.16L49.4505 110.045L50.6986 109.262L46.0975 103.931V101.973L49.4806 105.874L50.7286 105.091L45.2705 98.7803L39.4214 105.572L40.6694 106.356L44.4435 101.973V103.886L39.4515 109.684L40.6995 110.467L44.4435 106.115V108.042L39.4364 113.841L40.6995 114.624L44.4435 110.271V119.202Z" fill="url(#paint7_linear)"/>
<path d="M34.8802 155.647H36.5342V146.732L39.8723 150.617L41.1353 149.834L36.5342 144.503V142.605L39.8723 146.491L41.1203 145.708L36.5342 140.376V138.418L39.9023 142.319L41.1503 141.536L35.7072 135.226L29.8431 142.018L31.0911 142.801L34.8802 138.418V140.331L29.8732 146.129L31.1212 146.912L34.8802 142.56V144.488L29.8732 150.286L31.1212 151.069L34.8802 146.717V155.647Z" fill="url(#paint8_linear)"/>
<path d="M105.596 133.599C79.5681 121.792 90.0484 114.397 86.5149 95.647C81.5078 69.1109 45.7667 70.1952 65.1634 45.0446C65.1785 45.0295 65.1935 45.0145 65.1935 44.9994L65.1183 45.0446L61.2239 43.0566C51.691 47.8307 26.8812 67.7253 48.0071 87.5145C77.2826 114.924 32.2792 120.873 64.998 166.43C64.998 166.445 65.0131 166.445 65.0131 166.46C89.883 161.792 101.521 142.394 105.596 133.599Z" fill="url(#paint9_linear)"/>
<path d="M24.7009 61.2951H26.5053V60.542L0.161804 50.3613L0.312167 129.232C0.312167 129.232 6.28155 148.434 24.5205 159.623L21.5433 77.4095H24.7009V61.2951Z" fill="#875A48"/>
<path opacity="0.28" d="M24.7009 61.2951H26.5053V60.542L0.161804 50.3613L0.312167 129.232C0.312167 129.232 6.28155 148.434 24.5205 159.623L21.5433 77.4095H24.7009V61.2951Z" fill="url(#paint10_linear)"/>
<path opacity="0.37" d="M24.7009 61.2951H26.5053V60.542L0.161804 50.3613L0.312167 129.232C0.312167 129.232 6.28155 148.434 24.5205 159.623L21.5433 77.4095H24.7009V61.2951Z" fill="url(#paint11_linear)"/>
<path d="M0.221798 78.433H21.5883L21.5582 77.424H24.7158V76.174H17.1526V69.171C17.1526 69.171 17.6638 66.3848 13.7544 66.3848C9.84499 66.3848 10.1908 69.171 10.1908 69.171V76.174H4.01093L4.041 69.171C4.041 69.171 4.02597 66.2041 0.552597 66.2041C0.432307 66.2041 0.327046 66.2192 0.206757 66.2643L0.221798 78.433Z" fill="#59392B"/>
<defs>
<linearGradient id="paint0_linear" x1="29.0558" y1="4.91115" x2="49.2774" y2="43.6183" gradientUnits="userSpaceOnUse">
<stop stop-color="#FF8B61"/>
<stop offset="0.158" stop-color="#F8785C"/>
<stop offset="0.7301" stop-color="#E2374A"/>
<stop offset="1" stop-color="#D91E43"/>
</linearGradient>
<linearGradient id="paint1_linear" x1="44.5753" y1="66.159" x2="96.1641" y2="25.333" gradientUnits="userSpaceOnUse">
<stop stop-color="#00FFFF"/>
<stop offset="1" stop-color="#00FFFF" stop-opacity="0"/>
</linearGradient>
<linearGradient id="paint2_linear" x1="53.7654" y1="156.937" x2="53.7654" y2="46.882" gradientUnits="userSpaceOnUse">
<stop stop-color="#A1D676"/>
<stop offset="1" stop-color="#B3E08E"/>
</linearGradient>
<linearGradient id="paint3_linear" x1="53.7654" y1="22.6557" x2="53.7654" y2="71.9627" gradientUnits="userSpaceOnUse">
<stop stop-color="#FF2411"/>
<stop offset="0.6358" stop-color="#FF5906" stop-opacity="0.3642"/>
<stop offset="1" stop-color="#FF7200" stop-opacity="0"/>
</linearGradient>
<linearGradient id="paint4_linear" x1="79.3233" y1="58.3636" x2="79.3233" y2="77.2076" gradientUnits="userSpaceOnUse">
<stop stop-color="#456E4E"/>
<stop offset="0.00682053" stop-color="#456D4E"/>
<stop offset="0.368" stop-color="#3A5649"/>
<stop offset="0.7058" stop-color="#344846"/>
<stop offset="0.9944" stop-color="#324345"/>
</linearGradient>
<linearGradient id="paint5_linear" x1="97.066" y1="89.9905" x2="97.066" y2="108.835" gradientUnits="userSpaceOnUse">
<stop stop-color="#456E4E"/>
<stop offset="0.00682053" stop-color="#456D4E"/>
<stop offset="0.368" stop-color="#3A5649"/>
<stop offset="0.7058" stop-color="#344846"/>
<stop offset="0.9944" stop-color="#324345"/>
</linearGradient>
<linearGradient id="paint6_linear" x1="33.0923" y1="58.2134" x2="33.0923" y2="78.5464" gradientUnits="userSpaceOnUse">
<stop stop-color="#456E4E"/>
<stop offset="0.00682053" stop-color="#456D4E"/>
<stop offset="0.368" stop-color="#3A5649"/>
<stop offset="0.7058" stop-color="#344846"/>
<stop offset="0.9944" stop-color="#324345"/>
</linearGradient>
<linearGradient id="paint7_linear" x1="45.0728" y1="99.1253" x2="45.0728" y2="119.458" gradientUnits="userSpaceOnUse">
<stop stop-color="#456E4E"/>
<stop offset="0.00682053" stop-color="#456D4E"/>
<stop offset="0.368" stop-color="#3A5649"/>
<stop offset="0.7058" stop-color="#344846"/>
<stop offset="0.9944" stop-color="#324345"/>
</linearGradient>
<linearGradient id="paint8_linear" x1="35.4995" y1="135.571" x2="35.4995" y2="155.904" gradientUnits="userSpaceOnUse">
<stop stop-color="#456E4E"/>
<stop offset="0.00682053" stop-color="#456D4E"/>
<stop offset="0.368" stop-color="#3A5649"/>
<stop offset="0.7058" stop-color="#344846"/>
<stop offset="0.9944" stop-color="#324345"/>
</linearGradient>
<linearGradient id="paint9_linear" x1="39.9929" y1="104.748" x2="81.9115" y2="104.748" gradientUnits="userSpaceOnUse">
<stop stop-color="#69ACE8"/>
<stop offset="0.3245" stop-color="#72B0E6"/>
<stop offset="0.8624" stop-color="#8CBAE1"/>
<stop offset="0.9944" stop-color="#93BDE0"/>
</linearGradient>
<linearGradient id="paint10_linear" x1="3.33096" y1="107.258" x2="39.1814" y2="98.2556" gradientUnits="userSpaceOnUse">
<stop stop-color="#120F0C"/>
<stop offset="0.2158" stop-color="#2D2A28" stop-opacity="0.7842"/>
<stop offset="0.7485" stop-color="#6A6969" stop-opacity="0.2515"/>
<stop offset="1" stop-color="#828282" stop-opacity="0"/>
</linearGradient>
<linearGradient id="paint11_linear" x1="5.36003" y1="106.248" x2="27.0945" y2="102.338" gradientUnits="userSpaceOnUse">
<stop stop-color="#301A00" stop-opacity="0"/>
<stop offset="0.1163" stop-color="#361E03" stop-opacity="0.1163"/>
<stop offset="0.2666" stop-color="#46280A" stop-opacity="0.2666"/>
<stop offset="0.4355" stop-color="#603A16" stop-opacity="0.4355"/>
<stop offset="0.6181" stop-color="#865327" stop-opacity="0.6181"/>
<stop offset="0.8094" stop-color="#B5723C" stop-opacity="0.8094"/>
<stop offset="1" stop-color="#EB9655"/>
</linearGradient>
</defs>
</svg>
