<svg width="47" height="118" viewBox="0 0 47 118" fill="none" xmlns="http://www.w3.org/2000/svg">
<path d="M10.1588 22.8528C10.1588 25.8265 10.1588 39.0991 10.1588 39.0991H0V58.9652H10.1588V118H31.0271V58.9668H45.0308C45.0308 58.9668 46.3423 49.4412 46.978 39.0259C45.1553 39.0259 31.106 39.0259 31.106 39.0259C31.106 39.0259 31.106 27.4685 31.106 25.4427C31.106 23.4125 33.3813 20.6817 35.6301 20.6817C37.8748 20.6817 42.6122 20.6817 47 20.6817C47 17.9769 47 8.63124 47 7.09641e-08C41.1424 7.09641e-08 34.4783 7.09641e-08 31.5409 7.09641e-08C9.64296 -0.00137166 10.1588 19.8844 10.1588 22.8528Z" fill="#4F99DD"/>
</svg>
