<svg width="9" height="23" viewBox="0 0 9 23" fill="none" xmlns="http://www.w3.org/2000/svg">
    <path d="M1.9453 4.34365C1.9453 4.90885 1.9453 7.43159 1.9453 7.43159H0V11.2075H1.9453V22.4283H5.94137V11.2079H8.62291C8.62291 11.2079 8.87405 9.39731 8.99579 7.41767C8.64677 7.41767 5.95648 7.41767 5.95648 7.41767C5.95648 7.41767 5.95648 5.22094 5.95648 4.8359C5.95648 4.45003 6.39217 3.93097 6.82279 3.93097C7.25261 3.93097 8.15978 3.93097 9 3.93097C9 3.41687 9 1.64054 9 1.34882e-08C7.87833 1.34882e-08 6.60224 1.34882e-08 6.03974 1.34882e-08C1.84652 -0.000260713 1.9453 3.77944 1.9453 4.34365Z" fill="white" />
</svg>
