<svg width="21" height="37" viewBox="0 0 21 37" fill="none" xmlns="http://www.w3.org/2000/svg">
<path d="M5 11H7.5H10C12.2091 11 14 12.7909 14 15V19.3003C14 20.8605 13.4788 22.3759 12.5191 23.606L11.9688 24.3115L11.3503 33.208C11.241 34.7804 9.93367 36 8.35755 36H7.5H6.64245C5.06633 36 3.75897 34.7804 3.64967 33.208L3.03125 24.3115L2.48089 23.606C1.52122 22.3759 1 20.8605 1 19.3003V15C1 12.7909 2.79086 11 5 11Z" stroke="#BDBDBD" stroke-width="2"/>
<circle cx="7.5" cy="4.5" r="3.5" stroke="#BDBDBD" stroke-width="2"/>
<path d="M16.5217 11L17.0852 11.1588C18.8092 11.6447 20 13.2176 20 15.0088V19.1697C20 20.8096 19.4243 22.3974 18.3733 23.6561L17.8261 24.3115L16.9603 33.6625C16.8574 34.7739 16.0765 35.7051 15 36V36" stroke="#BDBDBD" stroke-width="2"/>
<path d="M14 8C15.6569 8 17 6.433 17 4.5C17 2.567 15.6569 1 14 1" stroke="#BDBDBD" stroke-width="2"/>
</svg>
