<svg width="27" height="37" viewBox="0 0 27 37" fill="none" xmlns="http://www.w3.org/2000/svg">
<path d="M1 17.9553C1 11.5526 3.51282 4.57215 5.9359 1.90437C8.35897 -0.763415 15 3.32056 15 3.32056L12.6667 11.8181L8 12.2902V24.5644L12.6667 25.5086L15 33.5341C15 33.5341 8.35897 37.9624 5.9359 34.9504C3.51282 31.9384 1 24.358 1 17.9553Z" stroke="#FE6A49" stroke-width="2"/>
<path d="M16 16C17.5621 17.5621 17.5621 20.0948 16 21.6569" stroke="#FE6A49" stroke-width="2" stroke-linecap="round"/>
<path d="M18.1714 11C22.1714 15.1421 22.1714 21.8579 18.1714 26" stroke="#FE6A49" stroke-width="2" stroke-linecap="round"/>
<path d="M20.1714 6C26.8381 12.9036 26.8381 24.0964 20.1714 31" stroke="#FE6A49" stroke-width="2" stroke-linecap="round"/>
</svg>
