<svg width="25" height="18" viewBox="0 0 25 18" fill="none" xmlns="http://www.w3.org/2000/svg">
    <path d="M23.9375 1.65625C23.2594 0.45 22.5234 0.228125 21.025 0.14375C19.5281 0.0421875 15.7641 0 12.5031 0C9.23594 0 5.47031 0.0421876 3.975 0.142188C2.47969 0.228125 1.74219 0.448437 1.05781 1.65625C0.359375 2.86094 0 4.93594 0 8.58906C0 8.59219 0 8.59375 0 8.59375C0 8.59688 0 8.59844 0 8.59844V8.60156C0 12.2391 0.359375 14.3297 1.05781 15.5219C1.74219 16.7281 2.47813 16.9469 3.97344 17.0484C5.47031 17.1359 9.23594 17.1875 12.5031 17.1875C15.7641 17.1875 19.5281 17.1359 21.0266 17.05C22.525 16.9484 23.2609 16.7297 23.9391 15.5234C24.6437 14.3313 25 12.2406 25 8.60312C25 8.60312 25 8.59844 25 8.59531C25 8.59531 25 8.59219 25 8.59062C25 4.93594 24.6437 2.86094 23.9375 1.65625ZM9.375 13.2812V3.90625L17.1875 8.59375L9.375 13.2812Z" fill="white" />
</svg>