<svg xmlns="http://www.w3.org/2000/svg" width="72" height="72" viewBox="0 0 72 72">
    <g fill="none" fill-rule="evenodd">
        <g>
            <g>
                <g transform="translate(-867 -102) translate(830 102) translate(37)">
                    <circle cx="36" cy="36" r="36" fill="#D3D8DD"/>
                    <path fill="#FFF" fill-rule="nonzero" d="M55.295 57.851c-2.729-3.229-2.619-5.691-8.529-6.696-.578-3.461.39-5.078.363-5.123.45-.211.993-.283 1.613-.146.756.17 1.272.571 1.585 1.079.091.148.323.098.35-.074.039-.252.027-.527-.059-.832-.216-.759-.807-1.39-1.577-1.556-.503-.107-1.003-.024-1.425.2.391-.338.878-.614 1.471-.807 1.28-.41 2.396-.21 3.264.344.147.093.327-.042.28-.21-.145-.521-.432-1.032-.964-1.501-.896-.788-2.143-1.13-3.276-.755-.365.121-.697.301-.986.524l.065-.081c.835-.981 1.838-1.405 2.827-1.429.215-.005.311-.284.146-.423-.351-.292-.783-.522-1.344-.642-1.262-.269-2.59.109-3.392 1.119-.288.361-.488.768-.604 1.188-.34-.275-.738-.488-1.184-.614-1.24-.352-2.539.116-3.407 1.069-.375.411-.592.84-.707 1.269-.06.221.194.4.385.274.813-.544 1.864-.776 3.101-.47.034.01.067.019.101.027-.365-.014-.739.034-1.108.149-1.139.355-1.953 1.359-2.222 2.522-.154.67-.098 1.239.076 1.735.063.18.311.184.385.008.391-.938 1.174-1.731 2.434-2.136.593-.191 1.15-.25 1.664-.204-.475.063-.929.288-1.274.669-.53.584-.641 1.439-.374 2.183.107.3.261.532.441.715.12.123.336.029.323-.142-.045-.597.142-1.217.657-1.797.397-.445.849-.731 1.307-.795-.001 0-1.275 1.783-1.174 4.356-1.209-.124-2.451-.193-3.719-.193-3.105 0-6.058.387-8.73 1.088.554-12.073-1.016-23.071-1.007-23.111.915.604 1.688 1.531 2.188 2.832.651 1.69.539 3.221-.05 4.485-.169.362.227.745.591.576.544-.252 1.069-.633 1.551-1.198 1.193-1.401 1.656-3.363.979-5.073-.442-1.116-1.251-1.979-2.232-2.51 1.16.322 2.329.909 3.468 1.812 2.418 1.921 3.475 4.301 3.558 6.666.016.444.561.643.846.301.787-.94 1.38-2.138 1.593-3.729.37-2.761-.58-5.622-2.775-7.337-.71-.556-1.487-.967-2.297-1.239l.243.025c2.952.345 5.058 1.715 6.386 3.572.31.433 1.013.248 1.063-.281.103-1.032-.021-2.146-.501-3.354-1.11-2.796-3.562-4.884-6.561-5.138-1.076-.091-2.123.045-3.091.366.095-1.016-.011-2.063-.342-3.089-.923-2.864-3.51-4.781-6.484-5.234-1.319-.2-2.458-.056-3.46.296-.474.166-.496.855-.031 1.043 2.142.864 3.983 2.612 4.999 5.444.028.077.054.154.079.23-.448-.727-1.024-1.392-1.726-1.957-2.167-1.751-5.169-2.03-7.774-1.047-1.548.584-2.596 1.468-3.339 2.484-.24.328.042.771.439.688 2.354-.491 4.952-.016 7.408 1.938 1.138.904 1.975 1.909 2.551 2.968-.738-.838-1.763-1.43-2.95-1.607-1.819-.273-3.626.62-4.721 2.101-.439.592-.689 1.185-.813 1.768-.084.396.383.698.703.449 1.098-.854 2.559-1.305 4.348-1.053 1.469.207 2.596.81 3.404 1.641-.144.123-2.522 6.892-3.917 25.934-.358.34-8.061 4.27-8.061 5.414 0 .997-.093 1.811.838 1.811h37.266c.917.005 1.441-1.077.848-1.779z"/>
                </g>
            </g>
        </g>
    </g>
</svg>
