<svg xmlns="http://www.w3.org/2000/svg" width="20" height="21" viewBox="0 0 20 21">
    <g fill="none" fill-rule="evenodd">
        <g fill="#C2CFE0" fill-rule="nonzero">
            <g>
                <path d="M8 8c2.21 0 4-1.79 4-4s-1.79-4-4-4-4 1.79-4 4 1.79 4 4 4zm0 2c-2.67 0-8 1.34-8 4v2h16v-2c0-2.66-5.33-4-8-4z" transform="translate(-307 -62) translate(307 62)"/>
                <path stroke="#FFF" stroke-width="1.5" d="M17.993 14.923h0l.007-.005c.366-.293.442-.794.241-1.173l-.007-.012-.006-.012-.739-1.279c-.248-.438-.743-.547-1.115-.423l-.022.007-.021.008-.554.223-.025-.014-.084-.59h0v-.006c-.072-.474-.478-.796-.927-.796H13.26c-.473 0-.855.345-.923.796h0l-.001.006-.083.59-.024.014-.555-.223h0l-.008-.003c-.426-.165-.918.002-1.15.411l-.739 1.279h0l-.006.011c-.215.387-.142.898.244 1.194l.458.358V15.321l-.466.364h0L10 15.69c-.366.293-.442.793-.241 1.173l.007.012.007.012.738 1.279c.248.437.743.547 1.116.423l.021-.007.021-.009.554-.222.025.014.084.59.003.021.004.021c.083.415.442.76.921.76h1.481c.435 0 .864-.313.924-.812l.082-.581.025-.014.554.223h0l.008.003c.426.166.918-.001 1.15-.41l.739-1.279h0l.006-.011c.215-.386.142-.896-.242-1.192l-.46-.364v-.016-.017l.466-.364zM14 15.943c-.349 0-.638-.29-.638-.639 0-.35.289-.639.638-.639.35 0 .639.289.639.639 0 .349-.289.639-.639.639z" transform="translate(-307 -62) translate(307 62)"/>
            </g>
        </g>
    </g>
</svg>
