<svg xmlns="http://www.w3.org/2000/svg" width="16" height="16" viewBox="0 0 16 16">
    <g fill="none" fill-rule="evenodd">
        <g>
            <g>
                <path d="M0 0H16V16H0z" transform="translate(-24 -402) translate(24 402)"/>
                <path fill="#C2CFE0" fill-rule="nonzero" d="M15.898 16H0v-2.974c0-.616.306-1.231.917-1.744.51-.513 1.223-.923 2.14-1.23 1.63-.719 3.67-1.026 4.892-1.026 1.223 0 3.261.307 4.994 1.025.917.41 1.63.82 2.14 1.231.611.513.917 1.128.917 1.744V16h-.102zM1.427 14.564H14.47v-1.538c0-.205-.102-.41-.407-.718-.408-.308-.918-.718-1.63-.923-1.53-.616-3.364-.923-4.383-.923-1.121 0-2.854.307-4.382.923-.815.205-1.427.615-1.835.923-.305.205-.407.513-.407.718v1.538zM7.949 8c-2.14 0-3.974-1.744-3.974-4 0-2.256 1.834-4 3.974-4s3.975 1.744 3.975 4c0 2.256-1.835 4-3.975 4zm0-6.564C6.522 1.436 5.401 2.564 5.401 4c0 1.436 1.121 2.564 2.548 2.564S10.497 5.436 10.497 4c0-1.436-1.121-2.564-2.548-2.564z" transform="translate(-24 -402) translate(24 402)"/>
            </g>
        </g>
    </g>
</svg>
