<svg xmlns="http://www.w3.org/2000/svg" width="16" height="16" viewBox="0 0 16 16">
    <g fill="none" fill-rule="evenodd">
        <g>
            <g>
                <path d="M0 0H16V16H0z" transform="translate(-24 -700) translate(24 700)"/>
                <path fill="#C2CFE0" fill-rule="nonzero" d="M4.226 4.76c.312.312.312.808 0 1.12L2.706 7.4h7.36c.44 0 .8.36.8.8 0 .44-.36.8-.8.8h-7.36l1.52 1.52c.312.312.312.808 0 1.12-.312.312-.808.312-1.12 0L.234 8.768c-.312-.312-.312-.816 0-1.128l2.872-2.88c.312-.312.808-.312 1.12 0zM14.4 13.8H8.8c-.44 0-.8.36-.8.8 0 .44.36.8.8.8h5.6c.88 0 1.6-.72 1.6-1.6V2.6c0-.88-.72-1.6-1.6-1.6H8.8c-.44 0-.8.36-.8.8 0 .44.36.8.8.8h5.6v11.2z" transform="translate(-24 -700) translate(24 700)"/>
            </g>
        </g>
    </g>
</svg>
