<svg xmlns="http://www.w3.org/2000/svg" width="24" height="24" viewBox="0 0 24 24">
    <g fill="none" fill-rule="evenodd">
        <g>
            <g>
                <g transform="translate(-304 -320) translate(288 317) translate(17 4)">
                    <path fill="#C2CFE0" fill-rule="nonzero" stroke="#FFF" stroke-width="2" d="M21.097 10.059h0l.018-.012c.925-.724 1.117-1.962.609-2.898l-.018-.03-.015-.03-1.869-3.159c-.627-1.082-1.878-1.351-2.82-1.045l-.055.018-.053.02-1.4.55c-.021-.012-.044-.025-.064-.034l-.212-1.458h0v-.015C15.035.796 14.008 0 12.873 0H9.128C7.932 0 6.966.852 6.794 1.966h0l-.002.015-.21 1.458c-.02.012-.04.024-.06.034l-1.404-.55h0l-.02-.008C4.02 2.507 2.775 2.92 2.188 3.93L.321 7.09h0l-.016.027c-.543.956-.359 2.218.617 2.95l1.159.884v.091l-1.179.9h0l-.018.012c-.925.723-1.117 1.959-.609 2.897l.018.03.017.03 1.867 3.159c.627 1.08 1.879 1.351 2.822 1.045l.053-.017.053-.023 1.4-.548c.024.012.044.022.064.035l.213 1.457.007.052.01.052C7.01 21.148 7.917 22 9.13 22h3.744c1.1 0 2.185-.773 2.337-2.006l.207-1.435c.02-.01.043-.022.063-.034l1.401.55h0l.02.008c1.078.41 2.322-.003 2.909-1.013l1.868-3.16h0l.016-.027c.543-.953.359-2.213-.612-2.944l-1.164-.9V11v-.042l1.179-.9zM11 12.579c-.883 0-1.614-.717-1.614-1.579 0-.864.731-1.578 1.614-1.578.885 0 1.615.714 1.615 1.578 0 .862-.73 1.579-1.615 1.579z"/>
                    <circle cx="11" cy="11" r="4" fill="#FFF"/>
                </g>
            </g>
        </g>
    </g>
</svg>
