<svg xmlns="http://www.w3.org/2000/svg" width="16" height="16" viewBox="0 0 16 16">
    <g fill="none" fill-rule="evenodd">
        <g>
            <g>
                <path d="M0 0H16V16H0z" transform="translate(-24 -246) translate(24 246)"/>
                <path fill="#C2CFE0" fill-rule="nonzero" d="M14.933 16H9.952c-.59 0-1.067-.478-1.067-1.067V8.181c0-.589.478-1.066 1.067-1.066h4.981c.59 0 1.067.477 1.067 1.066v6.752c0 .59-.478 1.067-1.067 1.067zm-4.554-1.493h4.128V8.608h-4.128v5.899zM6.048 16H1.067C.477 16 0 15.522 0 14.933v-3.2c0-.589.478-1.066 1.067-1.066h4.981c.59 0 1.067.477 1.067 1.066v3.2c0 .59-.478 1.067-1.067 1.067zm-4.555-1.493h4.128V12.16H1.493v2.347zm4.555-5.622H1.067C.477 8.885 0 8.408 0 7.82V1.067C0 .477.478 0 1.067 0h4.981c.59 0 1.067.478 1.067 1.067v6.752c0 .589-.478 1.066-1.067 1.066zM1.493 7.392h4.128V1.493H1.493v5.899zm13.44-2.059H9.952c-.59 0-1.067-.477-1.067-1.066v-3.2C8.885.477 9.363 0 9.952 0h4.981C15.523 0 16 .478 16 1.067v3.2c0 .589-.478 1.066-1.067 1.066zM10.38 3.84h4.128V1.493h-4.128V3.84z" transform="translate(-24 -246) translate(24 246)"/>
            </g>
        </g>
    </g>
</svg>
