<svg xmlns="http://www.w3.org/2000/svg" width="18" height="18" viewBox="0 0 18 18">
    <g fill="none" fill-rule="evenodd">
        <g>
            <g>
                <path d="M1 1H17V17H1z" transform="translate(-719 -711) translate(719 711)"/>
                <path fill="#C2CFE0" fill-rule="nonzero" d="M11.91 4.636V13c0 1.607-1.31 2.909-2.91 2.909-1.61 0-2.91-1.302-2.91-2.909V3.909c0-1.004.81-1.818 1.82-1.818 1 0 1.81.814 1.81 1.818v7.636c0 .4-.32.728-.72.728-.4 0-.73-.328-.73-.728V4.636H7.18v6.909c0 1.004.81 1.819 1.82 1.819 1 0 1.81-.815 1.81-1.819V3.909C10.81 2.302 9.51 1 7.91 1 6.3 1 5 2.302 5 3.909V13c0 2.211 1.79 4 4 4s4-1.789 4-4V4.636h-1.09z" transform="translate(-719 -711) translate(719 711) rotate(41 9 9)"/>
            </g>
        </g>
    </g>
</svg>
