<?xml version="1.0" encoding="UTF-8"?>
<svg width="16px" height="16px" viewBox="0 0 16 16" version="1.1" xmlns="http://www.w3.org/2000/svg" xmlns:xlink="http://www.w3.org/1999/xlink">
    <title>C5C05BA8-3509-44B8-BD7C-717C8728EC86</title>
    <g id="Page-1" stroke="none" stroke-width="1" fill="none" fill-rule="evenodd">
        <g id="Settings-01" transform="translate(-24.000000, -351.000000)">
            <g id="Group-5" transform="translate(24.000000, 350.000000)">
                <g id="Icons-/-Chat" transform="translate(0.000000, 1.000000)">
                    <rect id="boundary" x="0" y="0" width="16" height="16"></rect>
                    <path d="M0.000112055209,16 L0.000112055209,1.69420555 C-0.00512164285,1.24332917 0.173171604,0.809369966 0.494762221,0.490530152 C0.816352838,0.171690339 1.25405604,-0.00507783364 1.70882237,0.000111096718 L14.3208085,0.000111096718 C14.7704459,0.00280357781 15.2004836,0.183046211 15.5156376,0.501018439 C15.8307916,0.818990666 16.0050395,1.2484374 15.999889,1.69420555 L15.999889,11.0747333 C15.9890138,11.9880178 15.2420199,12.7242657 14.3208085,12.7295446 L3.28902424,12.7295446 L0.000112055209,16 Z M1.57055471,1.55712059 C1.53401776,1.58894327 1.51556164,1.63651871 1.5211734,1.68441376 L1.5211734,12.3280815 L2.65694349,11.1922347 L14.2911797,11.1922347 C14.374736,11.1923967 14.4439778,11.1280378 14.4491999,11.045358 L14.4491999,1.69420555 C14.4491999,1.60767991 14.3784519,1.53753702 14.2911797,1.53753702 C5.82967421,1.53074585 1.58946587,1.53727371 1.57055471,1.55712059 Z" id="Shape" fill="#C2CFE0" fill-rule="nonzero"></path>
                </g>
            </g>
        </g>
    </g>
</svg>