<svg xmlns="http://www.w3.org/2000/svg" width="16" height="16" viewBox="0 0 16 16">
    <g fill="none" fill-rule="evenodd">
        <g>
            <g>
                <path d="M0 0H16V16H0z" transform="translate(-24 -454) translate(24 454)"/>
                <path fill="#C2CFE0" fill-rule="nonzero" d="M9.15 0l1.053 1.867.59.247 2.063-.567 1.614 1.611-.575 2.064.243.59L16 6.87v2.28l-1.867 1.054-.248.59.568 2.064-1.612 1.612-2.064-.575-.59.244-1.06 1.86h-2.28l-1.053-1.867-.59-.247-2.064.568-1.611-1.612.575-2.063-.244-.59L0 9.126v-2.28l1.867-1.053.247-.59-.567-2.064 1.61-1.61 2.065.575.59-.243L6.868 0h2.28zM8.3 1.455h-.584l-.887 1.56-1.516.626-1.728-.482-.411.411.476 1.733-.634 1.513-1.561.88v.586l1.56.889.624 1.515-.481 1.727.412.413 1.733-.477 1.512.635.882 1.56h.585l.888-1.56 1.515-.624 1.728.481.413-.413-.476-1.732.634-1.514 1.561-.881v-.585l-1.56-.887-.626-1.515.481-1.727-.413-.414-1.733.477-1.513-.634-.88-1.561zM8 5.09c1.606 0 2.909 1.302 2.909 2.909 0 1.606-1.303 2.909-2.91 2.909-1.606 0-2.908-1.303-2.908-2.91C5.09 6.394 6.393 5.092 8 5.092zm0 1.454c-.803 0-1.455.652-1.455 1.455S7.197 9.454 8 9.454 9.454 8.804 9.454 8c0-.803-.65-1.455-1.454-1.455z" transform="translate(-24 -454) translate(24 454)"/>
            </g>
        </g>
    </g>
</svg>
