<svg xmlns="http://www.w3.org/2000/svg" width="16" height="16" viewBox="0 0 16 16">
    <g fill="none" fill-rule="evenodd">
        <g fill="#C2CFE0" fill-rule="nonzero">
            <path d="M14.4 0c.884 0 1.6.716 1.6 1.6v10.731L12.331 16H1.6C.716 16 0 15.284 0 14.4V1.6C0 .716.716 0 1.6 0h12.8zm0 1.6H1.6v12.8l8.8-.001V12c0-.884.716-1.6 1.6-1.6h2.4V1.6zM14.068 12H12v2.067L14.068 12zM8.8 10.4V12H4v-1.6h4.8zM12 7.2v1.6H4V7.2h8zM12 4v1.6H4V4h8z" transform="translate(-690 -413) translate(690 413)"/>
        </g>
    </g>
</svg>
