<svg width="161" height="56" viewBox="0 0 161 56" fill="none" xmlns="http://www.w3.org/2000/svg">
<path d="M161 56C160.588 55.9821 160.195 55.9462 159.783 55.9462C125.711 55.9462 91.6577 55.9462 57.5856 55.9462C57.2487 55.9462 56.893 55.9462 56.3875 55.9462C57.0614 55.0128 57.6418 54.1692 58.297 53.2718C91.5454 53.2718 124.812 53.2718 158.154 53.2718C158.154 36.4179 158.154 19.6179 158.154 2.74615C124.925 2.74615 91.7139 2.74615 58.4281 2.74615C58.4281 3.84103 58.4281 4.9 58.4281 6.01282C56.7432 3.98462 55.1145 2.02821 53.4483 0.0538462C53.7104 0.0538462 54.0099 0.0538462 54.3095 0.0538462C89.5048 0.0538462 124.681 0.0538462 159.877 0.0538462C160.251 0.0538462 160.626 0.0179487 161 0C161 18.6667 161 37.3333 161 56Z" fill="#029076"/>
<path d="M0 20.8205C0.468023 19.6179 0.898605 18.4154 1.38535 17.2128C3.3136 12.4743 6.30895 8.36409 9.77233 4.55896C11.1764 3.01537 12.6741 1.52562 14.0781 0.0717773C15.4448 0.0717773 16.6616 0.0717773 17.8785 0.0717773C17.9347 0.107675 17.9721 0.161521 18.0283 0.197418C17.8036 0.341008 17.579 0.466649 17.3917 0.646136C10.2778 6.87434 5.05465 14.2154 2.71453 23.2795C1.68488 27.2641 1.57256 31.3026 1.98442 35.3769C2.3214 38.6974 3.03279 41.9282 4.3807 44.9974C6.29023 49.359 9.2107 52.9128 13.3667 55.5154C13.5165 55.6051 13.6476 55.7128 13.9097 55.8923C12.3933 55.8923 11.0266 55.8923 9.5664 55.8923C7.67558 54.4743 6.02814 52.7333 4.60535 50.7949C2.69581 48.2282 1.32919 45.3923 0.41186 42.359C0.299535 42 0.131047 41.641 0 41.282C0 34.4615 0 27.641 0 20.8205Z" fill="#029076"/>
<path d="M0 10.9488C1.08581 9.45907 2.07802 7.89754 3.27616 6.49754C5.16698 4.27189 7.18884 2.15395 9.06093 0.0898438C10.465 0.0898438 11.6631 0.0898438 12.9923 0.0898438C12.075 1.02318 11.2513 1.84882 10.4276 2.69241C5.9907 7.37702 2.26523 12.4924 0 18.4873C0 15.9745 0 13.4616 0 10.9488Z" fill="#029076"/>
<path d="M0 43.7949C0.580349 45.0872 1.10453 46.3795 1.74105 47.6359C3.29488 50.6693 5.37291 53.3436 7.99384 55.6231C8.05 55.677 8.10616 55.7488 8.21849 55.8924C6.92674 55.8924 5.69116 55.8924 4.21221 55.8924C3.16384 54.5462 2.00314 53.0744 0.842442 51.6026C0.542907 51.2257 0.280814 50.8308 0 50.4359C0 48.2283 0 46.0026 0 43.7949Z" fill="#029076"/>
<path d="M0 4.30767C1.21686 3.0692 2.43372 1.83074 3.63186 0.61023C3.80035 0.430743 3.95012 0.251256 4.08116 0.107666C5.48523 0.107666 6.81442 0.107666 8.27465 0.107666C5.20442 3.21279 2.28395 6.29997 0 9.87177C0 8.02305 0 6.15638 0 4.30767Z" fill="#029076"/>
<path d="M0 51.5127C1.10453 52.9665 2.19035 54.4204 3.38849 55.9999C2.19035 55.9999 1.08581 55.9999 0 55.9999C0 54.5101 0 53.0024 0 51.5127Z" fill="#029076"/>
<path d="M0 0C1.04837 0 2.09674 0 3.14512 0C3.18256 0.0538461 3.22 0.125641 3.25744 0.179487C2.17163 1.31026 1.08581 2.45897 0 3.58974C0 2.38718 0 1.20256 0 0Z" fill="#029076"/>
<path d="M52.119 32.6487C52.0816 37.1358 51.3515 41.4615 49.2173 45.4999C46.147 51.2794 41.2047 54.564 34.5026 55.4435C30.2904 55.9999 26.0969 55.8564 21.997 54.7974C14.7333 52.9128 10.0905 48.3897 7.9376 41.5512C5.93446 35.1794 6.10295 28.7538 8.08737 22.4C10.2216 15.5794 13.8909 9.60252 19.2263 4.61278C20.1062 3.78714 21.1359 3.06919 22.1468 2.38714C26.228 -0.305171 30.4589 -0.520556 34.8396 1.70508C38.9769 3.82303 42.2156 6.87431 44.9114 10.5C48.9365 15.9205 51.2017 21.9871 51.8382 28.6282C51.9692 29.9743 52.0254 31.3025 52.119 32.6487ZM9.22934 33.2051C9.22934 35.5923 9.454 37.9435 10.0905 40.241C11.8128 46.5589 15.7255 50.9384 22.3153 52.9128C26.1343 54.0615 30.047 54.2051 33.9597 53.4871C41.4294 52.1051 46.3904 47.9769 48.5059 40.9051C49.7227 36.8128 49.8163 32.6666 49.1049 28.4666C47.7758 20.7487 44.5183 13.8564 39.239 7.87944C37.5916 6.01278 35.7008 4.43329 33.4355 3.26662C30.6835 1.83073 27.9128 1.83073 25.1047 3.12303C22.7646 4.19996 20.7989 5.77944 19.1514 7.68201C12.7302 15.0769 9.62248 23.6564 9.22934 33.2051Z" fill="#029076"/>
<path d="M33.6229 0.0539579C35.3078 0.0539579 36.8804 0.0180605 38.4716 0.0719067C38.8648 0.0898554 39.2954 0.323189 39.6511 0.538573C46.9335 5.0437 51.7261 11.3078 54.0662 19.295C55.6387 24.6078 56.1068 30.0463 55.7136 35.5386C55.3392 40.7078 53.9351 45.6078 50.8087 49.9334C49.18 52.195 47.2143 54.1334 44.7432 55.5873C44.3875 55.7847 43.9382 55.9283 43.5263 55.9463C41.5606 55.9822 39.5949 55.9642 37.6105 55.8924C37.9475 55.7847 38.2844 55.677 38.6214 55.5693C44.8368 53.595 48.843 49.4847 51.1644 43.7232C53.1301 38.8411 53.3922 33.7796 52.8868 28.6283C52.3813 23.3155 50.8462 18.3078 48.1504 13.6411C45.2861 8.66934 41.5419 4.45139 36.4123 1.47191C35.5325 0.969342 34.6151 0.556522 33.6229 0.0539579Z" fill="#029076"/>
<path d="M22.0719 55.9461C20.2372 55.9461 18.3838 55.9641 16.5492 55.9282C16.0812 55.9102 15.557 55.8026 15.1451 55.5872C11.1388 53.4872 8.16222 50.4 6.0842 46.541C3.03268 40.8333 2.30257 34.6949 2.77059 28.4128C3.35094 20.8743 6.55222 14.3051 11.2325 8.32819C13.3666 5.59998 15.688 3.01537 18.4775 0.87947C18.8332 0.59229 19.2076 0.341008 19.582 0.0717773C21.1358 0.0717773 22.6522 0.0717773 24.2248 0.0717773C23.1951 0.664085 22.1468 1.16665 21.192 1.8128C17.3916 4.34357 14.6022 7.77178 12.1498 11.4872C8.87362 16.441 6.64582 21.8077 5.84082 27.641C5.03582 33.6 5.52257 39.4692 8.21838 44.9974C10.8768 50.4538 15.3323 53.9718 21.3605 55.641C21.6038 55.7128 21.8285 55.7667 22.0719 55.8385C22.0719 55.8743 22.0719 55.9102 22.0719 55.9461Z" fill="#029076"/>
<path d="M40.6057 0.0717773C42.3655 0.0717773 43.9755 0.0717773 45.6604 0.0717773C49.5169 2.79998 52.6807 6.17434 54.9272 10.2846C56.5372 13.2102 57.5669 16.3333 58.2783 19.5641C58.3344 19.8513 58.3532 20.1564 58.3532 20.4615C58.3532 27.4256 58.4093 34.4077 58.3157 41.3718C58.297 42.5923 57.829 43.8308 57.4171 44.9974C56.0879 48.8564 54.0661 52.3205 51.052 55.2282C50.8086 55.4615 50.6214 55.7308 50.4717 55.9102C48.8617 55.9102 47.4389 55.9102 45.9599 55.9102C46.9521 55.0667 47.963 54.2949 48.8804 53.4154C52.5871 49.8795 54.6651 45.5179 55.7884 40.7077C56.8368 36.2384 56.9491 31.7154 56.4436 27.1564C56.0505 23.6384 55.3953 20.1923 54.1784 16.8359C51.7634 10.2308 47.5699 4.89998 41.6541 0.789726C41.3546 0.610239 41.0363 0.376906 40.6057 0.0717773Z" fill="#029076"/>
<path d="M128.369 15.9027C126.965 17.9309 125.58 19.9591 124.082 22.1129C122.622 19.995 121.218 17.9847 119.833 15.9565C119.758 15.9745 119.683 15.9924 119.608 16.0283C119.608 19.1334 119.608 22.2386 119.608 25.4155C118.466 25.4155 117.455 25.4155 116.369 25.4155C116.369 20.5155 116.369 15.6334 116.369 10.6616C117.53 10.6616 118.691 10.6616 120.001 10.6616C121.293 12.636 122.641 14.718 124.101 16.9616C125.542 14.7719 126.89 12.6898 128.257 10.6257C129.474 10.6257 130.616 10.6257 131.833 10.6257C131.833 15.5437 131.833 20.4257 131.833 25.3975C130.803 25.3975 129.773 25.3975 128.631 25.3975C128.631 22.2386 128.631 19.1155 128.631 15.9924C128.575 15.9565 128.482 15.9386 128.369 15.9027Z" fill="#029076"/>
<path d="M80.0134 42.3589C80.7996 42.3948 81.4174 42.4127 82.1101 42.4486C81.9791 43.364 81.848 44.2076 81.717 45.123C76.1756 45.123 70.6342 45.123 65.0366 45.123C65.0366 44.2614 65.0366 43.3999 65.0366 42.4486C65.6731 42.4127 66.3096 42.3948 67.021 42.3589C68.837 38.5717 68.7995 34.5512 68.7621 30.4409C72.525 30.4409 76.213 30.4409 80.0134 30.4409C80.0134 34.3717 80.0134 38.3025 80.0134 42.3589ZM76.6436 42.3589C76.6436 39.2896 76.6436 36.2922 76.6436 33.2409C75.071 33.2409 73.5921 33.2409 72.0382 33.2409C71.9259 34.8204 71.9259 36.3281 71.7013 37.8358C71.4766 39.3435 71.046 40.8332 70.6903 42.3589C72.6748 42.3589 74.603 42.3589 76.6436 42.3589Z" fill="#029076"/>
<path d="M66.7589 10.5897C69.8665 10.7154 72.9555 10.2487 76.007 10.841C78.2535 11.2718 79.358 12.941 78.9649 15.1128C78.8338 15.7949 78.3097 16.4231 77.9165 17.0333C77.7667 17.2667 77.4485 17.4103 77.1115 17.6795C77.4672 17.8769 77.748 18.0205 78.0288 18.1641C79.5078 18.9538 80.0507 20.1923 79.9384 21.7538C79.8448 23.2077 79.0959 24.2487 77.7293 24.8051C76.9618 25.1103 76.1193 25.3795 75.3143 25.3974C72.6372 25.4872 69.9601 25.4513 67.283 25.4513C67.1333 25.4513 66.9835 25.3974 66.7963 25.3615C66.7588 20.4795 66.7589 15.5974 66.7589 10.5897ZM69.9976 22.6154C71.8135 22.6154 73.5171 22.6692 75.2207 22.5974C75.8947 22.5615 76.4188 22.0949 76.5686 21.3949C76.6997 20.8205 76.6435 20.2103 76.0819 19.8513C75.6513 19.582 75.1271 19.3667 74.6216 19.3308C73.2176 19.259 71.8135 19.2949 70.4094 19.2949C70.2597 19.2949 70.1286 19.3667 69.9788 19.4205C69.9976 20.5154 69.9976 21.5564 69.9976 22.6154ZM70.0163 16.6026C71.5701 16.6923 73.0865 16.8359 74.5842 16.459C75.3892 16.2615 75.7823 15.6692 75.7636 14.9333C75.7449 14.2333 75.2769 13.5692 74.4906 13.4795C73.0304 13.3359 71.5514 13.3179 70.0163 13.2462C70.0163 14.4667 70.0163 15.4897 70.0163 16.6026Z" fill="#029076"/>
<path d="M85.199 45.159C85.199 40.2231 85.199 35.3769 85.199 30.5487C85.3113 30.4769 85.3675 30.4231 85.4049 30.4231C88.2879 30.459 91.2084 30.3334 94.0727 30.6026C96.5064 30.8359 97.6859 32.7026 97.3114 35C97.1804 35.7898 96.7498 36.3821 96.1507 36.8846C95.9448 37.0641 95.7202 37.2257 95.4393 37.459C95.8138 37.6564 96.1133 37.8 96.3941 37.9616C97.742 38.7154 98.3037 39.8282 98.2662 41.318C98.2288 42.7359 97.5923 43.8128 96.3005 44.441C95.6266 44.7821 94.8403 45.1051 94.0914 45.1231C91.1897 45.1949 88.2692 45.159 85.199 45.159ZM88.3628 39.1103C88.3628 40.2769 88.3628 41.3 88.3628 42.4128C90.0477 42.4128 91.6764 42.4846 93.3051 42.3949C94.4284 42.341 94.99 41.659 94.9713 40.7257C94.9526 39.8641 94.3535 39.2 93.2864 39.1462C91.6764 39.0385 90.0664 39.1103 88.3628 39.1103ZM88.3628 36.5257C89.8979 36.4539 91.3394 36.4359 92.7435 36.2744C93.6608 36.1667 94.1476 35.4846 94.1289 34.7128C94.1101 33.9949 93.6234 33.3128 92.7622 33.241C91.3207 33.1334 89.8605 33.2051 88.3628 33.2051C88.3628 34.2821 88.3628 35.2872 88.3628 36.5257Z" fill="#029076"/>
<path d="M92.5375 20.2282C93.7731 21.9872 94.9712 23.6564 96.2255 25.4334C94.8589 25.4334 93.642 25.4334 92.369 25.4334C91.2645 23.8898 90.1599 22.3103 89.0367 20.7308C88.1006 20.7308 87.2208 20.7308 86.2285 20.7308C86.2285 22.3282 86.2285 23.8359 86.2285 25.4154C85.1053 25.4154 84.0944 25.4154 83.0085 25.4154C83.0085 20.4795 83.0085 15.5975 83.0085 10.6795C83.1958 10.6436 83.3455 10.5898 83.4953 10.5898C85.9664 10.5898 88.4189 10.5539 90.89 10.6257C93.4548 10.6975 95.3269 12.0795 95.7388 14.2154C96.1693 16.4949 95.72 18.6847 93.043 19.9411C92.9119 19.9949 92.7809 20.0847 92.5375 20.2282ZM86.2847 17.8231C87.7449 17.8231 89.1116 17.877 90.4595 17.8052C91.6202 17.7334 92.4252 16.9077 92.5188 15.8308C92.6124 14.7 91.9946 13.7129 90.759 13.5693C89.2988 13.4077 87.8198 13.5334 86.2847 13.5334C86.2847 14.9334 86.2847 16.3334 86.2847 17.8231Z" fill="#029076"/>
<path d="M112.382 36.3282C112.382 37.3334 112.382 38.159 112.382 39.1103C109.948 39.1103 107.552 39.1103 105.099 39.1103C105.099 40.259 105.099 41.2821 105.099 42.4128C107.907 42.4128 110.659 42.4128 113.486 42.4128C113.486 43.3821 113.486 44.2257 113.486 45.141C109.592 45.141 105.736 45.141 101.804 45.141C101.804 40.259 101.804 35.3769 101.804 30.4231C105.623 30.4231 109.443 30.4231 113.336 30.4231C113.336 31.3026 113.336 32.1641 113.336 33.1334C110.584 33.1334 107.889 33.1334 105.099 33.1334C105.099 34.2103 105.099 35.1975 105.099 36.3103C107.533 36.3282 109.911 36.3282 112.382 36.3282Z" fill="#029076"/>
<path d="M114.385 25.4333C113.131 25.4333 112.045 25.4333 110.922 25.4333C110.454 24.3744 110.004 23.3333 109.517 22.2026C107.29 22.2026 105.081 22.2026 102.741 22.2026C102.291 23.2436 101.823 24.3026 101.318 25.4154C100.232 25.4154 99.1648 25.4154 97.9667 25.4154C100.194 20.3897 102.385 15.4538 104.594 10.5C105.642 10.5 106.672 10.5 107.758 10.5C109.929 15.4359 112.12 20.3538 114.385 25.4333ZM108.301 19.2769C107.571 17.5897 106.897 16.0641 106.241 14.5205C106.148 14.5385 106.073 14.5564 105.979 14.5564C105.324 16.0821 104.687 17.6077 103.976 19.259C105.455 19.2769 106.784 19.2769 108.301 19.2769Z" fill="#029076"/>
<path d="M150.198 25.4154C148.962 25.4154 147.895 25.4154 146.735 25.4154C146.285 24.3564 145.817 23.2974 145.331 22.1846C143.065 22.1846 140.838 22.1846 138.572 22.1846C138.086 23.2974 137.618 24.3564 137.15 25.4154C136.045 25.4154 134.997 25.4154 133.799 25.4154C136.026 20.3718 138.217 15.4538 140.426 10.5C141.455 10.5 142.448 10.5 143.571 10.5C145.742 15.4 147.952 20.3538 150.198 25.4154ZM142.073 14.4846C141.998 14.4846 141.923 14.4846 141.83 14.4846C141.175 16.0462 140.501 17.6256 139.808 19.259C141.306 19.259 142.635 19.259 144.114 19.259C143.384 17.5897 142.728 16.0462 142.073 14.4846Z" fill="#029076"/>
<path d="M121.068 40.7078C121.068 42.3052 121.068 43.7052 121.068 45.1591C119.964 45.1591 118.953 45.1591 117.867 45.1591C117.867 40.2591 117.867 35.377 117.867 30.4591C118.054 30.4411 118.223 30.3873 118.41 30.3873C120.469 30.3873 122.528 30.3514 124.588 30.3873C127.377 30.4411 129.493 32.0565 129.904 34.4078C130.522 37.854 128.276 40.5283 124.569 40.6899C123.427 40.7437 122.323 40.7078 121.068 40.7078ZM121.124 37.9078C122.266 37.9078 123.296 37.9616 124.326 37.8899C125.543 37.8181 126.46 36.9924 126.61 35.9873C126.778 34.7847 126.273 33.7975 125.206 33.4565C123.876 33.0078 122.528 33.2232 121.143 33.2411C121.124 34.8386 121.124 36.3104 121.124 37.9078Z" fill="#029076"/>
<path d="M58.3531 16.3155C56.35 9.81804 52.6807 4.43343 46.9708 0.125732C48.8429 0.125732 50.509 0.125732 52.2688 0.125732C54.6838 2.10009 56.6495 4.54112 58.2033 7.30522C58.3344 7.52061 58.3531 7.82573 58.3531 8.07702C58.3718 10.8232 58.3531 13.5693 58.3531 16.3155Z" fill="#029076"/>
<path d="M136.738 45.1589C135.671 45.1589 134.66 45.1589 133.574 45.1589C133.574 40.2409 133.574 35.3948 133.574 30.4409C134.603 30.4409 135.652 30.4409 136.738 30.4409C136.738 35.323 136.738 40.1871 136.738 45.1589Z" fill="#029076"/>
<path d="M55.5823 55.9283C54.1221 55.9283 52.8678 55.9283 51.445 55.9283C54.7025 52.7873 56.8366 49.1257 58.353 45.0693C58.353 47.277 58.353 49.5027 58.3343 51.7104C58.3343 51.9078 58.222 52.1232 58.1097 52.2847C57.2859 53.5052 56.4248 54.7078 55.5823 55.9283Z" fill="#029076"/>
<path d="M47.1206 33.3309C47.2142 36.3462 46.8023 39.2898 45.5855 42.0898C43.1705 47.7078 38.6775 50.7591 32.4808 51.6386C28.9987 52.1232 25.5541 51.8898 22.2592 50.6873C16.6242 48.6052 13.4604 44.495 12.2061 38.9668C10.9143 33.3309 11.5883 27.7847 13.4042 22.3642C14.9768 17.6437 17.2607 13.3001 20.799 9.62061C22.2592 8.09497 23.9254 6.80267 25.9472 5.97703C28.3435 4.98985 30.6649 5.07959 32.9676 6.24626C35.3451 7.46677 37.2734 9.20779 38.9021 11.236C43.3577 16.7283 46.0535 22.9565 46.9708 29.8668C47.0083 30.1898 47.1019 30.5129 47.1019 30.836C47.1393 31.6437 47.1206 32.4873 47.1206 33.3309ZM12.3558 33.8514C12.5618 35.2155 12.7115 37.4232 13.2732 39.5591C14.6585 44.8719 18.0283 48.5514 23.5509 50.2386C26.3591 51.0821 29.2421 51.2437 32.1439 50.8668C38.2843 50.0591 42.665 47.0437 44.9302 41.4257C46.5215 37.4591 46.6713 33.295 46.0161 29.1488C45.0238 22.7591 42.4591 16.9796 38.3218 11.8642C36.9177 10.1232 35.3077 8.59754 33.3607 7.39497C30.6649 5.72574 27.9316 5.68985 25.1609 7.25138C23.3637 8.25651 21.8286 9.58472 20.5369 11.1283C15.2576 17.518 12.7302 24.877 12.3558 33.8514Z" fill="#029076"/>
<path d="M44.4061 33.3487C44.4061 36.0769 44.013 38.7153 42.8523 41.2102C41.13 44.8897 38.247 47.3128 34.1845 48.4076C31.0956 49.2333 27.9504 49.2871 24.8615 48.4974C19.3014 47.0794 16.1001 43.4538 14.8645 38.1948C13.6289 32.9897 14.4339 27.9282 16.2873 22.9743C17.579 19.5102 19.3763 16.3153 21.9785 13.5692C23.1204 12.3666 24.4122 11.3435 25.9286 10.5897C28.2125 9.47687 30.459 9.47687 32.7056 10.6974C35.027 11.9717 36.8242 13.7846 38.3406 15.8487C42.1409 21.1076 44.2938 26.9051 44.4061 33.3487ZM43.676 33.3846C43.676 27.282 41.0177 20.1384 36.9365 15.3102C35.7384 13.8923 34.4092 12.582 32.7992 11.5948C30.6088 10.2487 28.3623 10.141 26.0783 11.3615C25.2359 11.8102 24.4496 12.3487 23.7195 12.9589C20.8178 15.4358 18.9082 18.5948 17.4667 22.0051C15.3513 27.0487 14.3778 32.2717 15.5197 37.6923C16.5119 42.4128 19.189 45.8769 24.0565 47.5282C26.6587 48.4076 29.3732 48.5692 32.0878 48.1384C36.7867 47.3846 40.2688 45.0692 42.2158 40.8153C43.2829 38.4461 43.6573 35.9333 43.676 33.3846Z" fill="#029076"/>
<path d="M29.5228 46.2717C24.9174 46.164 21.2668 44.7281 18.908 40.9769C17.8222 39.2538 17.2606 37.3512 17.1295 35.3769C16.6615 28.7717 18.5897 22.8487 23.0079 17.7333C23.9065 16.6922 25.0859 15.8307 26.284 15.1128C28.3808 13.8563 30.5337 14.0179 32.6117 15.3102C34.6149 16.5666 36.1125 18.2717 37.3856 20.1743C39.9878 24.0871 41.5229 28.341 41.6352 32.9897C41.7101 36.3999 41.0736 39.6666 38.696 42.3948C36.8052 44.5666 34.334 45.7153 31.451 46.1102C30.7209 46.182 30.0095 46.2179 29.5228 46.2717ZM17.6163 33.2769C17.7286 34.3358 17.7473 35.4487 17.9532 36.5435C18.7957 40.941 21.2668 44.0281 25.9096 45.2128C27.763 45.6974 29.6725 45.7512 31.5633 45.4281C35.5135 44.764 38.359 42.7538 39.9129 39.1461C40.6804 37.3512 41.0174 35.4666 40.9987 33.5461C40.9425 28.1794 39.1079 23.3692 35.7756 19.0615C34.7272 17.7153 33.5103 16.5307 31.9752 15.6512C30.2903 14.682 28.5306 14.5563 26.8269 15.5076C25.7973 16.082 24.7676 16.782 23.9626 17.6256C19.7692 22.041 17.9158 27.3538 17.6163 33.2769Z" fill="#029076"/>
<path d="M30.4589 43.4C23.9815 43.4 20.4432 40.4025 19.8816 35.2871C19.2825 29.9564 20.9861 25.2538 24.5806 21.2153C25.2545 20.4615 26.1531 19.8512 27.0517 19.3487C28.5681 18.4871 30.1407 18.5589 31.6571 19.4205C33.0799 20.2282 34.1844 21.3589 35.1204 22.6512C37.498 25.9179 38.8085 29.5435 38.8459 33.5461C38.8646 35.1974 38.5651 36.8128 37.835 38.3384C36.1688 41.8743 33.1547 43.3461 30.4589 43.4ZM20.256 33.3128C20.2935 33.941 20.3309 34.4974 20.3684 35.0718C20.6679 38.6974 22.8957 41.5333 26.2842 42.5025C28.0065 43.0051 29.785 43.0589 31.5447 42.6641C35.4949 41.7666 38.0035 38.7333 38.2468 34.6051C38.4902 30.441 37.2546 26.7077 34.8958 23.2615C34.0159 21.9871 32.9675 20.8384 31.6009 19.9948C30.122 19.0795 28.5868 19.0256 27.1079 19.941C26.228 20.4794 25.3856 21.1436 24.7116 21.9153C21.7911 25.2 20.4432 29.0769 20.256 33.3128Z" fill="#029076"/>
<path d="M22.5026 33.4385C22.54 30.2795 23.6071 27.4616 25.7975 25.0923C28.0627 22.6334 30.4777 22.5795 32.7055 25.0744C35.4575 28.1616 36.7118 31.7334 35.7383 35.8077C34.952 39.1462 32.1252 40.8872 28.2687 40.5641C25.0861 40.2949 22.746 37.9077 22.5213 34.7129C22.4839 34.2821 22.5026 33.8513 22.5026 33.4385ZM35.6447 33.8334C35.5324 31.0872 34.9146 28.9334 33.6228 27.0129C32.9863 26.0795 32.2 25.1821 31.3202 24.4462C30.0284 23.3693 28.6992 23.3872 27.2952 24.3744C26.7148 24.7693 26.1719 25.2539 25.7413 25.7923C23.551 28.5026 22.5588 31.5718 22.9706 35.018C23.3263 37.9077 25.4792 39.918 28.6431 40.1693C31.4886 40.3846 34.0721 39.1103 35.0643 36.2744C35.42 35.359 35.5324 34.3718 35.6447 33.8334Z" fill="#029076"/>
<path d="M33.2859 33.0614C33.2672 36.0409 31.5823 37.8179 29.1299 37.8358C27.0144 37.8538 25.367 36.4537 25.161 34.3178C24.9551 32.0922 25.7039 30.1358 27.4263 28.5922C28.7555 27.4076 30.1034 27.4794 31.3389 28.7537C32.6307 30.064 33.2298 31.6614 33.2859 33.0614ZM25.4793 33.4204C25.4044 35.7178 26.7336 37.2794 28.8303 37.4948C30.796 37.6922 32.4996 36.364 32.8179 34.264C33.1549 32.1819 32.4435 30.3691 30.9271 28.8614C29.8787 27.8204 28.7555 27.8384 27.6322 28.8435C26.2469 30.0999 25.6103 31.7332 25.4793 33.4204Z" fill="#029076"/>
</svg>
