<?xml version="1.0" encoding="utf-8"?>
<!-- Generator: Adobe Illustrator 22.1.0, SVG Export Plug-In . SVG Version: 6.00 Build 0)  -->
<svg version="1.1" id="Layer_1" xmlns="http://www.w3.org/2000/svg" xmlns:xlink="http://www.w3.org/1999/xlink" x="0px" y="0px"
	 width="2362px" height="3217px" viewBox="0 0 2362 3217" style="enable-background:new 0 0 2362 3217;" xml:space="preserve">
<style type="text/css">
	.st0{fill:#F4F4F4;}
</style>
<path class="st0" d="M1320.4,1338.8c-47.6-38.7-95.8-59.8-139.4-60.9c-91.8,0-193.4,74.7-278.6,204.9
	c-84.9,128.5-138.4,295.3-143.2,446.1c-2.3,73.7,5.9,141,24.4,200.2c18.6,59.2,47.6,110.7,86.3,152.9
	c35.1,38.6,77.6,68.3,126.6,88.5c48.4,19.9,103.4,30.6,163.4,31.8h7.1c58.8,0,114-9.9,164-29.5c50.4-19.7,94.3-48.6,130.6-86.1
	c38.6-38.6,68.8-86.7,89.6-142.9c20.7-55.9,31.8-118.7,32.9-186.7c2.3-71.2-8.5-150.9-31.1-230.5c-22.5-79-56.4-156.8-98-225.1
	C1415,1434.2,1368.4,1377.9,1320.4,1338.8z M1581.1,1957.2c-2.4,137.1-44.4,250.3-121.7,327.6c-71.6,73.9-175.5,114.6-292.5,114.6
	h-7c-121.1-2.4-218-42.5-287.8-119.3c-77.7-84.7-114.7-202.8-110-351c4.8-150.3,58.1-316.5,142.7-444.6
	c84.7-129.4,185.3-203.6,276.1-203.6c42.8,1.2,90.4,22,137.5,60.3c47.8,38.8,94.1,94.9,134,162
	C1537.7,1642.9,1585.8,1812.6,1581.1,1957.2z M1338.9,1308.4c-52.6-41.3-106.4-63.8-155.6-64.9h-4.7c-104.5,0-217,81-308.9,222.3
	l-0.1,0.2l0,0c-89.9,137.3-145,310.4-147.3,463.1c-2.3,77.8,6.9,149.5,27.5,212.9c20.5,63.2,52.2,118.3,94.2,163.8l0.2,0.2
	c38.5,41.9,85,74.6,138.4,97.1c53.7,22.7,113.3,34.8,177.3,36h7c64,0,124.1-10.9,178.7-32.5c54.5-21.5,102.2-53.1,141.9-93.9
	c82.5-82.5,128.6-205.5,133.4-355.7c4.7-156-44-329.1-133.4-475C1442.7,1409.6,1391.3,1349.6,1338.9,1308.4z M1617.9,1957.1
	c-4.7,149.4-50.6,271.7-132.5,353.6l-0.1,0.1c-78.6,80.9-191.7,125.4-318.4,125.4h-7c-128-2.3-236.5-48.1-313.7-132.4l-0.4-0.5h0
	c-83.4-90.6-125-220-120.4-374.2c2.3-152.2,57.2-324.8,146.9-461.7l0.1-0.2c91.2-140.3,202.9-220.7,306.2-220.7l4.6,0
	c48.6,1.1,101.8,23.4,153.8,64.3c52.1,40.9,103.2,100.7,147.9,173C1574.1,1629.1,1622.6,1801.6,1617.9,1957.1z M1565,1295.7
	c-58.6-95.4-125.3-174.7-192.8-229.5c-67.6-54.8-135.3-84.3-195.8-85.5h-2.3c-64,0-134.1,27.8-202.8,80.5
	c-68.7,52.7-135.4,129.7-192.9,222.8c-119.5,189.9-192.3,431-194.7,645c-2.3,211.2,53.8,378,167,495.8
	c101.5,106.2,244.7,162.4,414,162.4h4.7c86.3,0,166.8-14.4,239.2-42.9c72.1-28.4,134.8-70.1,186.5-124.1
	c54.2-56.5,95.4-125.1,122.6-203.8c27.5-79.5,40.8-169.8,39.7-268.6C1759.7,1736.4,1687.8,1492.7,1565,1295.7z M1592.8,2418.1
	c-104,108.7-250.4,166.1-423.5,166.1h-4.7c-168.5,0-310.9-55.8-411.8-161.5c-112.6-117.3-168.5-283.4-166.1-493.7
	c2.3-213.5,75-454.1,194.2-643.5c57.3-92.8,123.7-169.6,192.2-222c68.2-52.2,137.7-79.9,200.9-79.9h2.3
	c59.8,1.2,126.9,30.5,193.9,84.8c67.3,54.5,133.7,133.6,192.2,228.7c122.5,196.5,194.2,439.6,191.9,650.5
	C1756.6,2145.7,1702.3,2303.9,1592.8,2418.1z M1395.1,1023.8c-74.1-58.4-148.9-89.2-216.4-89.2h-2.3c-36.5,0-74.1,7.2-111.7,21.5
	c-37.3,14.1-74.8,35.2-111.7,62.7c-74.9,55.9-145.4,136.2-209.4,238.7c-123.7,198.3-198.9,448.5-201.2,669.2
	c-1.2,110.4,13.4,211,43.3,299.2c29.7,87.8,75,164.2,134.6,227.3c54.9,57.2,120.5,101.2,195.1,130.7c75,29.7,158.9,44.8,249.5,44.8
	h4.7c93.5,0,179.7-15.3,256.2-45.3c77.1-30.3,144.4-75.7,200-134.8l0,0c57-59.3,101.1-132.4,131-217.3
	c29.9-84.7,45.6-180.8,46.8-285.8c2.3-216.7-72-469.5-198.9-676.3C1541.2,1166.7,1468.8,1081.8,1395.1,1023.8z M1800.4,1945.4
	c-2.3,209.7-63.5,383-177,501l0,0c-110.4,117.3-267.4,179.2-454.1,179.2h-4.7c-179.9,0-332.9-60.4-442.4-174.6
	c-119.8-126.8-179.3-303.3-177-524.4c2.3-220.2,77.4-469.8,200.8-667.7c127.7-204.3,284.6-321.5,430.4-321.5h2.3
	c66.9,0,141.1,30.6,214.6,88.6c73.4,57.8,145.6,142.4,208.7,244.6C1728.6,1477.1,1802.8,1729.3,1800.4,1945.4z M1721.5,1058.5
	c-81.6-132.1-174.6-241.4-269-316c-47-37.1-94.1-65.7-140.3-84.9c-46.8-19.5-92.5-29.4-135.9-29.4c-46.9,0-95.2,9.5-143.6,28.4
	c-47.9,18.6-96.2,46.5-143.6,82.8c-47.4,36.3-94.2,81.2-139.2,133.6c-45.4,52.9-89.3,113.8-130.5,181.1
	c-77.2,127.9-141.2,275.4-185.1,426.7c-44.2,152.2-67.6,306.4-67.6,446c0,145,19.6,275.2,58.2,387c38.9,112.6,98,209.2,175.7,286.9
	l0.1,0.1c140,142.4,338.3,217.6,573.3,217.6c121.5,0,233.4-19.9,332.6-59.1c99.8-39.4,186.3-98.3,257.1-174.9l0.4-0.5v0
	c147.2-154.5,221.9-374,221.9-652.4c0-137-24.2-289.4-69.9-440.8c-46-152.1-113.2-301.5-194.5-432L1721.5,1058.5z M1983,1931.4
	c0,277.9-74.5,496.8-221.5,650.8l-0.4,0.4v0c-140.9,152.2-343.9,232.6-587.1,232.6c-234.2,0-431.7-74.9-571.1-216.7l-0.1-0.1
	c-154.7-154.7-233.1-380.7-233.1-671.8c0-283.8,94.3-609.5,252.3-871.2C704.5,920.6,795,815,890.9,741.6
	c95.8-73.3,191.9-110.5,285.4-110.5c85.3,0,180.2,39.3,274.3,113.7c94.2,74.4,187,183.5,268.4,315.4l0.1,0.1
	C1884.3,1325.7,1983,1651.3,1983,1931.4z M1428.9,785.1c-43.5-35.2-86.9-62.3-129-80.6c-42.9-18.6-84.4-28-123.6-28
	c-42,0-86.1,9.3-130.9,27.5c-44.1,18-89,44.6-133.3,79.3c-89.3,69.7-176,171.6-250.8,294.8l-0.1,0.2c-154.1,256-246,572.3-246,846.1
	c0,138.3,18.5,262.3,54.9,368.6c36.7,107.3,92.6,198.9,166,272.3c131.4,133.8,317.5,204.5,538,204.5c230.5,0,422.2-74.8,554.4-216.2
	l0,0c68-73.8,120.1-163.4,154.8-266.1c34.8-103.1,53.1-222.1,54.3-353.7c2.3-270.3-93.2-587.5-255.5-848.7
	C1603.6,959.5,1516.1,855.8,1428.9,785.1z M1934.5,1933.7c-2.3,262.3-72.4,470.2-208.2,617.7l0,0
	c-131.6,140.8-322.6,215.3-552.2,215.3c-219.7,0-405-70.4-535.9-203.6c-146-146-220-360.9-220-638.8c0-273.3,91.9-589.1,245.7-844.7
	l0.1-0.1c74.6-122.8,161.1-224.4,250-293.8c89-69.5,179.7-106.2,262.4-106.2c76.8,0,163.5,37.3,250.7,107.9
	c87,70.5,174.3,173.9,252.4,299.2C1841.5,1347.3,1936.8,1664,1934.5,1933.7z M1365.9,1695.2l-0.1-0.1
	c-48.4-87.5-115.7-142.6-180.2-147.4c-65.1-4.7-135.1,38.8-191.9,119.3c-26.3,36.6-49,79.7-65.5,124.6
	c-16.4,44.6-27,91.4-30.4,135.2c-4.7,91.5,16.6,168.7,63.2,229.3c44.2,55.8,108.9,86.5,187.2,88.9h11.7
	c70.7,0,137.2-24.9,187.2-70.2c52.7-50.3,84.3-123.3,88.9-205.6l0-0.3c3.4-43.6-1.1-91.6-13.2-138.6
	C1410.8,1783.2,1391.2,1736.5,1365.9,1695.2z M1433.1,1968.3l0,0.3c-4.5,81.7-35.8,154.1-87.9,203.9
	c-49.5,44.8-115.2,69.4-185.2,69.4l-11.6,0c-77.4-2.3-141.3-32.7-184.9-87.8c-46.2-60-67.2-136.5-62.6-227.3
	c7.1-89.6,41.8-183.7,95.4-258.2l0,0c53.5-75.8,118.5-118.4,179.9-118.4c3.1,0,6.2,0.1,9.3,0.3c63.4,4.7,129.8,59.2,177.7,145.8
	l0.1,0.2C1414.6,1780.6,1440,1879.6,1433.1,1968.3z M1345,1709.8L1345,1709.8c-23.3-38.4-50-70.6-77.2-93.1
	c-27.8-23-56.2-35.8-81.9-37l-4.8,0c-53.6,0-112.5,38.8-161.5,106.5l-0.1,0.1c-51.4,73.5-84.9,165-89.5,244.8
	c-6.8,81.2,12.3,151.2,56.8,208l0.1,0.1c41.6,48.9,99,76,166.1,78.3h9.4c64.2,0,121.5-22.1,165.9-64l0.5-0.5v0
	c47.7-45.6,75.4-110,80-186.3c6.8-81.3-16.4-174.9-63.5-256.7L1345,1709.8z M1405.6,1966.5c-4.6,75.9-32.1,139.8-79.6,184.8
	l-0.5,0.4v0c-43.7,41-100.2,62.7-163.3,62.7h-9.3l0,1.5l-0.1-1.5c-66.1-2.3-122.7-29-163.8-77.2l-0.1-0.1
	c-43.9-56.2-62.8-125.4-56.1-205.9c4.5-79.3,37.7-170.2,88.8-243.2l0.1-0.1c48.5-66.9,106.5-105.3,159.1-105.3h4.6l0-1.5l0.1,1.5
	c25.1,1.1,52.8,13.7,80.1,36.3c27,22.3,53.5,54.3,76.6,92.4l0,0C1389.3,1792.9,1412.4,1885.8,1405.6,1966.5z M2270.9,2475.7
	c-28,81.2-63.6,157.2-105.7,226.1c-42.3,69-92.3,132.6-148.7,189c-202.8,202.8-488.4,311.2-826,313.5l0-3
	c336.8-2.3,621.7-110.5,823.9-312.7c225.3-225.3,338.4-552.9,336.1-973.6v0c-4.7-411.6-152.3-888.6-394.9-1275.9l0,0l-0.1-0.2
	c-117.7-190.9-252.1-348.9-388.6-457C1431.2,74.7,1295.4,18,1174,18h-2.3c-135.4,1.2-274.1,56.9-412.3,165.8
	C621.2,292.6,491.5,448.1,373.9,646C146.2,1029.4,11.7,1508.2,14,1926.7c2.3,420.7,119.3,747.5,347.8,971.3
	c203.1,198.4,486.4,303.3,819.2,303.3h9.3l0,3h-9.4c-166.4,0-321.1-26.1-459.8-77.5c-138.5-51.3-260.1-127.6-361.5-226.7
	c-229-224.3-346.3-551.8-348.7-973.4c-0.6-103.6,7.2-212.2,23.1-322.8c15.7-109.3,39.3-220.5,70.2-330.7
	c31-110.3,69.2-219.5,113.7-324.5c45.1-106.6,96.7-209,153.4-304.3c58.5-98.5,121.2-188,186.3-265.9
	c64.4-77.1,131.7-143.5,199.8-197.1c68.2-53.7,137.8-95.1,206.9-123c69.8-28.2,139.6-42.8,207.3-43.4h2.3
	c61.3,0,126.4,14.2,193.2,42.3c66.1,27.7,133.8,68.9,201.3,122.4c67.7,53.6,135,119.4,200,195.6c66.1,77.5,129.8,165.7,189.3,262.1
	l-1.3,0.8l1.3-0.8c242.9,387.8,390.8,865.4,395.5,1277.6l-1.5,0l1.5,0C2354.5,2124.9,2326.8,2313.6,2270.9,2475.7z M2288.5,1912.7
	c-2.3-396.3-144.2-860.5-379.5-1241.7c-56.7-91.9-116.9-176-179.2-249.8c-61.2-72.6-124.3-135.4-187.4-186.5
	c-63.1-51-126.1-90.3-187.3-116.7c-62.1-26.8-122.2-40.4-178.8-40.4h-2.4c-61.1,0.6-125,14.8-189.8,42.2
	c-63.9,27-128.8,66.9-192.9,118.5c-64.1,51.6-127.4,114.9-188.2,188.2C541.4,500.7,482.3,585.3,427.3,678
	C204.9,1052.6,73.5,1519.4,75.9,1926.7c1.2,200.9,29.5,381.4,84.1,536.2c54.9,155.5,137.1,287.5,244.4,392.5
	c94.5,93.3,209.2,165.2,341,213.6c131.2,48.3,277.8,72.7,435.7,72.7h7c159.4-1.2,307.1-26.9,438.9-76.5
	c133-50.1,248.2-123.8,342.4-219.2C2183.5,2629.7,2290.8,2315.6,2288.5,1912.7z M1967.2,2844c-188.2,190.5-457.7,292.5-779.2,294.8
	h-7c-317.6,0-585.4-98.7-774.5-285.5c-215-210.3-325.2-522.1-327.6-926.6c-2.3-406.9,128.9-873.1,351-1247.2
	c109.1-183.7,234.7-335.5,363.3-439C921.7,137,1053.4,81.7,1174,80.5h2.3c111.7,0,237.6,54.1,364.2,156.5
	c127.2,102.9,253.7,253.5,365.9,435.5c235,380.8,376.8,844.4,379.1,1240.2C2287.8,2314.8,2180.7,2628.1,1967.2,2844z M1679.8,626.6
	c-55.3-64.6-112.4-120.2-169.7-165.5c-57.3-45.3-114.9-80.2-171-103.7c-56.9-23.8-112.5-35.9-165.1-35.9
	c-56.8,0-115.5,11.9-174.5,35.3c-58.4,23.2-117.4,57.8-175.3,102.8c-58,45.1-115.2,101-170.1,166C598.5,691.4,545.1,767,495.4,850.4
	c-191.9,323-306.5,725.4-306.5,1076.4c0,176.9,24.7,336.2,73.4,473.3c48.7,137,122.4,254.9,219.1,350.4
	c173.8,171.5,414.9,262.1,697.3,262.1h2.3c147.7,0,284.6-24.8,406.9-73.7c121.8-48.7,227.4-120.7,313.6-213.8l1.3-1.4l0,0
	c87.9-95.1,154.8-210.8,199.1-343.7c44.3-133,66.7-286.3,66.7-455.4c0-343.9-122.5-746.3-327.6-1076.4
	C1790,766.4,1735.8,691.9,1679.8,626.6z M1900.5,2721.5l-1,1.1c0,0,0,0,0,0l-1,1c-173.5,187-421.6,285.8-717.5,285.8h-2.3
	c-281.6,0-522-90.3-695.2-261.2c-193.5-191.2-291.6-467.6-291.6-821.5c0-350.5,114.4-752.3,306.1-1074.8
	C597.7,684.8,708.1,553.7,826,462c117.2-91.2,234.3-137.4,348-137.4c103.7,0,219.3,48,334.2,138.9c115,90.9,229.2,224.4,330.1,386.2
	c204.8,329.6,327.1,731.4,327.1,1074.8C2165.5,2263,2076.3,2531.2,1900.5,2721.5z M1794.2,879.1c-48.7-77.1-100.1-147.6-152.6-209.4
	c-52.1-61.3-105.5-114.1-158.6-157.1c-53.4-43.2-106.5-76.4-158-98.8c-52.4-22.8-103.3-34.4-151.1-34.4
	c-51.9,0.6-106.1,12.5-161,35.4c-54.2,22.6-109.2,55.9-163.5,99c-54.3,43.1-107.9,96-159.2,157.3c-52.1,62.2-102,133-148.3,210.6
	c-186.4,312.1-297.6,703.7-297.6,1047.5c0,337.7,92.4,601.4,274.6,783.6l0.1,0.1c162.1,159.8,389.4,244.2,657.3,244.2h4.7
	c285-2.4,520.4-95.8,680.8-270.1c166.7-180.7,251.2-436.5,251.2-760.2c0-334.3-119.1-725.9-318.7-1047.5L1794.2,879.1z
	 M1859.6,2684.9c-159.8,173.7-394.4,266.7-678.6,269.1h-4.7c-267,0-493.6-84.1-655.1-243.3l-0.1-0.1
	C339.5,2529,247.3,2266,247.3,1929.1c0-343.3,111.1-734.3,297.2-1046C636.2,729.6,742.3,602.6,851.4,516
	C960,429.7,1071.6,383.5,1174,382.4c93.8,0,200,45.8,307.1,132.5c106.4,86.1,213.9,212.7,310.6,365.9l0.1,0.1
	C1991,1202,2110,1593,2110,1926.7C2110,2249.6,2025.7,2504.7,1859.6,2684.9z"/>
</svg>
