<svg width="100" height="24" viewBox="0 0 100 24" fill="none" xmlns="http://www.w3.org/2000/svg">
<path d="M21.322 8C21.322 10.2 20.5224 12.1 18.8167 13.65C17.1642 15.25 15.1386 16 12.7932 16H4.2644V24H0V12H4.2644H12.7932C13.9659 12 14.9254 11.6 15.7783 10.85C16.6312 10.05 17.0576 9.15 17.0576 8.05C17.0576 6.95 16.6312 6 15.7783 5.25C14.9254 4.4 13.9659 4 12.7932 4H4.2644L0 0H12.7932C15.1386 0 17.1642 0.8 18.8167 2.35C20.4691 3.95 21.322 5.8 21.322 8Z" fill="#BDBDBD"/>
<path d="M28.0913 20L25.9058 24H21.1617L33.9549 0L42.4837 16H37.6862L33.9549 8.95L30.1702 16L28.0913 20ZM46.7481 24H42.0039L39.8717 20H44.6159L46.7481 24Z" fill="#BDBDBD"/>
<path d="M67.5903 17.3L71.8547 18.6C71.2684 19.4 70.6287 20.15 69.8292 20.8C69.0829 21.45 68.23 22.05 67.3238 22.5C66.4176 23 65.4581 23.35 64.392 23.6C63.3792 23.85 62.3131 24 61.1937 24C57.6223 24 54.6905 22.8 52.1852 20.45C49.6799 18.1 48.3472 15.35 48.3472 12C48.3472 8.7 49.5732 5.9 52.1319 3.55C54.5839 1.2 57.6223 0 61.1404 0C62.8995 0 64.552 0.3 66.1511 0.95C67.6969 1.6 69.0829 2.45 70.2556 3.55L67.1639 6.35C65.5114 4.8 63.5392 4 61.1404 4C58.795 4 56.7694 4.75 55.117 6.35C53.4645 7.9 52.6649 9.8 52.6649 12C52.6649 14.2 53.4645 16.1 55.117 17.65C56.7694 19.2 58.8483 19.95 61.1404 19.95C62.4198 19.95 63.5925 19.7 64.7119 19.25C65.778 18.8 66.7375 18.15 67.5903 17.3ZM61.1404 10H71.8014L67.537 14H61.0871L61.1404 10Z" fill="#BDBDBD"/>
<path d="M100 0L94.6695 4H78.678V0H100ZM94.6695 14H78.678V10H94.6695V14ZM100 23.65V24H78.678V20H94.6695L100 23.65Z" fill="#BDBDBD"/>
</svg>
